<?xml version="1.0" encoding="UTF-8" standalone="no"?><svg id="Réteg_1" data-name="Réteg 1" xmlns="http://www.w3.org/2000/svg" viewBox="0 0 15.91 15.9"><defs><style>.cls-1{fill:#cdcccc;}.cls-2{fill:#fff;}</style></defs><title>ti-star-yelp-e</title><path class="cls-1" d="M1.9,0.1H14.2A1.79,1.79,0,0,1,16,1.9V14.2A1.79,1.79,0,0,1,14.2,16H1.9A1.79,1.79,0,0,1,.1,14.2V1.9A1.73,1.73,0,0,1,1.9.1Z" transform="translate(-0.09 -0.1)"/><path class="cls-2" d="M8.1,2.8L9.7,6a0.1,0.1,0,0,0,.1.1l3.5,0.5a0.1,0.1,0,0,1,.1.1V6.8L10.8,9.3V9.4l0.6,3.5c0,0.1,0,.1-0.1.1H11.2L8,11.3H7.9L4.8,13H4.6V12.9L5.2,9.4V9.3L2.6,6.7V6.5H2.7L6.2,6a0.1,0.1,0,0,0,.1-0.1L7.9,2.7a0.31,0.31,0,0,1,.2.1h0Z" transform="translate(-0.09 -0.1)"/></svg>