<?xml version="1.0" encoding="UTF-8" standalone="no"?><svg viewBox="0 0 40 40" xmlns="http://www.w3.org/2000/svg"><path d="M19.999774 33.530115l-8.589828 4.411935c-1.701434.873896-3.805853.23481-4.70035-1.42744-.356193-.661916-.479106-1.420089-.349712-2.157144l1.640511-9.344628-6.949316-6.617902c-1.37649-1.310845-1.404655-3.46366-.06291-4.808448.53429-.535502 1.234371-.883995 1.991862-.99153l9.60372-1.363363 4.294913-8.502024c.850717-1.684043 2.937728-2.37547 4.66147-1.544344.686403.330958 1.24199.87375 1.58075 1.544344l4.294914 8.502024 9.60372 1.363363c1.90226.270048 3.22027 1.995539 2.943855 3.85399-.11007.740045-.466778 1.424003-1.014904 1.945988l-6.949316 6.617902 1.64051 9.344628c.324946 1.850942-.94749 3.60878-2.842066 3.926242-.75443.126415-1.530475.006332-2.207995-.341658l-8.589828-4.411935z" fill="#DBDCE1" fill-rule="evenodd"/></svg>