<?xml version="1.0" encoding="UTF-8" standalone="no"?><svg xmlns="http://www.w3.org/2000/svg" version="1.1" id="svg2" viewBox="0 0 30 30"><path id="path1107" d="m 28.463523,10.048329 -8.19251,-1.2478899 -3.66167,-7.75686 c -0.65608,-1.38263995 -2.55701,-1.40020995 -3.21869,0 l -3.6616701,7.75686 -8.1925101,1.2478899 c -1.46915999,0.22263 -2.05793994,2.11497 -0.99251999,3.19882 l 5.92709009,6.03441 -1.40187,8.52434 c -0.25233,1.54082 1.30093,2.69498 2.60187,1.97436 l 7.3289601,-4.02489 7.32895,4.02489 c 1.30094,0.71476 2.8542,-0.43354 2.60187,-1.97436 l -1.40187,-8.52434 5.92709,-6.03441 c 1.06542,-1.08385 0.47664,-2.97619 -0.99252,-3.19882 z m -7.82241,8.24898 1.32897,8.10837 -6.97008,-3.8257 -6.9700901,3.8257 1.32897,-8.10837 -5.64111,-5.74148 7.7943801,-1.18345 3.48785,-7.3818999 3.48784,7.3818999 7.79438,1.18345 z" style="fill:#adadad;stroke-width:0.05731682;stroke:none;stroke-opacity:1;fill-opacity:1" /></svg>