<?xml version="1.0" encoding="UTF-8" standalone="no"?><svg xmlns="http://www.w3.org/2000/svg" version="1.1" viewBox="0 0 30.000002 29.999996"><path style="fill:#d3d8de;stroke-width:0.27145329;fill-opacity:1" d="m 13.094173,29.904587 c -3.1682396,-0.33551 -6.7756696,-2.12821 -9.0104896,-4.47774 -4.57678996,-4.81174 -5.40769,-12.43231 -1.97905,-18.1509203 4.2632,-7.11059005 13.4806296,-9.39583 20.6754296,-5.12598 7.04435,4.18056 9.33347,13.4821403 5.08036,20.6434503 -3.00149,5.05384 -8.62409,7.76159 -14.76625,7.11118 z" id="path863"/><path style="fill:#ffffff;fill-opacity:1;stroke-width:0.27145329" d="m 12.754793,21.398947 2.23991,-1.2022 2.2399,1.2022 c 2.25279,1.20911 3.02275,1.43021 3.31793,0.95277 0.0879,-0.14217 -0.0413,-1.43789 -0.2871,-2.87938 l -0.44691,-2.62089 1.93214,-1.94441 c 1.06268,-1.06942 1.93215,-2.09722 1.93215,-2.28399 0,-0.45196 -0.87511,-0.75537 -2.85079,-0.98843 -2.8515,-0.33638 -2.77406,-0.28148 -4.08907,-2.8988503 -1.60444,-3.19346 -1.89206,-3.19346 -3.49651,0 -1.315,2.6173703 -1.23757,2.5624703 -4.0890696,2.8988503 -1.97568,0.23305 -2.85078,0.53647 -2.85078,0.98843 0,0.18677 0.87166,1.21678 1.93703,2.28892 l 1.9370396,1.94933 -0.4668196,2.59169 c -0.25674,1.42543 -0.38814,2.71893 -0.29199,2.87445 0.31088,0.50283 1.0495296,0.29705 3.3329396,-0.92849 z" id="path819"/></svg>