<?xml version="1.0" encoding="UTF-8" standalone="no"?><svg xmlns="http://www.w3.org/2000/svg" version="1.1" viewBox="0 0 30 29.999998"><path id="path24" d="m -72.485575,30.53427 c 0,-0.825 0.176855,-1.5 0.393011,-1.5 0.216156,0 0.652033,0.675 0.968615,1.5 0.316583,0.825 0.139728,1.5 -0.393011,1.5 -0.532738,0 -0.968615,-0.675 -0.968615,-1.5 z m -5,-25 c -2.429029,-2.475 -4.191416,-4.5 -3.916416,-4.5 0.275,0 2.487387,2.025 4.916416,4.5 2.429029,2.475 4.191416,4.5 3.916416,4.5 -0.275,0 -2.487387,-2.025 -4.916416,-4.5 z" style="fill:#fef9cd" /><path id="path22" d="m -71.61313,11.28427 c -1.243871,-1.586056 -1.208501,-1.621426 0.377555,-0.377555 0.9625,0.754844 1.75,1.542344 1.75,1.75 0,0.823034 -0.821186,0.293303 -2.127555,-1.372445 z" style="fill:#fef7ad" /><path id="path14" d="m 6.056231,29.691449 c 0,-0.278098 0.270039,-2.707988 0.600087,-5.399757 L 7.256406,19.397569 3.628203,15.38456 0,11.371551 2.623736,10.762292 C 4.06679,10.427199 6.217983,9.964314 7.404165,9.733659 10.237509,9.182709 10.548622,8.862616 12.905169,4.073874 14.007787,1.833243 15.080617,0 15.289237,0 c 0.208619,0 1.25434,1.717394 2.323824,3.816431 1.069484,2.099037 2.284479,4.189569 2.699989,4.645627 0.41551,0.456057 2.654868,1.163513 4.97635,1.572123 2.321483,0.40861 4.427317,0.880287 4.679631,1.048171 0.252315,0.167883 -1.065264,1.992983 -2.927953,4.055776 l -3.386707,3.750533 0.580533,5.498322 c 0.319293,3.024077 0.5396,5.548683 0.489571,5.610235 -0.05003,0.06155 -2.14396,-0.906179 -4.653181,-2.150515 l -4.562219,-2.262428 -2.974108,1.47348 c -5.660922,2.804624 -6.478736,3.137077 -6.478736,2.633694 z" style="fill:#fee900;stroke-width:0.56486857" /></svg>