<?xml version="1.0" encoding="UTF-8" standalone="no"?><svg id="Réteg_1" data-name="Réteg 1" xmlns="http://www.w3.org/2000/svg" viewBox="0 0 15.91 15.9"><defs><style>.cls-1{fill:#d32323;}.cls-2{fill:#cdcccc;}.cls-3{fill:#fff;}</style></defs><title>ti-star-yelp-h</title><path class="cls-1" d="M1.9,0A1.81,1.81,0,0,0,.1,1.9V14.1a1.79,1.79,0,0,0,1.8,1.8H8V0H1.9Z" transform="translate(-0.09 0)"/><path class="cls-2" d="M16,14.1V1.8A1.79,1.79,0,0,0,14.2,0H8V15.9h6.2A1.79,1.79,0,0,0,16,14.1Z" transform="translate(-0.09 0)"/><path class="cls-3" d="M8.1,2.7L9.7,5.9a0.1,0.1,0,0,0,.1.1l3.5,0.5a0.1,0.1,0,0,1,.1.1V6.7L10.8,9.2V9.3l0.6,3.5c0,0.1,0,.1-0.1.1H11.2L8,11.2H7.9L4.8,13H4.6V12.9L5.2,9.4V9.3L2.6,6.7V6.5H2.7L6.2,6a0.1,0.1,0,0,0,.1-0.1L7.9,2.7c0-.1.1-0.1,0.2,0h0Z" transform="translate(-0.09 0)"/></svg>