<?xml version="1.0" encoding="UTF-8" standalone="no"?><svg xmlns="http://www.w3.org/2000/svg" viewBox="0 0 24 24" version="1.1"><g id="g820" transform="matrix(0.99998229,0,0,0.99994185,1.99,2.0880014)"><path id="path2" style="fill:#d3d8de" d="m 9.7101775,15.912701 -5.4999999,3.8 a 0.8,0.8 0 0 1 -1.2,-0.8 l 1.8,-6 c 0,-0.2 0,-0.4 -0.2,-0.5 L 0.21017758,7.8127017 a 0.7,0.7 0 0 1 0.5,-1.2 l 5.80000002,-0.6 c 0.2,0 0.4,0 0.4,-0.3 L 9.3101775,0.41270167 a 0.8,0.8 0 0 1 1.3999995,0 l 2.4,5.30000003 c 0,0.2 0.2,0.3 0.4,0.3 l 5.8,0.6 a 0.7,0.7 0 0 1 0.5,1.2 l -4.5,4.5999993 v 0.5 l 1.7,6 a 0.8,0.8 0 0 1 -1.2,0.8 l -5.5,-3.8 a 0.5,0.5 0 0 0 -0.5999995,0 z"/><path id="path4" d="m 10.010548,6.0156538e-4 a 0.8,0.8 0 0 0 -0.052729,0.001950005 0.8,0.8 0 0 0 -0.07813,0.00781 0.8,0.8 0 0 0 -0.07813,0.017578 0.8,0.8 0 0 0 -0.07617,0.025391 0.8,0.8 0 0 0 -0.07422,0.03125 0.8,0.8 0 0 0 -0.06836,0.039063 0.8,0.8 0 0 0 -0.06641,0.046875 0.8,0.8 0 0 0 -0.06055,0.052734 0.8,0.8 0 0 0 -0.05469,0.058594 0.8,0.8 0 0 0 -0.04883,0.0625 0.8,0.8 0 0 0 -0.04102,0.068359 L 6.9109176,5.7134868 c 0,0.3000001 -0.20039,0.2988282 -0.40039,0.2988282 L 0.70976758,6.6119298 a 0.7,0.7 0 0 0 -0.05664,0.00195 0.7,0.7 0 0 0 -0.06836,0.00781 0.7,0.7 0 0 0 -0.06836,0.015625 0.7,0.7 0 0 0 -0.06641,0.021484 0.7,0.7 0 0 0 -0.06445,0.029297 0.7,0.7 0 0 0 -0.06055,0.033203 0.7,0.7 0 0 0 -0.05664,0.041016 0.7,0.7 0 0 0 -0.05273,0.046875 0.7,0.7 0 0 0 -0.04883,0.050781 0.7,0.7 0 0 0 -0.04297,0.054687 0.7,0.7 0 0 0 -0.03711,0.060547 0.7,0.7 0 0 0 -0.0293,0.0625 0.7,0.7 0 0 0 -0.02539,0.064453 0.7,0.7 0 0 0 -0.01758,0.068359 0.7,0.7 0 0 0 -0.0098,0.068359 0.7,0.7 0 0 0 -0.0039,0.070312 0.7,0.7 0 0 0 0.002,0.070312 0.7,0.7 0 0 0 0.01172,0.068359 0.7,0.7 0 0 0 0.01563,0.068359 0.7,0.7 0 0 0 0.02344,0.066406 0.7,0.7 0 0 0 0.03125,0.0625 0.7,0.7 0 0 0 0.03711,0.060547 0.7,0.7 0 0 0 0.04102,0.054687 0.7,0.7 0 0 0 0.04687,0.052734 L 4.6101776,12.412701 c 0.2,0.1 0.201172,0.3 0.201172,0.5 l -1.800781,6 a 0.8,0.8 0 0 0 -0.0039,0.03711 0.8,0.8 0 0 0 -0.0039,0.08008 0.8,0.8 0 0 0 0.0039,0.07812 0.8,0.8 0 0 0 0.01367,0.08008 0.8,0.8 0 0 0 0.01953,0.07813 0.8,0.8 0 0 0 0.02734,0.07422 0.8,0.8 0 0 0 0.03516,0.07227 0.8,0.8 0 0 0 0.04297,0.06641 0.8,0.8 0 0 0 0.04883,0.06445 0.8,0.8 0 0 0 0.05469,0.05859 0.8,0.8 0 0 0 0.06055,0.05274 0.8,0.8 0 0 0 0.06445,0.04492 0.8,0.8 0 0 0 0.07031,0.03906 0.8,0.8 0 0 0 0.07227,0.0332 0.8,0.8 0 0 0 0.07617,0.02539 0.8,0.8 0 0 0 0.07813,0.01563 0.8,0.8 0 0 0 0.08008,0.0098 0.8,0.8 0 0 0 0.08008,0.002 0.8,0.8 0 0 0 0.08008,-0.0078 0.8,0.8 0 0 0 0.07813,-0.01367 0.8,0.8 0 0 0 0.07617,-0.02344 0.8,0.8 0 0 0 0.07422,-0.0293 0.8,0.8 0 0 0 0.07031,-0.03711 L 9.7098085,15.9128 a 0.5,0.5 0 0 1 0.03711,-0.02539 0.5,0.5 0 0 1 0.04297,-0.02344 0.5,0.5 0 0 1 0.04687,-0.01953 0.5,0.5 0 0 1 0.04687,-0.01563 0.5,0.5 0 0 1 0.04883,-0.0098 0.5,0.5 0 0 1 0.05078,-0.0059 0.5,0.5 0 0 1 0.02734,0 z" style="opacity:1;fill:#323f4d;fill-opacity:1;fill-rule:nonzero;stroke:none;stroke-width:1.03056765;stroke-opacity:0.97326199"/></g></svg>