<?xml version="1.0" encoding="UTF-8" standalone="no"?><svg version="1.1" xmlns="http://www.w3.org/2000/svg" viewBox="0 0 300 300"><path class="st1" fill="#CCCCCB" d="M148.8,223.4c-31.1,22.9-62.2,45.8-93.5,68.9c0.1-0.4,0.2-0.7,0.3-0.9c12.7-35.9,25.3-71.7,38-107.6c0.2-0.6,0.2-1-0.4-1.4c-30.8-21.4-61.6-42.8-92.4-64.2c-0.7-0.5-0.9-1-0.7-1.8c0.4,0,0.8,0,1.1,0c26.2,0.3,52.4,0.7,78.6,1c11.3,0.2,22.7,0.3,34,0.5c0.8,0,1.1-0.2,1.4-1c11.1-36.2,22.3-72.4,33.4-108.5c0.1-0.2,0.1-0.4,0.3-0.8c11.3,37.1,22.6,74,34,110.9c39-0.8,78-1.5,117.2-2.3c-0.3,0.3-0.5,0.4-0.7,0.6c-15.7,11-31.5,22.1-47.2,33.1c-15.5,10.8-30.9,21.7-46.4,32.5c-0.5,0.4-0.6,0.7-0.4,1.3c12.1,35.8,24.3,71.6,36.4,107.4c0.1,0.2,0.1,0.4,0.2,0.8C210.8,269.1,179.8,246.3,148.8,223.4z"></path><path class="st0" fill="#ffcc00" d="M148.8,223.4c-31.1,22.9-62.2,45.8-93.5,68.9c0.1-0.4,0.2-0.7,0.3-0.9c12.7-35.9,25.3-71.7,38-107.6c0.2-0.6,0.2-1-0.4-1.4c-30.8-21.4-61.6-42.8-92.4-64.2c-0.7-0.5-0.9-1-0.7-1.8c0.4,0,0.8,0,1.1,0c26.2,0.3,52.4,0.7,78.6,1c11.3,0.2,22.7,0.3,34,0.5c0.8,0,1.1-0.2,1.4-1c11.1-36.2,22.3-72.4,33.4-108.5c0.1-0.2,0.1-0.4,0.3-0.8"></path></svg>