<?xml version="1.0" encoding="UTF-8" standalone="no"?><svg xmlns="http://www.w3.org/2000/svg" version="1.1" viewBox="0 0 30.000002 29.999996"><path style="fill:#d3d8de;stroke-width:0.27145329;fill-opacity:1" d="m 13.094173,29.904587 c -3.1682396,-0.33551 -6.7756696,-2.12821 -9.0104896,-4.47774 -4.57678996,-4.81174 -5.40769,-12.43231 -1.97905,-18.1509203 4.2632,-7.11059005 13.4806296,-9.39583 20.6754296,-5.12598 7.04435,4.18056 9.33347,13.4821403 5.08036,20.6434503 -3.00149,5.05384 -8.62409,7.76159 -14.76625,7.11118 z" id="path863"/><path style="opacity:1;fill:#ed6821;fill-opacity:1;fill-rule:nonzero;stroke:none;stroke-opacity:0.97326199" d="m 14.904124,0.00520469 c -0.204856,0.002378 -0.411078,-0.037993 -0.615235,-0.027344 -0.966331,0.050403 -1.92327,0.192227 -2.857422,0.423828 -0.934151,0.231601 -1.8459835,0.552943 -2.7207025,0.95898401 -0.874719,0.406042 -1.71392,0.896978 -2.501953,1.470704 -0.788032,0.573725 -1.525125,1.23019 -2.199218,1.964843 -0.674094,0.734653 -1.283507,1.546723 -1.816407,2.435547 -0.85716,1.429653 -1.44850595,2.9784733 -1.78124995,4.5722653 -0.332743,1.593791 -0.408044,3.233031 -0.232422,4.84375 0.175622,1.610718 0.601596,3.193395 1.26953195,4.673828 0.667935,1.480433 1.578458,2.859565 2.722656,4.0625 1.11741,1.174765 2.577057,2.210335 4.154297,2.99414 1.57724,0.783806 3.2713485,1.314667 4.8554675,1.482422 0.590909,0.06257 1.143237,-0.05014 1.722657,-0.04883 z" id="path1004"/><path style="fill:#ffffff;fill-opacity:1;stroke-width:0.27145329" d="m 12.754793,21.398947 2.23991,-1.2022 2.2399,1.2022 c 2.25279,1.20911 3.02275,1.43021 3.31793,0.95277 0.0879,-0.14217 -0.0413,-1.43789 -0.2871,-2.87938 l -0.44691,-2.62089 1.93214,-1.94441 c 1.06268,-1.06942 1.93215,-2.09722 1.93215,-2.28399 0,-0.45196 -0.87511,-0.75537 -2.85079,-0.98843 -2.8515,-0.33638 -2.77406,-0.28148 -4.08907,-2.8988503 -1.60444,-3.19346 -1.89206,-3.19346 -3.49651,0 -1.315,2.6173703 -1.23757,2.5624703 -4.0890696,2.8988503 -1.97568,0.23305 -2.85078,0.53647 -2.85078,0.98843 0,0.18677 0.87166,1.21678 1.93703,2.28892 l 1.9370396,1.94933 -0.4668196,2.59169 c -0.25674,1.42543 -0.38814,2.71893 -0.29199,2.87445 0.31088,0.50283 1.0495296,0.29705 3.3329396,-0.92849 z" id="path819"/></svg>