<?xml version="1.0" encoding="UTF-8" standalone="no"?><svg xmlns="http://www.w3.org/2000/svg" version="1.1" viewBox="0 0 15 30"><path id="path24" d="m -72.485923,30.64696 c 0,-0.825 0.176855,-1.5 0.393011,-1.5 0.216156,0 0.652033,0.675 0.968615,1.5 0.316583,0.825 0.139728,1.5 -0.393011,1.5 -0.532738,0 -0.968615,-0.675 -0.968615,-1.5 z m -5,-25 c -2.429029,-2.475 -4.191416,-4.5 -3.916416,-4.5 0.275,0 2.487387,2.025 4.916416,4.5 2.429029,2.475 4.191416,4.5 3.916416,4.5 -0.275,0 -2.487387,-2.025 -4.916416,-4.5 z" style="fill:#fef9cd" /><path id="path22" d="m -71.613478,11.39696 c -1.243871,-1.586056 -1.208501,-1.621426 0.377555,-0.377555 0.9625,0.754844 1.75,1.542344 1.75,1.75 0,0.823034 -0.821186,0.293303 -2.127555,-1.372445 z" style="fill:#fef7ad" /><path style="fill:#fee900;stroke-width:0.56016964" d="M 14.978952,0 C 14.774563,0 13.72281,1.838579 12.642556,4.087707 10.333808,8.894608 10.029989,9.216288 7.254114,9.769328 6.091992,10.000857 3.983627,10.466163 2.569843,10.802528 L 0,11.414213 l 3.553387,4.028892 3.5553,4.026931 -0.587447,4.913092 c -0.323354,2.701976 -0.587447,5.141717 -0.587447,5.42087 0,0.505291 0.801009,0.170502 6.34711,-2.644758 L 15,25.779026 V 0.013723 C 14.9945,0.011923 14.98362,3e-6 14.97895,3e-6 Z" id="path14"/></svg>