<?xml version="1.0" encoding="UTF-8" standalone="no"?><svg xmlns="http://www.w3.org/2000/svg" viewBox="0 0 24 24"><path style="fill:#d3d8de" d="m9.71 15.913-5.5 3.8a.8.8 0 0 1-1.2-.8l1.8-6c0-.2 0-.4-.2-.5l-4.4-4.6a.7.7 0 0 1 .5-1.2l5.8-.6c.2 0 .4 0 .4-.3l2.4-5.3a.8.8 0 0 1 1.4 0l2.4 5.3c0 .2.2.3.4.3l5.8.6a.7.7 0 0 1 .5 1.2l-4.5 4.6v.5l1.7 6a.8.8 0 0 1-1.2.8l-5.5-3.8a.5.5 0 0 0-.6 0z" transform="matrix(.99998 0 0 .99994 1.99 2.088)"/><path d="M10.01 0a.8.8 0 0 0-.052.003.8.8 0 0 0-.078.007.8.8 0 0 0-.078.018.8.8 0 0 0-.077.025.8.8 0 0 0-.074.032.8.8 0 0 0-.068.039.8.8 0 0 0-.067.047.8.8 0 0 0-.06.052.8.8 0 0 0-.055.059.8.8 0 0 0-.049.062.8.8 0 0 0-.04.069l-2.401 5.3c0 .3-.2.3-.4.3L.71 6.611a.7.7 0 0 0-.057.002.7.7 0 0 0-.068.008.7.7 0 0 0-.069.015.7.7 0 0 0-.066.022.7.7 0 0 0-.064.03.7.7 0 0 0-.061.032.7.7 0 0 0-.057.041.7.7 0 0 0-.052.047.7.7 0 0 0-.05.051.7.7 0 0 0-.042.055.7.7 0 0 0-.037.06.7.7 0 0 0-.03.063.7.7 0 0 0-.025.064.7.7 0 0 0-.018.069.7.7 0 0 0-.01.068.7.7 0 0 0-.003.07.7.7 0 0 0 .002.07.7.7 0 0 0 .011.069.7.7 0 0 0 .016.068.7.7 0 0 0 .024.067.7.7 0 0 0 .03.062.7.7 0 0 0 .038.06.7.7 0 0 0 .04.055.7.7 0 0 0 .048.053l4.4 4.6c.2.1.201.3.201.5l-1.8 6a.8.8 0 0 0-.004.037.8.8 0 0 0-.004.08.8.8 0 0 0 .004.078.8.8 0 0 0 .013.08.8.8 0 0 0 .02.078.8.8 0 0 0 .027.074.8.8 0 0 0 .035.073.8.8 0 0 0 .043.066.8.8 0 0 0 .05.065.8.8 0 0 0 .054.058.8.8 0 0 0 .06.053.8.8 0 0 0 .065.045.8.8 0 0 0 .07.039.8.8 0 0 0 .072.033.8.8 0 0 0 .077.025.8.8 0 0 0 .078.016.8.8 0 0 0 .08.01.8.8 0 0 0 .08.002.8.8 0 0 0 .08-.008.8.8 0 0 0 .078-.014.8.8 0 0 0 .076-.023.8.8 0 0 0 .074-.03.8.8 0 0 0 .07-.036l5.5-3.801a.5.5 0 0 1 .038-.026.5.5 0 0 1 .043-.023.5.5 0 0 1 .047-.02.5.5 0 0 1 .047-.015.5.5 0 0 1 .048-.01.5.5 0 0 1 .051-.006.5.5 0 0 1 .028 0z" style="opacity:1;fill:#222;fill-opacity:1;fill-rule:nonzero;stroke:none;stroke-width:1.03056765;stroke-opacity:.97326199" transform="matrix(.99998 0 0 .99994 1.99 2.088)"/></svg>