<?xml version="1.0" encoding="UTF-8"?><svg xmlns="http://www.w3.org/2000/svg" xmlns:xlink="http://www.w3.org/1999/xlink" width="100%" height="100%" viewBox="0 0 15 15" version="1.1"><g id="surface1"><path style=" stroke:none;fill-rule:nonzero;fill:rgb(4.705882%,23.137255%,48.627451%);fill-opacity:1;" d="M 2.816406 0 C 1.261719 0 0 1.289062 0 2.878906 L 0 12.121094 C 0 12.136719 0 12.15625 0 12.171875 L 0 15 L 7.5 15 L 7.5 0 Z M 2.816406 0 "/><path style=" stroke:none;fill-rule:nonzero;fill:rgb(80.000001%,80.000001%,80.000001%);fill-opacity:1;" d="M 15 12.121094 L 15 2.878906 C 15 1.289062 13.738281 0 12.183594 0 L 7.5 0 L 7.5 15 L 12.183594 15 C 13.738281 15 15 13.710938 15 12.121094 Z M 15 12.121094 "/><path style=" stroke:none;fill-rule:nonzero;fill:rgb(100%,100%,100%);fill-opacity:1;" d="M 7.96875 3.132812 L 9.039062 5.34375 C 9.113281 5.503906 9.261719 5.613281 9.433594 5.640625 L 11.820312 5.992188 C 12.25 6.058594 12.421875 6.597656 12.113281 6.910156 L 10.382812 8.628906 C 10.261719 8.753906 10.203125 8.929688 10.234375 9.105469 L 10.640625 11.535156 C 10.714844 11.976562 10.265625 12.308594 9.878906 12.101562 L 7.746094 10.953125 C 7.589844 10.871094 7.410156 10.871094 7.253906 10.953125 L 5.121094 12.101562 C 4.734375 12.308594 4.285156 11.976562 4.359375 11.535156 L 4.765625 9.105469 C 4.796875 8.929688 4.738281 8.753906 4.617188 8.628906 L 2.886719 6.910156 C 2.578125 6.597656 2.75 6.058594 3.179688 5.992188 L 5.566406 5.640625 C 5.738281 5.613281 5.886719 5.503906 5.960938 5.34375 L 7.03125 3.132812 C 7.222656 2.734375 7.777344 2.734375 7.96875 3.132812 Z M 7.96875 3.132812 "/></g></svg>