<?xml version="1.0" encoding="utf-8" standalone="no"?><svg id="svg" version="1.1" xmlns="http://www.w3.org/2000/svg" xmlns:xlink="http://www.w3.org/1999/xlink" width="400" height="400" viewBox="0, 0, 400,400"><g id="svgg"><path id="path0" d="M163.805 61.993 C 163.666 62.217,162.978 62.401,162.276 62.402 C 161.574 62.404,160.484 62.674,159.854 63.002 C 159.224 63.331,158.020 63.600,157.178 63.600 C 156.336 63.600,155.550 63.757,155.432 63.948 C 155.314 64.140,154.276 64.387,153.125 64.498 C 151.975 64.608,150.966 64.901,150.884 65.149 C 150.799 65.402,149.870 65.600,148.767 65.600 C 147.685 65.600,146.800 65.760,146.800 65.957 C 146.800 66.153,146.350 66.426,145.800 66.564 C 145.250 66.702,144.800 66.992,144.800 67.208 C 144.800 67.423,144.001 67.600,143.024 67.600 C 142.047 67.600,141.149 67.760,141.028 67.955 C 140.907 68.150,140.177 68.428,139.404 68.573 C 138.632 68.718,138.000 69.008,138.000 69.218 C 138.000 69.428,137.700 69.600,137.334 69.600 C 136.436 69.600,133.600 70.873,133.600 71.277 C 133.600 71.455,132.970 71.600,132.200 71.600 C 131.430 71.600,130.800 71.760,130.800 71.957 C 130.800 72.153,130.350 72.426,129.800 72.564 C 129.250 72.702,128.800 72.992,128.800 73.208 C 128.800 73.423,128.350 73.600,127.800 73.600 C 127.250 73.600,126.800 73.780,126.800 74.000 C 126.800 74.220,126.513 74.400,126.162 74.400 C 125.545 74.400,123.208 75.544,122.800 76.046 C 122.690 76.181,122.195 76.419,121.700 76.573 C 121.205 76.728,120.800 77.022,120.800 77.227 C 120.800 77.432,120.350 77.600,119.800 77.600 C 119.250 77.600,118.800 77.760,118.800 77.957 C 118.800 78.153,118.350 78.426,117.800 78.564 C 117.250 78.702,116.800 78.992,116.800 79.208 C 116.800 79.423,116.530 79.600,116.200 79.600 C 115.870 79.600,115.600 79.760,115.600 79.957 C 115.600 80.153,115.150 80.426,114.600 80.564 C 114.050 80.702,113.600 80.992,113.600 81.208 C 113.600 81.423,113.271 81.600,112.870 81.600 C 112.468 81.600,111.717 82.050,111.200 82.600 C 110.683 83.150,110.065 83.600,109.826 83.600 C 109.587 83.600,108.907 84.050,108.313 84.600 C 107.720 85.150,106.982 85.600,106.673 85.600 C 106.365 85.600,105.774 86.050,105.361 86.600 C 104.948 87.150,104.383 87.600,104.105 87.600 C 103.827 87.600,103.597 87.915,103.594 88.300 C 103.589 88.898,103.531 88.913,103.200 88.400 C 102.942 88.000,102.810 87.967,102.806 88.300 C 102.803 88.575,102.605 88.800,102.367 88.800 C 102.128 88.800,101.321 89.430,100.574 90.200 C 99.826 90.970,99.059 91.600,98.870 91.600 C 98.680 91.600,97.586 92.500,96.439 93.600 C 95.292 94.700,94.297 95.600,94.228 95.600 C 94.049 95.600,85.600 104.072,85.600 104.251 C 85.600 104.333,84.880 105.120,84.000 106.000 C 83.120 106.880,82.400 107.749,82.400 107.931 C 82.400 108.113,81.589 109.145,80.597 110.225 C 79.605 111.306,78.693 112.507,78.570 112.895 C 78.447 113.283,78.178 113.600,77.973 113.600 C 77.768 113.600,77.600 113.827,77.600 114.105 C 77.600 114.383,77.150 114.948,76.600 115.361 C 76.050 115.774,75.600 116.381,75.600 116.710 C 75.600 117.039,75.150 117.725,74.600 118.235 C 74.050 118.745,73.600 119.409,73.600 119.711 C 73.600 120.013,73.150 120.683,72.600 121.200 C 72.050 121.717,71.600 122.468,71.600 122.870 C 71.600 123.271,71.423 123.600,71.208 123.600 C 70.992 123.600,70.702 124.050,70.564 124.600 C 70.426 125.150,70.153 125.600,69.957 125.600 C 69.760 125.600,69.600 125.870,69.600 126.200 C 69.600 126.530,69.440 126.800,69.243 126.800 C 69.047 126.800,68.774 127.250,68.636 127.800 C 68.498 128.350,68.208 128.800,67.992 128.800 C 67.777 128.800,67.600 129.250,67.600 129.800 C 67.600 130.350,67.423 130.800,67.208 130.800 C 66.992 130.800,66.702 131.250,66.564 131.800 C 66.426 132.350,66.153 132.800,65.957 132.800 C 65.760 132.800,65.600 133.250,65.600 133.800 C 65.600 134.350,65.423 134.800,65.208 134.800 C 64.992 134.800,64.702 135.250,64.564 135.800 C 64.426 136.350,64.153 136.800,63.957 136.800 C 63.760 136.800,63.600 137.430,63.600 138.200 C 63.600 138.970,63.423 139.600,63.208 139.600 C 62.992 139.600,62.702 140.050,62.564 140.600 C 62.426 141.150,62.153 141.600,61.957 141.600 C 61.760 141.600,61.600 142.050,61.600 142.600 C 61.600 143.150,61.422 143.600,61.205 143.600 C 60.987 143.600,60.694 144.324,60.552 145.209 C 60.411 146.094,60.139 146.914,59.947 147.032 C 59.756 147.151,59.600 147.741,59.600 148.344 C 59.600 148.947,59.446 149.611,59.258 149.820 C 58.632 150.514,57.600 154.327,57.600 155.942 C 57.600 156.817,57.429 157.593,57.219 157.667 C 56.817 157.807,56.075 161.244,55.723 164.600 C 55.607 165.700,55.337 166.710,55.123 166.844 C 53.668 167.756,53.662 205.049,55.117 205.949 C 55.340 206.087,55.617 207.370,55.732 208.800 C 56.107 213.467,56.807 217.797,57.208 217.933 C 57.423 218.007,57.600 219.222,57.600 220.633 C 57.600 222.078,57.775 223.200,58.000 223.200 C 58.220 223.200,58.400 223.727,58.400 224.371 C 58.400 225.016,58.648 225.791,58.951 226.093 C 59.253 226.396,59.597 227.354,59.714 228.222 C 60.068 230.856,60.843 233.600,61.232 233.600 C 61.435 233.600,61.600 234.230,61.600 235.000 C 61.600 235.770,61.760 236.400,61.955 236.400 C 62.151 236.400,62.429 237.030,62.574 237.800 C 62.718 238.570,63.008 239.200,63.218 239.200 C 63.428 239.200,63.600 239.680,63.600 240.266 C 63.600 241.474,64.787 244.400,65.277 244.400 C 65.455 244.400,65.600 244.850,65.600 245.400 C 65.600 245.950,65.780 246.400,66.000 246.400 C 66.220 246.400,66.400 246.688,66.400 247.040 C 66.400 247.664,67.311 250.000,68.022 251.200 C 68.497 252.000,69.458 254.056,70.220 255.900 C 70.561 256.725,71.109 257.850,71.439 258.400 C 71.769 258.950,72.227 259.895,72.458 260.500 C 72.689 261.105,73.041 261.600,73.239 261.600 C 73.438 261.600,73.600 261.874,73.600 262.208 C 73.600 262.542,74.050 263.529,74.600 264.400 C 75.150 265.271,75.600 266.258,75.600 266.592 C 75.600 266.926,75.777 267.200,75.992 267.200 C 76.208 267.200,76.498 267.650,76.636 268.200 C 76.774 268.750,77.047 269.200,77.243 269.200 C 77.440 269.200,77.600 269.470,77.600 269.800 C 77.600 270.130,77.777 270.400,77.992 270.400 C 78.208 270.400,78.498 270.850,78.636 271.400 C 78.774 271.950,79.047 272.400,79.243 272.400 C 79.440 272.400,79.600 272.559,79.600 272.754 C 79.600 273.207,82.871 278.156,83.287 278.333 C 83.459 278.407,83.600 278.644,83.600 278.860 C 83.600 279.241,85.285 281.656,86.300 282.729 C 86.575 283.019,86.800 283.451,86.800 283.688 C 86.800 283.925,87.430 284.731,88.200 285.479 C 88.970 286.227,89.600 287.060,89.600 287.330 C 89.600 287.601,89.915 288.115,90.300 288.472 C 91.688 289.760,92.800 291.121,92.800 291.531 C 92.800 291.761,93.865 293.051,95.166 294.397 C 96.467 295.744,97.638 297.122,97.768 297.461 C 97.898 297.799,98.363 298.170,98.802 298.285 C 99.241 298.399,99.600 298.714,99.600 298.984 C 99.600 299.254,100.500 300.414,101.600 301.561 C 102.700 302.708,103.600 303.816,103.600 304.024 C 103.600 304.231,103.840 304.400,104.132 304.400 C 104.425 304.400,104.906 304.850,105.200 305.400 C 105.494 305.950,105.904 306.400,106.110 306.400 C 106.316 306.400,106.839 306.850,107.271 307.400 C 107.704 307.950,108.245 308.400,108.473 308.400 C 108.939 308.400,109.504 308.902,113.993 313.300 C 115.733 315.005,117.270 316.400,117.407 316.400 C 117.545 316.400,117.908 316.625,118.215 316.900 C 119.439 317.998,119.978 318.400,120.226 318.400 C 120.368 318.400,120.839 318.850,121.271 319.400 C 121.704 319.950,122.324 320.400,122.648 320.400 C 122.973 320.400,123.655 320.850,124.165 321.400 C 124.675 321.950,125.253 322.400,125.450 322.400 C 125.647 322.400,126.293 322.850,126.887 323.400 C 127.480 323.950,128.153 324.400,128.383 324.400 C 128.612 324.400,128.800 324.568,128.800 324.773 C 128.800 324.978,129.190 325.270,129.666 325.421 C 130.142 325.572,130.961 326.124,131.484 326.648 C 132.008 327.172,132.698 327.600,133.018 327.600 C 133.338 327.600,133.600 327.780,133.600 328.000 C 133.600 328.220,133.969 328.400,134.419 328.400 C 134.870 328.400,135.655 328.850,136.165 329.400 C 136.675 329.950,137.341 330.403,137.646 330.407 C 137.951 330.411,138.624 330.861,139.142 331.407 C 139.660 331.953,140.425 332.400,140.842 332.400 C 141.259 332.400,141.600 332.572,141.600 332.781 C 141.600 332.991,142.275 333.479,143.100 333.866 C 143.925 334.253,144.838 334.801,145.129 335.085 C 145.419 335.368,145.914 335.600,146.229 335.600 C 146.543 335.600,146.800 335.780,146.800 336.000 C 146.800 336.220,147.250 336.400,147.800 336.400 C 148.422 336.400,148.800 336.627,148.800 337.000 C 148.800 337.330,149.149 337.600,149.576 337.600 C 150.003 337.600,150.464 337.780,150.600 338.000 C 150.736 338.220,151.177 338.400,151.581 338.400 C 151.984 338.400,152.418 338.670,152.545 339.000 C 152.671 339.330,153.051 339.600,153.387 339.600 C 153.724 339.600,154.000 339.780,154.000 340.000 C 154.000 340.220,154.360 340.400,154.800 340.400 C 155.240 340.400,155.600 340.545,155.600 340.723 C 155.600 340.901,156.365 341.366,157.300 341.757 C 160.105 342.929,161.792 343.782,161.933 344.100 C 162.007 344.265,162.662 344.400,163.391 344.400 C 164.198 344.400,164.804 344.634,164.945 345.000 C 165.071 345.330,165.541 345.600,165.987 345.600 C 166.434 345.600,166.800 345.780,166.800 346.000 C 166.800 346.220,167.231 346.400,167.757 346.400 C 168.284 346.400,168.818 346.670,168.945 347.000 C 169.071 347.330,169.530 347.600,169.964 347.600 C 170.398 347.600,170.864 347.780,171.000 348.000 C 171.136 348.220,171.777 348.400,172.424 348.400 C 173.071 348.400,173.600 348.545,173.600 348.723 C 173.600 349.205,176.517 350.400,177.692 350.400 C 178.254 350.400,178.818 350.670,178.945 351.000 C 179.079 351.351,179.679 351.600,180.387 351.600 C 181.054 351.600,181.600 351.780,181.600 352.000 C 181.600 352.220,182.005 352.406,182.500 352.413 C 182.995 352.420,183.749 352.690,184.176 353.013 C 184.604 353.336,185.369 353.600,185.876 353.600 C 186.384 353.600,186.800 353.780,186.800 354.000 C 186.800 354.220,187.385 354.406,188.100 354.413 C 188.815 354.420,189.749 354.690,190.176 355.013 C 190.604 355.336,191.358 355.600,191.853 355.600 C 192.348 355.600,192.864 355.780,193.000 356.000 C 193.136 356.220,193.699 356.400,194.252 356.400 C 194.805 356.400,195.527 356.670,195.857 357.000 C 196.187 357.330,197.154 357.600,198.005 357.600 C 198.856 357.600,199.664 357.780,199.800 358.000 C 199.936 358.220,200.859 358.400,201.852 358.400 C 202.923 358.400,203.901 358.644,204.257 359.000 C 204.587 359.330,205.464 359.600,206.205 359.600 C 206.946 359.600,207.664 359.780,207.800 360.000 C 207.936 360.220,209.039 360.400,210.252 360.400 C 211.679 360.400,212.669 360.612,213.057 361.000 C 213.474 361.417,214.496 361.600,216.405 361.600 C 217.916 361.600,219.264 361.780,219.400 362.000 C 219.536 362.220,220.875 362.400,222.375 362.400 C 224.248 362.400,225.250 362.579,225.575 362.970 C 226.200 363.723,230.065 364.002,243.145 364.236 L 253.691 364.426 255.045 363.393 C 257.059 361.857,256.925 356.800,254.871 356.800 C 254.659 356.800,254.382 356.530,254.255 356.200 C 254.129 355.870,253.674 355.600,253.246 355.600 C 252.817 355.600,252.407 355.465,252.333 355.300 C 252.131 354.844,249.620 353.600,248.902 353.600 C 248.028 353.600,245.200 352.319,245.200 351.923 C 245.200 351.745,244.926 351.600,244.592 351.600 C 244.258 351.600,243.271 351.150,242.400 350.600 C 241.529 350.050,240.542 349.600,240.208 349.600 C 239.874 349.600,239.600 349.420,239.600 349.200 C 239.600 348.980,239.330 348.800,239.000 348.800 C 238.670 348.800,238.400 348.623,238.400 348.408 C 238.400 348.192,237.950 347.902,237.400 347.764 C 236.850 347.626,236.400 347.353,236.400 347.157 C 236.400 346.960,236.143 346.800,235.829 346.800 C 235.514 346.800,235.019 346.575,234.729 346.300 C 233.807 345.428,231.265 343.600,230.974 343.600 C 230.820 343.600,230.100 342.970,229.374 342.200 C 228.648 341.430,227.905 340.800,227.723 340.800 C 227.289 340.800,225.200 338.858,225.200 338.455 C 225.200 338.283,223.940 336.818,222.400 335.200 C 220.860 333.582,219.600 332.014,219.600 331.716 C 219.600 331.419,219.330 331.071,219.000 330.945 C 218.670 330.818,218.400 330.400,218.400 330.016 C 218.400 329.631,217.950 328.831,217.400 328.238 C 216.850 327.644,216.400 326.808,216.400 326.379 C 216.400 325.951,216.240 325.600,216.043 325.600 C 215.847 325.600,215.574 325.150,215.436 324.600 C 215.298 324.050,215.008 323.600,214.792 323.600 C 214.577 323.600,214.400 323.240,214.400 322.800 C 214.400 321.860,215.739 320.400,216.600 320.400 C 216.930 320.400,217.200 320.220,217.200 320.000 C 217.200 319.780,217.616 319.600,218.124 319.600 C 218.631 319.600,219.396 319.336,219.824 319.013 C 220.251 318.690,221.185 318.420,221.900 318.413 C 222.615 318.406,223.200 318.220,223.200 318.000 C 223.200 317.780,223.637 317.600,224.171 317.600 C 224.706 317.600,225.413 317.330,225.743 317.000 C 226.073 316.670,226.705 316.400,227.148 316.400 C 227.591 316.400,228.064 316.220,228.200 316.000 C 228.336 315.780,228.802 315.600,229.236 315.600 C 229.670 315.600,230.129 315.330,230.255 315.000 C 230.389 314.653,231.016 314.388,231.743 314.371 C 232.434 314.355,233.540 313.997,234.200 313.575 C 234.860 313.154,235.670 312.704,236.000 312.575 C 236.330 312.447,236.913 312.175,237.295 311.971 C 237.677 311.767,238.267 311.600,238.607 311.600 C 238.947 311.600,239.329 311.330,239.455 311.000 C 239.582 310.670,240.016 310.400,240.419 310.400 C 240.823 310.400,241.264 310.220,241.400 310.000 C 241.536 309.780,242.002 309.600,242.436 309.600 C 242.870 309.600,243.329 309.330,243.455 309.000 C 243.582 308.670,244.016 308.400,244.419 308.400 C 244.823 308.400,245.264 308.220,245.400 308.000 C 245.536 307.780,246.002 307.600,246.436 307.600 C 246.870 307.600,247.329 307.330,247.455 307.000 C 247.582 306.670,248.026 306.400,248.443 306.400 C 248.859 306.400,249.200 306.240,249.200 306.043 C 249.200 305.847,249.650 305.574,250.200 305.436 C 250.750 305.298,251.200 305.008,251.200 304.792 C 251.200 304.577,251.534 304.400,251.942 304.400 C 252.349 304.400,253.169 303.950,253.762 303.400 C 254.356 302.850,255.192 302.400,255.621 302.400 C 256.049 302.400,256.400 302.220,256.400 302.000 C 256.400 301.780,256.575 301.600,256.788 301.600 C 257.247 301.600,260.940 299.135,261.133 298.700 C 261.207 298.535,261.522 298.400,261.833 298.400 C 262.145 298.400,262.400 298.220,262.400 298.000 C 262.400 297.780,262.642 297.600,262.938 297.600 C 263.234 297.600,263.999 297.149,264.638 296.598 C 265.277 296.046,266.115 295.494,266.500 295.371 C 266.885 295.247,267.200 294.978,267.200 294.773 C 267.200 294.568,267.404 294.400,267.654 294.400 C 267.904 294.400,268.525 293.950,269.035 293.400 C 269.545 292.850,270.118 292.400,270.309 292.400 C 270.500 292.400,271.813 291.321,273.228 290.002 C 274.643 288.683,275.935 287.603,276.100 287.602 C 276.265 287.601,276.400 287.330,276.400 287.000 C 276.400 286.670,276.673 286.400,277.006 286.400 C 277.671 286.400,284.400 279.856,284.400 279.210 C 284.400 278.988,285.220 278.041,286.222 277.104 C 287.224 276.167,288.429 274.782,288.899 274.028 C 289.370 273.273,290.350 272.042,291.077 271.293 C 291.805 270.544,292.400 269.658,292.400 269.323 C 292.400 268.989,292.850 268.361,293.400 267.929 C 293.950 267.496,294.400 266.928,294.400 266.667 C 294.400 266.406,294.805 265.734,295.300 265.175 C 296.435 263.892,297.157 262.796,297.458 261.900 C 297.588 261.515,297.852 261.200,298.047 261.200 C 298.241 261.200,298.400 260.876,298.400 260.480 C 298.400 260.084,298.587 259.573,298.816 259.344 C 299.325 258.835,300.500 256.804,301.675 254.400 C 302.159 253.410,302.670 252.510,302.809 252.400 C 303.287 252.023,304.400 249.478,304.400 248.762 C 304.400 248.369,304.563 247.947,304.762 247.824 C 305.583 247.316,308.400 240.572,308.400 239.114 C 308.400 238.769,308.670 238.382,309.000 238.255 C 309.330 238.129,309.600 237.670,309.600 237.236 C 309.600 236.802,309.780 236.336,310.000 236.200 C 310.220 236.064,310.400 235.348,310.400 234.610 C 310.400 233.871,310.598 233.201,310.839 233.120 C 311.081 233.040,311.374 232.125,311.491 231.087 C 311.608 230.049,311.861 229.200,312.052 229.200 C 312.243 229.200,312.400 228.647,312.400 227.971 C 312.400 227.296,312.670 226.473,313.000 226.143 C 313.330 225.813,313.600 224.846,313.600 223.995 C 313.600 223.144,313.780 222.336,314.000 222.200 C 314.220 222.064,314.400 220.873,314.400 219.553 C 314.400 218.233,314.561 217.252,314.758 217.374 C 315.271 217.691,315.600 216.605,315.600 214.591 C 315.600 213.632,315.780 212.736,316.000 212.600 C 316.220 212.464,316.400 210.938,316.400 209.210 C 316.400 207.051,316.557 206.015,316.900 205.900 C 317.732 205.623,317.844 177.171,317.019 175.518 C 316.658 174.793,316.400 173.231,316.400 171.762 C 316.400 170.379,316.220 169.136,316.000 169.000 C 315.780 168.864,315.600 167.786,315.600 166.605 C 315.600 165.229,315.384 164.241,315.000 163.857 C 314.600 163.457,314.400 162.457,314.400 160.852 C 314.400 159.529,314.220 158.336,314.000 158.200 C 313.780 158.064,313.600 157.586,313.600 157.138 C 313.600 156.690,313.353 155.846,313.051 155.262 C 312.200 153.616,311.600 151.470,311.600 150.072 C 311.600 149.208,311.408 148.800,311.000 148.800 C 310.583 148.800,310.400 148.380,310.400 147.424 C 310.400 146.667,310.220 145.936,310.000 145.800 C 309.780 145.664,309.600 145.126,309.600 144.605 C 309.600 144.084,309.330 143.387,309.000 143.057 C 308.670 142.727,308.400 141.915,308.400 141.252 C 308.400 140.589,308.220 139.936,308.000 139.800 C 307.780 139.664,307.600 139.198,307.600 138.764 C 307.600 138.330,307.330 137.871,307.000 137.745 C 306.670 137.618,306.400 137.184,306.400 136.781 C 306.400 136.377,306.220 135.936,306.000 135.800 C 305.780 135.664,305.600 135.198,305.600 134.764 C 305.600 134.330,305.330 133.871,305.000 133.745 C 304.670 133.618,304.400 133.084,304.400 132.557 C 304.400 132.031,304.240 131.600,304.043 131.600 C 303.847 131.600,303.574 131.150,303.436 130.600 C 303.298 130.050,303.008 129.600,302.792 129.600 C 302.577 129.600,302.400 129.326,302.400 128.992 C 302.400 128.312,300.469 125.074,299.940 124.867 C 299.753 124.793,299.600 124.383,299.600 123.954 C 299.600 123.526,299.330 123.071,299.000 122.945 C 298.670 122.818,298.400 122.406,298.400 122.030 C 298.400 121.653,297.770 120.638,297.000 119.773 C 296.230 118.908,295.600 117.969,295.600 117.687 C 295.600 117.406,295.330 117.071,295.000 116.945 C 294.670 116.818,294.400 116.541,294.400 116.329 C 294.400 116.116,294.175 115.692,293.900 115.385 C 292.822 114.183,292.400 113.624,292.400 113.397 C 292.400 113.267,291.775 112.517,291.011 111.730 C 290.247 110.944,289.515 109.963,289.384 109.550 C 289.253 109.138,288.978 108.800,288.773 108.800 C 288.568 108.800,288.400 108.607,288.400 108.371 C 288.400 107.818,287.382 106.800,286.829 106.800 C 286.593 106.800,286.400 106.615,286.400 106.389 C 286.400 105.855,273.341 92.800,272.807 92.800 C 272.583 92.800,272.400 92.530,272.400 92.200 C 272.400 91.870,272.130 91.600,271.800 91.600 C 271.470 91.600,271.200 91.432,271.200 91.227 C 271.200 91.022,270.849 90.742,270.419 90.606 C 269.990 90.470,269.018 89.738,268.259 88.979 C 267.501 88.221,266.658 87.600,266.386 87.600 C 266.114 87.600,265.475 87.150,264.965 86.600 C 264.455 86.050,263.850 85.600,263.619 85.600 C 263.389 85.600,263.200 85.461,263.200 85.291 C 263.200 85.121,262.570 84.643,261.800 84.228 C 261.030 83.813,260.400 83.342,260.400 83.180 C 260.400 83.019,259.950 82.774,259.400 82.636 C 258.850 82.498,258.400 82.208,258.400 81.992 C 258.400 81.777,258.130 81.600,257.800 81.600 C 257.470 81.600,257.200 81.420,257.200 81.200 C 257.200 80.980,256.952 80.800,256.649 80.800 C 256.346 80.800,255.874 80.530,255.600 80.200 C 255.326 79.870,254.764 79.600,254.351 79.600 C 253.938 79.600,253.599 79.465,253.597 79.300 C 253.594 78.898,251.281 77.600,250.568 77.600 C 250.255 77.600,250.000 77.420,250.000 77.200 C 250.000 76.980,249.752 76.800,249.449 76.800 C 249.146 76.800,248.674 76.530,248.400 76.200 C 248.126 75.870,247.564 75.600,247.151 75.600 C 246.738 75.600,246.400 75.455,246.400 75.277 C 246.400 75.099,245.635 74.632,244.700 74.239 C 241.334 72.824,240.430 72.372,240.193 71.989 C 240.061 71.775,239.468 71.594,238.876 71.587 C 238.284 71.580,237.451 71.310,237.024 70.987 C 236.596 70.664,235.831 70.400,235.324 70.400 C 234.816 70.400,234.400 70.220,234.400 70.000 C 234.400 69.780,233.950 69.600,233.400 69.600 C 232.850 69.600,232.400 69.428,232.400 69.218 C 232.400 69.008,231.768 68.718,230.996 68.573 C 230.223 68.428,229.493 68.150,229.372 67.955 C 229.251 67.760,228.569 67.600,227.856 67.600 C 227.143 67.600,226.389 67.446,226.180 67.258 C 225.566 66.705,221.752 65.600,220.458 65.600 C 219.803 65.600,219.207 65.432,219.133 65.227 C 219.012 64.889,215.959 64.276,211.800 63.755 C 210.920 63.645,209.840 63.381,209.400 63.169 C 206.838 61.935,164.515 60.843,163.805 61.993 M179.878 76.565 L 181.000 77.531 181.113 129.065 C 181.235 184.919,181.313 182.114,179.614 182.993 C 178.151 183.749,72.667 183.930,70.515 183.180 C 68.217 182.379,68.102 181.087,69.657 173.600 C 70.092 171.510,70.621 168.360,70.833 166.600 C 71.249 163.151,73.804 154.880,76.703 147.600 C 79.527 140.508,86.629 127.538,89.408 124.400 C 89.895 123.850,90.452 123.103,90.646 122.740 C 94.025 116.435,108.701 102.464,120.000 94.796 C 125.038 91.377,136.181 85.593,139.800 84.518 C 140.900 84.191,142.343 83.592,143.006 83.187 C 143.669 82.782,145.829 81.988,147.806 81.423 C 149.783 80.857,152.390 80.041,153.600 79.608 C 154.810 79.176,157.704 78.548,160.032 78.214 C 162.360 77.879,164.819 77.412,165.497 77.176 C 170.120 75.564,178.310 75.217,179.878 76.565 M199.800 76.227 C 202.000 76.579,204.700 77.105,205.800 77.395 C 206.900 77.686,209.420 78.141,211.400 78.408 C 213.380 78.675,216.800 79.484,219.000 80.206 C 221.200 80.928,223.596 81.644,224.324 81.797 C 225.052 81.949,226.975 82.687,228.598 83.437 C 230.220 84.187,231.796 84.800,232.099 84.800 C 232.953 84.800,242.083 89.401,247.219 92.420 C 256.305 97.761,269.051 108.268,274.166 114.634 C 275.065 115.753,276.700 117.750,277.800 119.071 C 281.090 123.025,285.913 130.149,288.479 134.844 C 289.273 136.298,290.112 137.828,290.341 138.244 C 291.712 140.723,293.981 145.714,294.594 147.600 C 294.988 148.810,295.631 150.441,296.024 151.224 C 296.417 152.007,297.032 153.807,297.390 155.224 C 297.749 156.641,298.480 158.970,299.015 160.400 C 299.830 162.580,302.023 173.845,302.702 179.341 C 302.966 181.486,302.235 182.632,300.253 183.175 C 297.110 184.036,193.226 183.571,191.882 182.691 L 190.800 181.982 190.800 130.080 C 190.800 83.056,190.860 78.092,191.443 77.260 C 192.698 75.468,194.027 75.303,199.800 76.227 M178.474 192.762 C 178.983 192.960,179.805 193.507,180.300 193.977 L 181.200 194.831 181.194 250.316 C 181.188 311.857,181.402 307.412,178.394 308.368 C 175.876 309.169,164.450 308.071,159.800 306.582 C 158.040 306.019,154.921 305.217,152.870 304.801 C 150.818 304.384,148.520 303.678,147.762 303.231 C 147.005 302.784,145.263 302.132,143.892 301.782 C 142.522 301.433,140.726 300.707,139.903 300.170 C 139.079 299.632,137.549 298.906,136.503 298.555 C 135.456 298.205,134.060 297.515,133.400 297.024 C 132.740 296.532,131.300 295.795,130.200 295.386 C 129.100 294.976,127.350 294.092,126.310 293.421 C 125.271 292.749,122.971 291.300,121.199 290.200 C 119.428 289.100,117.246 287.615,116.351 286.900 C 115.456 286.185,114.595 285.600,114.438 285.600 C 114.280 285.600,113.802 285.278,113.375 284.885 C 112.949 284.492,110.890 282.752,108.800 281.019 C 100.141 273.837,84.000 254.554,84.000 251.390 C 84.000 251.250,83.392 250.205,82.649 249.068 C 81.003 246.548,77.351 239.051,76.966 237.400 C 76.812 236.740,76.252 235.333,75.722 234.273 C 75.193 233.213,74.411 230.946,73.985 229.234 C 73.559 227.523,72.765 224.940,72.221 223.495 C 71.678 222.050,70.956 219.098,70.617 216.934 C 70.278 214.770,69.745 211.830,69.432 210.400 C 67.036 199.457,67.360 193.141,70.342 192.682 C 72.589 192.337,177.584 192.414,178.474 192.762 M302.618 193.782 C 304.112 195.275,303.899 199.223,301.649 211.800 C 301.412 213.120,300.920 215.909,300.554 217.997 C 300.188 220.085,299.535 222.605,299.102 223.597 C 298.670 224.589,297.977 226.798,297.562 228.508 C 297.148 230.217,296.471 232.287,296.059 233.108 C 295.647 233.928,294.988 235.590,294.594 236.800 C 293.745 239.409,290.675 245.758,288.557 249.286 C 284.171 256.590,283.079 258.244,279.286 263.320 C 275.285 268.676,267.543 276.922,263.422 280.218 C 262.334 281.088,260.804 282.362,260.022 283.050 C 259.240 283.737,257.947 284.740,257.150 285.278 C 256.352 285.816,255.182 286.658,254.550 287.149 C 253.513 287.953,250.070 290.186,244.992 293.348 C 243.978 293.980,242.238 294.843,241.125 295.265 C 240.012 295.688,238.539 296.454,237.851 296.967 C 237.163 297.481,235.880 298.124,235.000 298.396 C 234.120 298.669,232.590 299.390,231.600 300.000 C 230.610 300.609,228.811 301.337,227.602 301.617 C 226.393 301.898,224.335 302.632,223.029 303.250 C 221.723 303.867,219.832 304.482,218.827 304.615 C 217.822 304.749,214.840 305.467,212.200 306.210 C 203.982 308.525,193.726 309.174,191.820 307.500 L 190.795 306.600 190.781 250.600 L 190.767 194.600 191.806 193.700 L 192.845 192.800 247.240 192.800 L 301.636 192.800 302.618 193.782 " stroke="none" fill="#0f1415" fill-rule="evenodd"></path><path id="path1" d="M70.342 192.682 C 67.360 193.141,67.036 199.457,69.432 210.400 C 69.745 211.830,70.278 214.770,70.617 216.934 C 70.956 219.098,71.678 222.050,72.221 223.495 C 72.765 224.940,73.559 227.523,73.985 229.234 C 74.411 230.946,75.193 233.213,75.722 234.273 C 76.252 235.333,76.812 236.740,76.966 237.400 C 77.351 239.051,81.003 246.548,82.649 249.068 C 83.392 250.205,84.000 251.250,84.000 251.390 C 84.000 254.554,100.141 273.837,108.800 281.019 C 110.890 282.752,112.949 284.492,113.375 284.885 C 113.802 285.278,114.280 285.600,114.438 285.600 C 114.595 285.600,115.456 286.185,116.351 286.900 C 117.246 287.615,119.428 289.100,121.199 290.200 C 122.971 291.300,125.271 292.749,126.310 293.421 C 127.350 294.092,129.100 294.976,130.200 295.386 C 131.300 295.795,132.740 296.532,133.400 297.024 C 134.060 297.515,135.456 298.205,136.503 298.555 C 137.549 298.906,139.079 299.632,139.903 300.170 C 140.726 300.707,142.522 301.433,143.892 301.782 C 145.263 302.132,147.005 302.784,147.762 303.231 C 148.520 303.678,150.818 304.384,152.870 304.801 C 154.921 305.217,158.040 306.019,159.800 306.582 C 164.450 308.071,175.876 309.169,178.394 308.368 C 181.402 307.412,181.188 311.857,181.194 250.316 L 181.200 194.831 180.300 193.977 C 179.805 193.507,178.983 192.960,178.474 192.762 C 177.584 192.414,72.589 192.337,70.342 192.682 " stroke="none" fill="#dc147a" fill-rule="evenodd"></path><path id="path2" d="M192.943 75.997 C 190.665 76.916,190.800 73.519,190.800 130.080 L 190.800 181.982 191.882 182.691 C 193.226 183.571,297.110 184.036,300.253 183.175 C 302.235 182.632,302.966 181.486,302.702 179.341 C 302.023 173.845,299.830 162.580,299.015 160.400 C 298.480 158.970,297.749 156.641,297.390 155.224 C 297.032 153.807,296.417 152.007,296.024 151.224 C 295.631 150.441,294.988 148.810,294.594 147.600 C 293.981 145.714,291.712 140.723,290.341 138.244 C 290.112 137.828,289.273 136.298,288.479 134.844 C 285.913 130.149,281.090 123.025,277.800 119.071 C 276.700 117.750,275.065 115.753,274.166 114.634 C 269.051 108.268,256.305 97.761,247.219 92.420 C 242.083 89.401,232.953 84.800,232.099 84.800 C 231.796 84.800,230.220 84.187,228.598 83.437 C 226.975 82.687,225.052 81.949,224.324 81.797 C 223.596 81.644,221.200 80.928,219.000 80.206 C 216.800 79.484,213.380 78.675,211.400 78.408 C 209.420 78.141,206.900 77.686,205.800 77.395 C 200.643 76.034,194.505 75.366,192.943 75.997 " stroke="none" fill="#4ca4db" fill-rule="evenodd"></path><path id="path3" d="M170.065 76.227 C 168.231 76.513,166.175 76.940,165.497 77.176 C 164.819 77.412,162.360 77.879,160.032 78.214 C 157.704 78.548,154.810 79.176,153.600 79.608 C 152.390 80.041,149.783 80.857,147.806 81.423 C 145.829 81.988,143.669 82.782,143.006 83.187 C 142.343 83.592,140.900 84.191,139.800 84.518 C 136.181 85.593,125.038 91.377,120.000 94.796 C 108.701 102.464,94.025 116.435,90.646 122.740 C 90.452 123.103,89.895 123.850,89.408 124.400 C 86.629 127.538,79.527 140.508,76.703 147.600 C 73.804 154.880,71.249 163.151,70.833 166.600 C 70.621 168.360,70.092 171.510,69.657 173.600 C 68.102 181.087,68.217 182.379,70.515 183.180 C 72.667 183.930,178.151 183.749,179.614 182.993 C 181.313 182.114,181.235 184.919,181.113 129.065 L 181.000 77.531 179.878 76.565 C 178.564 75.436,175.769 75.339,170.065 76.227 M179.171 78.489 C 179.468 79.340,179.600 95.428,179.600 130.637 L 179.600 181.555 178.711 182.177 C 177.574 182.974,73.190 183.143,71.453 182.351 C 70.047 181.711,70.003 181.147,70.833 174.343 C 71.695 167.268,72.273 164.225,73.036 162.738 C 73.336 162.155,73.917 160.175,74.328 158.338 C 74.738 156.502,75.442 154.280,75.892 153.400 C 76.342 152.520,77.097 150.543,77.571 149.006 C 78.045 147.469,78.805 145.580,79.261 144.807 C 79.717 144.035,80.442 142.509,80.872 141.418 C 81.630 139.495,82.173 138.511,86.138 131.889 C 87.162 130.178,88.000 128.694,88.000 128.592 C 88.000 128.326,95.284 118.682,95.849 118.200 C 96.107 117.980,97.156 116.757,98.179 115.481 C 103.570 108.763,115.016 99.152,123.663 94.081 C 130.496 90.074,131.952 89.270,132.865 88.996 C 133.379 88.843,134.880 88.123,136.200 87.398 C 137.520 86.673,139.405 85.864,140.390 85.600 C 141.374 85.336,143.236 84.587,144.527 83.936 C 145.819 83.284,148.343 82.420,150.137 82.015 C 151.932 81.611,154.660 80.828,156.200 80.275 C 157.740 79.722,160.890 79.051,163.200 78.783 C 165.510 78.515,168.390 78.180,169.600 78.039 C 170.810 77.897,172.034 77.635,172.320 77.455 C 174.557 76.049,178.530 76.649,179.171 78.489 M191.806 193.700 L 190.767 194.600 190.781 250.600 L 190.795 306.600 191.820 307.500 C 193.726 309.174,203.982 308.525,212.200 306.210 C 214.840 305.467,217.822 304.749,218.827 304.615 C 219.832 304.482,221.723 303.867,223.029 303.250 C 224.335 302.632,226.393 301.898,227.602 301.617 C 228.811 301.337,230.610 300.609,231.600 300.000 C 232.590 299.390,234.120 298.669,235.000 298.396 C 235.880 298.124,237.163 297.481,237.851 296.967 C 238.539 296.454,240.012 295.688,241.125 295.265 C 242.238 294.843,243.978 293.980,244.992 293.348 C 250.070 290.186,253.513 287.953,254.550 287.149 C 255.182 286.658,256.352 285.816,257.150 285.278 C 257.947 284.740,259.240 283.737,260.022 283.050 C 260.804 282.362,262.334 281.088,263.422 280.218 C 267.543 276.922,275.285 268.676,279.286 263.320 C 283.079 258.244,284.171 256.590,288.557 249.286 C 290.675 245.758,293.745 239.409,294.594 236.800 C 294.988 235.590,295.647 233.928,296.059 233.108 C 296.471 232.287,297.148 230.217,297.562 228.508 C 297.977 226.798,298.670 224.589,299.102 223.597 C 299.535 222.605,300.188 220.085,300.554 217.997 C 300.920 215.909,301.412 213.120,301.649 211.800 C 303.899 199.223,304.112 195.275,302.618 193.782 L 301.636 192.800 247.240 192.800 L 192.845 192.800 191.806 193.700 " stroke="none" fill="#c4dc4c" fill-rule="evenodd"></path><path id="path4" d="M174.720 76.840 C 173.686 76.998,172.606 77.275,172.320 77.455 C 172.034 77.635,170.810 77.897,169.600 78.039 C 168.390 78.180,165.510 78.515,163.200 78.783 C 160.890 79.051,157.740 79.722,156.200 80.275 C 154.660 80.828,151.932 81.611,150.137 82.015 C 148.343 82.420,145.819 83.284,144.527 83.936 C 143.236 84.587,141.374 85.336,140.390 85.600 C 139.405 85.864,137.520 86.673,136.200 87.398 C 134.880 88.123,133.379 88.843,132.865 88.996 C 131.952 89.270,130.496 90.074,123.663 94.081 C 115.016 99.152,103.570 108.763,98.179 115.481 C 97.156 116.757,96.107 117.980,95.849 118.200 C 95.284 118.682,88.000 128.326,88.000 128.592 C 88.000 128.694,87.162 130.178,86.138 131.889 C 82.173 138.511,81.630 139.495,80.872 141.418 C 80.442 142.509,79.717 144.035,79.261 144.807 C 78.805 145.580,78.045 147.469,77.571 149.006 C 77.097 150.543,76.342 152.520,75.892 153.400 C 75.442 154.280,74.738 156.502,74.328 158.338 C 73.917 160.175,73.336 162.155,73.036 162.738 C 72.273 164.225,71.695 167.268,70.833 174.343 C 70.003 181.147,70.047 181.711,71.453 182.351 C 73.190 183.143,177.574 182.974,178.711 182.177 L 179.600 181.555 179.600 130.637 C 179.600 71.564,180.005 76.031,174.720 76.840 " stroke="none" fill="#f2c13b" fill-rule="evenodd"></path></g></svg>