<?xml version="1.0" encoding="utf-8" standalone="no"?><svg width="119" height="120" xmlns="http://www.w3.org/2000/svg"><style type="text/css">.st0{fill:#EC2C45;}</style><g><title>background</title><rect fill="none" id="canvas_background" height="122" width="121" y="-1" x="-1"/></g><g><title>Layer 1</title><path id="svg_2" d="m75.8,24.9c0,-3.4 1,-6.5 2.8,-9.1c-5.3,1.6 -9.3,6.5 -9.3,12.3l0,10.3l6.4,0.3l0,-13.8l0.1,0z" class="st0"/><path id="svg_3" d="m69.4,95.9c0,5.9 3.9,10.8 9.3,12.3c-1.8,-2.6 -2.8,-5.7 -2.8,-9.1l0,-19.4l-6.4,0l0,16.2l-0.1,0z" class="st0"/><path id="svg_4" d="m85.5,79.8l-6.4,0l0,19.4c0,5.9 3.9,10.8 9.3,12.3c-1.8,-2.6 -2.8,-5.7 -2.8,-9.1l0,-22.6l-0.1,0z" class="st0"/><path id="svg_5" d="m85.5,21.7c0,-3.4 1.1,-6.5 2.8,-9.1c-5.3,1.6 -9.3,6.5 -9.3,12.3l0,14l6.4,0.3l0,-17.5l0.1,0z" class="st0"/><path id="svg_6" d="m12.8,17.6c-4.7,2.8 -7.9,7.9 -7.9,13.8l0,61.3c0,5.9 3.2,11 7.9,13.8c-0.9,-2.3 -1.5,-4.7 -1.5,-7.4l0,-74.2c0,-2.6 0.5,-5.1 1.5,-7.3" class="st0"/><path id="svg_7" d="m21,18.5c0,-2.6 0.5,-5.1 1.5,-7.4c-4.7,2.8 -7.9,7.9 -7.9,13.8l0,74.2c0,6.9 4.4,12.8 10.5,15.1c-2.6,-3.3 -4.1,-7.4 -4.1,-11.8l0,-83.9z" class="st0"/><path id="svg_8" d="m101.6,8.8c-7.1,0 -12.9,5.8 -12.9,12.9l0,21l-32.2,-1.7l0,-22.6c0,-8.9 -7.2,-16.1 -16.1,-16.1c-8.9,0 -16.1,7.2 -16.1,16.1l0,83.9c0,8.9 7.2,16.1 16.1,16.1c8.9,0 16.1,-7.2 16.1,-16.1l0,-25.8l32.3,0l0,25.8c0,7.1 5.8,12.9 12.9,12.9c7.1,0 12.9,-5.8 12.9,-12.9l0,-80.6c-0.1,-7.1 -5.9,-12.9 -13,-12.9" class="st0"/></g></svg>