<?xml version="1.0" encoding="utf-8"?><svg xmlns="http://www.w3.org/2000/svg" viewBox="0 0 48 48"><ellipse cx="24" cy="24.1" rx="21" ry="14.2" fill="#fff"/><path d="M47.6 25.8c-.1 2.3-.1 4.5-.2 6.8-.2 4.5-2.5 6.8-7 6.8h-4.5c-.4 0-.7-.1-1.2.2.2 2.7 1.4 5 3.8 6.7-.8.2-1.4 0-1.9-.1-4-1-7.4-3.1-10.4-5.9-.7-.7-1.4-.9-2.3-.9H9.7c-2.9 0-5-1.3-6.4-3.7-.8-1.3-1.2-2.8-1.4-4.3-.2-2.3-.5-4.6-.6-6.9C.9 20 .7 15.6.4 11.1.3 9.9.4 8.6.9 7.4c.6-1.7 1.8-2.7 3.6-3 1.3-.2 2.5 0 3.8.2C16.8 6.1 25.4 7.5 33.9 9c2.7.5 5.4.9 8.1 1.3 2.7.4 4.7 1.8 5.6 4.5v11zm-26.4-.2h6.5V33c1.4 0 2.6.1 3.9 0V15.2c-1.3-.1-2.6-.1-4 0v6.6c-2.2 0-4.3.1-6.5 0v-6.5h-4.5v17.8c1.6 0 3 .1 4.6-.1v-7.4z" fill="#29a8df"/></svg>