<?xml version="1.0" encoding="utf-8"?><svg xmlns="http://www.w3.org/2000/svg" viewBox="0 0 48 48"><path d="M26 45.9c-.1-1.2-.1-3.1-.1-3.7 0-.6 0-.7.1-2.5.2-1.9.4-2.6.5-3.3.1-.8.3-1.6.7-2.8.4-1.1.7-1.7 1.1-2.8.5-1.1 1.3-2.6 2.2-4.1.9-1.5 1.5-3.2 1.8-4.9.4-2 .3-4.2.2-5.4 0-1.3-.2-4.4-.4-6.1 7.5 3 12.7 9.9 12.7 18.1 0 10.1-8.2 18.5-18.7 19.5.1.1 0-.9-.1-2zm-4.1 0c.1-1.2.2-3.1.2-3.7s.1-.7-.1-2.5c-.1-1.9-.4-2.6-.5-3.3-.1-.8-.3-1.6-.7-2.8-.3-1.1-.6-1.7-1.1-2.8-.5-1.1-1.3-2.6-2.2-4.1-.9-1.5-1.5-3.2-1.8-4.9-.3-1.8-.3-3.6-.2-5.4.1-1.3.3-4.4.4-6.1-7.6 2.9-12.8 9.9-12.8 18 0 10.1 8.1 18.5 18.6 19.6l.2-2zM20.6.6l-1.8.3v17.7l1.8.4V.6zm8.7.3L27.5.6v18.3l1.8-.3V.9zM25 .4h-1.8v18.8H25V.4z" fill="#579442"/></svg>