<?xml version="1.0" encoding="UTF-8" standalone="no"?><svg xmlns="http://www.w3.org/2000/svg" id="svg" version="1.1" viewBox="0, 0, 400,400"><g id="svgg"><path id="path0" d="M337.200 56.000 C 337.200 56.233,335.867 56.400,334.000 56.400 C 332.133 56.400,330.800 56.567,330.800 56.800 C 330.800 57.020,330.260 57.200,329.600 57.200 C 328.940 57.200,328.400 57.380,328.400 57.600 C 328.400 57.820,328.112 58.000,327.760 58.000 C 327.409 58.000,326.617 58.540,326.000 59.200 C 325.383 59.860,324.681 60.400,324.440 60.400 C 324.198 60.400,324.000 60.684,324.000 61.031 C 324.000 61.379,323.280 62.354,322.400 63.200 C 321.520 64.046,320.800 64.943,320.800 65.195 C 320.800 65.446,319.900 66.529,318.800 67.600 C 317.700 68.671,316.800 69.830,316.800 70.174 C 316.800 70.518,316.620 70.800,316.400 70.800 C 316.180 70.800,316.000 71.340,316.000 72.000 C 316.000 72.660,315.820 73.200,315.600 73.200 C 315.374 73.200,315.200 74.333,315.200 75.800 C 315.200 77.267,315.026 78.400,314.800 78.400 C 314.578 78.400,314.400 79.467,314.400 80.800 C 314.400 82.133,314.222 83.200,314.000 83.200 C 313.741 83.200,313.600 88.000,313.600 96.800 C 313.600 105.600,313.459 110.400,313.200 110.400 C 312.980 110.400,312.800 111.300,312.800 112.400 C 312.800 113.500,312.620 114.400,312.400 114.400 C 312.180 114.400,312.000 115.120,312.000 116.000 C 312.000 116.880,311.820 117.600,311.600 117.600 C 311.380 117.600,311.200 118.320,311.200 119.200 C 311.200 120.080,311.020 120.800,310.800 120.800 C 310.580 120.800,310.400 121.300,310.400 121.912 C 310.400 122.565,310.070 123.261,309.600 123.600 C 309.160 123.917,308.800 124.547,308.800 125.000 C 308.800 125.453,308.440 126.083,308.000 126.400 C 307.560 126.717,307.200 127.211,307.200 127.497 C 307.200 128.225,302.950 132.400,302.209 132.400 C 301.874 132.400,301.600 132.580,301.600 132.800 C 301.600 133.020,301.240 133.200,300.800 133.200 C 300.360 133.200,300.000 133.380,300.000 133.600 C 300.000 133.820,299.640 134.000,299.200 134.000 C 298.760 134.000,298.400 134.180,298.400 134.400 C 298.400 134.620,297.680 134.800,296.800 134.800 C 295.920 134.800,295.200 134.980,295.200 135.200 C 295.200 135.420,294.480 135.600,293.600 135.600 C 292.720 135.600,292.000 135.780,292.000 136.000 C 292.000 136.220,291.460 136.400,290.800 136.400 C 290.140 136.400,289.600 136.220,289.600 136.000 C 289.600 135.780,288.880 135.600,288.000 135.600 C 287.120 135.600,286.400 135.420,286.400 135.200 C 286.400 134.980,285.500 134.800,284.400 134.800 C 283.300 134.800,282.400 134.620,282.400 134.400 C 282.400 134.178,281.333 134.000,280.000 134.000 C 278.667 134.000,277.600 133.822,277.600 133.600 C 277.600 133.380,276.790 133.200,275.800 133.200 C 274.810 133.200,274.000 133.020,274.000 132.800 C 274.000 132.580,273.280 132.400,272.400 132.400 C 271.520 132.400,270.800 132.220,270.800 132.000 C 270.800 131.780,270.080 131.600,269.200 131.600 C 268.320 131.600,267.600 131.420,267.600 131.200 C 267.600 130.946,264.533 130.800,259.200 130.800 C 253.867 130.800,250.800 130.946,250.800 131.200 C 250.800 131.440,249.200 131.600,246.800 131.600 C 244.400 131.600,242.800 131.760,242.800 132.000 C 242.800 132.222,241.733 132.400,240.400 132.400 C 239.067 132.400,238.000 132.578,238.000 132.800 C 238.000 133.020,237.460 133.200,236.800 133.200 C 236.140 133.200,235.600 133.380,235.600 133.600 C 235.600 133.820,235.060 134.000,234.400 134.000 C 233.740 134.000,233.200 134.180,233.200 134.400 C 233.200 134.620,232.840 134.800,232.400 134.800 C 231.960 134.800,231.600 134.980,231.600 135.200 C 231.600 135.420,231.316 135.600,230.969 135.600 C 230.621 135.600,229.646 136.320,228.800 137.200 C 227.954 138.080,226.979 138.800,226.631 138.800 C 226.284 138.800,226.000 138.980,226.000 139.200 C 226.000 139.420,225.806 139.600,225.569 139.600 C 225.331 139.600,224.446 140.320,223.600 141.200 C 222.754 142.080,221.779 142.800,221.431 142.800 C 221.084 142.800,220.800 142.980,220.800 143.200 C 220.800 143.420,220.480 143.600,220.088 143.600 C 219.697 143.600,219.117 143.960,218.800 144.400 C 218.483 144.840,217.903 145.200,217.512 145.200 C 217.120 145.200,216.800 145.380,216.800 145.600 C 216.800 145.820,216.480 146.000,216.088 146.000 C 215.697 146.000,215.117 146.360,214.800 146.800 C 214.483 147.240,213.992 147.600,213.709 147.600 C 212.982 147.600,198.400 162.266,198.400 162.997 C 198.400 163.329,198.220 163.600,198.000 163.600 C 197.780 163.600,197.600 163.920,197.600 164.312 C 197.600 164.703,197.240 165.283,196.800 165.600 C 196.360 165.917,196.000 166.457,196.000 166.800 C 196.000 167.143,195.640 167.683,195.200 168.000 C 194.760 168.317,194.400 168.816,194.400 169.108 C 194.400 169.400,193.140 170.881,191.600 172.400 C 190.060 173.919,188.800 175.310,188.800 175.492 C 188.800 175.674,188.440 176.083,188.000 176.400 C 187.560 176.717,187.200 177.297,187.200 177.688 C 187.200 178.080,187.020 178.400,186.800 178.400 C 186.580 178.400,186.400 178.760,186.400 179.200 C 186.400 179.640,186.220 180.000,186.000 180.000 C 185.780 180.000,185.600 180.360,185.600 180.800 C 185.600 181.240,185.420 181.600,185.200 181.600 C 184.980 181.600,184.800 181.960,184.800 182.400 C 184.800 182.840,184.620 183.200,184.400 183.200 C 184.180 183.200,184.000 183.560,184.000 184.000 C 184.000 184.440,183.820 184.800,183.600 184.800 C 183.380 184.800,183.200 185.340,183.200 186.000 C 183.200 186.660,183.020 187.200,182.800 187.200 C 182.571 187.200,182.400 188.400,182.400 190.000 C 182.400 191.600,182.229 192.800,182.000 192.800 C 181.760 192.800,181.600 194.400,181.600 196.800 C 181.600 199.200,181.440 200.800,181.200 200.800 C 180.956 200.800,180.800 202.667,180.800 205.600 C 180.800 208.533,180.644 210.400,180.400 210.400 C 180.138 210.400,180.000 218.467,180.000 233.800 C 180.000 249.133,180.138 257.200,180.400 257.200 C 180.642 257.200,180.800 258.933,180.800 261.600 C 180.800 264.267,180.958 266.000,181.200 266.000 C 181.420 266.000,181.600 266.540,181.600 267.200 C 181.600 267.860,181.780 268.400,182.000 268.400 C 182.220 268.400,182.400 268.940,182.400 269.600 C 182.400 270.260,182.580 270.800,182.800 270.800 C 183.020 270.800,183.200 271.340,183.200 272.000 C 183.200 272.660,183.380 273.200,183.600 273.200 C 183.820 273.200,184.000 273.560,184.000 274.000 C 184.000 274.440,184.180 274.800,184.400 274.800 C 184.620 274.800,184.800 275.390,184.800 276.112 C 184.800 276.965,185.080 277.625,185.600 278.000 C 186.040 278.317,186.400 278.897,186.400 279.288 C 186.400 279.680,186.580 280.000,186.800 280.000 C 187.020 280.000,187.200 280.283,187.200 280.629 C 187.200 281.350,188.135 282.400,188.777 282.400 C 189.337 282.400,196.000 289.053,196.000 289.612 C 196.000 290.162,197.837 292.000,198.385 292.000 C 198.930 292.000,209.600 302.660,209.600 303.204 C 209.600 303.804,214.693 308.800,215.304 308.800 C 215.590 308.800,216.083 309.160,216.400 309.600 C 216.717 310.040,217.215 310.400,217.505 310.400 C 217.796 310.400,219.459 311.840,221.200 313.600 C 223.102 315.523,224.692 316.800,225.183 316.800 C 225.632 316.800,226.000 316.980,226.000 317.200 C 226.000 317.420,226.360 317.600,226.800 317.600 C 227.240 317.600,227.600 317.780,227.600 318.000 C 227.600 318.220,228.140 318.400,228.800 318.400 C 229.460 318.400,230.000 318.580,230.000 318.800 C 230.000 319.020,230.360 319.200,230.800 319.200 C 231.240 319.200,231.600 319.380,231.600 319.600 C 231.600 319.820,232.140 320.000,232.800 320.000 C 233.460 320.000,234.000 320.180,234.000 320.400 C 234.000 320.620,234.360 320.800,234.800 320.800 C 235.240 320.800,235.600 320.980,235.600 321.200 C 235.600 321.420,236.140 321.600,236.800 321.600 C 237.460 321.600,238.000 321.780,238.000 322.000 C 238.000 322.259,242.933 322.400,252.000 322.400 C 261.067 322.400,266.000 322.259,266.000 322.000 C 266.000 321.778,267.067 321.600,268.400 321.600 C 269.733 321.600,270.800 321.422,270.800 321.200 C 270.800 320.974,271.933 320.800,273.400 320.800 C 274.867 320.800,276.000 320.626,276.000 320.400 C 276.000 320.171,277.200 320.000,278.800 320.000 C 280.400 320.000,281.600 319.829,281.600 319.600 C 281.600 319.378,282.667 319.200,284.000 319.200 C 285.333 319.200,286.400 319.022,286.400 318.800 C 286.400 318.571,287.600 318.400,289.200 318.400 C 290.800 318.400,292.000 318.229,292.000 318.000 C 292.000 317.778,293.067 317.600,294.400 317.600 C 295.733 317.600,296.800 317.422,296.800 317.200 C 296.800 316.978,297.867 316.800,299.200 316.800 C 300.533 316.800,301.600 316.622,301.600 316.400 C 301.600 316.180,302.320 316.000,303.200 316.000 C 304.080 316.000,304.800 315.820,304.800 315.600 C 304.800 315.378,305.867 315.200,307.200 315.200 C 308.533 315.200,309.600 315.022,309.600 314.800 C 309.600 314.580,310.500 314.400,311.600 314.400 C 312.700 314.400,313.600 314.220,313.600 314.000 C 313.600 313.780,314.500 313.600,315.600 313.600 C 316.700 313.600,317.600 313.780,317.600 314.000 C 317.600 314.220,318.140 314.400,318.800 314.400 C 319.460 314.400,320.000 314.580,320.000 314.800 C 320.000 315.020,320.360 315.200,320.800 315.200 C 321.240 315.200,321.600 315.380,321.600 315.600 C 321.600 315.820,322.140 316.000,322.800 316.000 C 323.460 316.000,324.000 316.180,324.000 316.400 C 324.000 316.625,325.122 316.800,326.567 316.800 C 328.229 316.800,329.216 316.976,329.367 317.300 C 329.553 317.700,329.647 317.700,329.833 317.300 C 330.004 316.934,331.615 316.800,335.852 316.800 C 341.970 316.800,343.600 316.257,343.600 314.218 C 343.600 313.878,343.780 313.600,344.000 313.600 C 344.220 313.600,344.400 313.240,344.400 312.800 C 344.400 312.360,344.580 312.000,344.800 312.000 C 345.020 312.000,345.200 311.640,345.200 311.200 C 345.200 310.760,345.380 310.400,345.600 310.400 C 345.820 310.400,346.000 310.040,346.000 309.600 C 346.000 309.160,346.180 308.800,346.400 308.800 C 346.620 308.800,346.800 308.440,346.800 308.000 C 346.800 307.560,346.980 307.200,347.200 307.200 C 347.420 307.200,347.600 306.880,347.600 306.488 C 347.600 306.097,347.960 305.517,348.400 305.200 C 348.870 304.861,349.200 304.165,349.200 303.512 C 349.200 302.900,349.380 302.400,349.600 302.400 C 349.820 302.400,350.000 301.680,350.000 300.800 C 350.000 299.920,350.180 299.200,350.400 299.200 C 350.620 299.200,350.800 298.480,350.800 297.600 C 350.800 296.720,350.980 296.000,351.200 296.000 C 351.420 296.000,351.600 295.280,351.600 294.400 C 351.600 293.520,351.780 292.800,352.000 292.800 C 352.233 292.800,352.400 291.467,352.400 289.600 C 352.400 287.733,352.567 286.400,352.800 286.400 C 353.066 286.400,353.200 250.067,353.200 178.200 C 353.200 106.333,353.066 70.000,352.800 70.000 C 352.580 70.000,352.400 69.640,352.400 69.200 C 352.400 68.760,352.220 68.400,352.000 68.400 C 351.780 68.400,351.600 67.860,351.600 67.200 C 351.600 66.540,351.420 66.000,351.200 66.000 C 350.980 66.000,350.800 65.640,350.800 65.200 C 350.800 64.760,350.620 64.400,350.400 64.400 C 350.180 64.400,350.000 64.040,350.000 63.600 C 350.000 63.160,349.820 62.800,349.600 62.800 C 349.380 62.800,349.200 62.440,349.200 62.000 C 349.200 61.560,349.020 61.200,348.800 61.200 C 348.580 61.200,348.400 60.840,348.400 60.400 C 348.400 59.960,348.220 59.600,348.000 59.600 C 347.780 59.600,347.600 59.240,347.600 58.800 C 347.600 58.300,347.333 58.000,346.888 58.000 C 346.497 58.000,345.917 57.640,345.600 57.200 C 345.283 56.760,344.703 56.400,344.312 56.400 C 343.920 56.400,343.600 56.220,343.600 56.000 C 343.600 55.767,342.267 55.600,340.400 55.600 C 338.533 55.600,337.200 55.767,337.200 56.000 M269.200 171.200 C 269.200 171.429,270.400 171.600,272.000 171.600 C 273.600 171.600,274.800 171.771,274.800 172.000 C 274.800 172.226,275.933 172.400,277.400 172.400 C 278.867 172.400,280.000 172.574,280.000 172.800 C 280.000 173.020,280.720 173.200,281.600 173.200 C 282.480 173.200,283.200 173.380,283.200 173.600 C 283.200 173.820,283.740 174.000,284.400 174.000 C 285.060 174.000,285.600 174.180,285.600 174.400 C 285.600 174.620,286.320 174.800,287.200 174.800 C 288.356 174.800,288.800 174.967,288.800 175.400 C 288.800 175.789,289.190 176.000,289.912 176.000 C 290.565 176.000,291.261 176.330,291.600 176.800 C 291.917 177.240,292.410 177.600,292.696 177.600 C 293.372 177.600,298.400 182.628,298.400 183.304 C 298.400 183.590,298.760 184.083,299.200 184.400 C 299.640 184.717,300.000 185.297,300.000 185.688 C 300.000 186.080,300.180 186.400,300.400 186.400 C 300.620 186.400,300.800 186.760,300.800 187.200 C 300.800 187.640,300.980 188.000,301.200 188.000 C 301.420 188.000,301.600 188.540,301.600 189.200 C 301.600 189.860,301.780 190.400,302.000 190.400 C 302.220 190.400,302.400 190.760,302.400 191.200 C 302.400 191.640,302.580 192.000,302.800 192.000 C 303.020 192.000,303.200 192.540,303.200 193.200 C 303.200 193.860,303.380 194.400,303.600 194.400 C 303.820 194.400,304.000 194.760,304.000 195.200 C 304.000 195.640,304.180 196.000,304.400 196.000 C 304.620 196.000,304.800 196.360,304.800 196.800 C 304.800 197.240,304.980 197.600,305.200 197.600 C 305.420 197.600,305.600 198.140,305.600 198.800 C 305.600 199.460,305.780 200.000,306.000 200.000 C 306.220 200.000,306.400 200.360,306.400 200.800 C 306.400 201.240,306.580 201.600,306.800 201.600 C 307.020 201.600,307.200 202.140,307.200 202.800 C 307.200 203.460,307.380 204.000,307.600 204.000 C 307.820 204.000,308.000 204.540,308.000 205.200 C 308.000 205.860,308.180 206.400,308.400 206.400 C 308.620 206.400,308.800 206.940,308.800 207.600 C 308.800 208.260,308.980 208.800,309.200 208.800 C 309.420 208.800,309.600 209.160,309.600 209.600 C 309.600 210.040,309.780 210.400,310.000 210.400 C 310.220 210.400,310.400 211.120,310.400 212.000 C 310.400 212.880,310.580 213.600,310.800 213.600 C 311.042 213.600,311.200 215.333,311.200 218.000 C 311.200 220.667,311.358 222.400,311.600 222.400 C 311.845 222.400,312.000 224.333,312.000 227.400 C 312.000 230.467,312.155 232.400,312.400 232.400 C 312.640 232.400,312.800 234.000,312.800 236.400 C 312.800 238.800,312.640 240.400,312.400 240.400 C 312.180 240.400,312.000 240.760,312.000 241.200 C 312.000 241.640,311.820 242.000,311.600 242.000 C 311.380 242.000,311.200 242.540,311.200 243.200 C 311.200 243.860,311.020 244.400,310.800 244.400 C 310.580 244.400,310.400 244.760,310.400 245.200 C 310.400 245.640,310.220 246.000,310.000 246.000 C 309.780 246.000,309.600 246.360,309.600 246.800 C 309.600 247.240,309.420 247.600,309.200 247.600 C 308.980 247.600,308.800 248.140,308.800 248.800 C 308.800 249.460,308.620 250.000,308.400 250.000 C 308.180 250.000,308.000 250.360,308.000 250.800 C 308.000 251.240,307.820 251.600,307.600 251.600 C 307.380 251.600,307.200 252.140,307.200 252.800 C 307.200 253.460,307.020 254.000,306.800 254.000 C 306.580 254.000,306.400 254.360,306.400 254.800 C 306.400 255.240,306.220 255.600,306.000 255.600 C 305.780 255.600,305.600 256.140,305.600 256.800 C 305.600 257.460,305.420 258.000,305.200 258.000 C 304.980 258.000,304.800 258.360,304.800 258.800 C 304.800 259.240,304.620 259.600,304.400 259.600 C 304.180 259.600,304.000 260.140,304.000 260.800 C 304.000 261.460,303.820 262.000,303.600 262.000 C 303.380 262.000,303.200 262.540,303.200 263.200 C 303.200 263.860,303.020 264.400,302.800 264.400 C 302.580 264.400,302.400 264.760,302.400 265.200 C 302.400 265.640,302.220 266.000,302.000 266.000 C 301.780 266.000,301.600 266.320,301.600 266.712 C 301.600 267.103,301.240 267.683,300.800 268.000 C 300.360 268.317,300.000 268.810,300.000 269.096 C 300.000 269.824,294.947 274.800,294.207 274.800 C 293.873 274.800,293.600 274.993,293.600 275.229 C 293.600 275.866,292.547 276.800,291.829 276.800 C 291.483 276.800,291.200 276.980,291.200 277.200 C 291.200 277.420,290.660 277.600,290.000 277.600 C 289.340 277.600,288.800 277.780,288.800 278.000 C 288.800 278.220,288.440 278.400,288.000 278.400 C 287.560 278.400,287.200 278.580,287.200 278.800 C 287.200 279.020,286.840 279.200,286.400 279.200 C 285.960 279.200,285.600 279.380,285.600 279.600 C 285.600 279.820,285.060 280.000,284.400 280.000 C 283.740 280.000,283.200 280.180,283.200 280.400 C 283.200 280.620,282.840 280.800,282.400 280.800 C 281.960 280.800,281.600 280.980,281.600 281.200 C 281.600 281.420,281.060 281.600,280.400 281.600 C 279.740 281.600,279.200 281.780,279.200 282.000 C 279.200 282.220,278.660 282.400,278.000 282.400 C 277.340 282.400,276.800 282.580,276.800 282.800 C 276.800 283.020,276.350 283.200,275.800 283.200 C 275.250 283.200,274.800 283.380,274.800 283.600 C 274.800 283.820,274.260 284.000,273.600 284.000 C 272.940 284.000,272.400 284.180,272.400 284.400 C 272.400 284.620,272.040 284.800,271.600 284.800 C 271.160 284.800,270.800 284.980,270.800 285.200 C 270.800 285.420,270.260 285.600,269.600 285.600 C 268.940 285.600,268.400 285.780,268.400 286.000 C 268.400 286.220,267.860 286.400,267.200 286.400 C 266.540 286.400,266.000 286.580,266.000 286.800 C 266.000 287.020,265.280 287.200,264.400 287.200 C 263.520 287.200,262.800 287.020,262.800 286.800 C 262.800 286.580,262.260 286.400,261.600 286.400 C 260.940 286.400,260.400 286.220,260.400 286.000 C 260.400 285.780,260.040 285.600,259.600 285.600 C 259.160 285.600,258.800 285.420,258.800 285.200 C 258.800 284.980,258.260 284.800,257.600 284.800 C 256.940 284.800,256.400 284.620,256.400 284.400 C 256.400 284.180,256.040 284.000,255.600 284.000 C 255.160 284.000,254.800 283.820,254.800 283.600 C 254.800 283.380,254.300 283.200,253.688 283.200 C 253.035 283.200,252.339 282.870,252.000 282.400 C 251.683 281.960,251.103 281.600,250.712 281.600 C 250.320 281.600,250.000 281.420,250.000 281.200 C 250.000 280.980,249.712 280.800,249.360 280.800 C 249.009 280.800,248.217 280.260,247.600 279.600 C 246.983 278.940,246.191 278.400,245.840 278.400 C 245.488 278.400,245.200 278.220,245.200 278.000 C 245.200 277.780,244.880 277.600,244.488 277.600 C 244.097 277.600,243.517 277.240,243.200 276.800 C 242.883 276.360,242.303 276.000,241.912 276.000 C 241.520 276.000,241.200 275.812,241.200 275.582 C 241.200 274.982,239.335 273.200,238.706 273.200 C 238.415 273.200,237.917 272.840,237.600 272.400 C 237.283 271.960,236.790 271.600,236.505 271.600 C 236.220 271.600,234.640 270.253,232.994 268.606 C 231.347 266.960,230.000 265.380,230.000 265.095 C 230.000 264.810,229.640 264.317,229.200 264.000 C 228.760 263.683,228.400 263.103,228.400 262.712 C 228.400 262.320,228.220 262.000,228.000 262.000 C 227.780 262.000,227.600 261.640,227.600 261.200 C 227.600 260.760,227.420 260.400,227.200 260.400 C 226.980 260.400,226.800 260.040,226.800 259.600 C 226.800 259.160,226.620 258.800,226.400 258.800 C 226.180 258.800,226.000 258.260,226.000 257.600 C 226.000 256.800,225.800 256.400,225.400 256.400 C 225.000 256.400,224.800 256.000,224.800 255.200 C 224.800 254.540,224.620 254.000,224.400 254.000 C 224.180 254.000,224.000 253.460,224.000 252.800 C 224.000 252.140,223.820 251.600,223.600 251.600 C 223.380 251.600,223.200 250.880,223.200 250.000 C 223.200 249.120,223.020 248.400,222.800 248.400 C 222.580 248.400,222.400 247.680,222.400 246.800 C 222.400 245.920,222.220 245.200,222.000 245.200 C 221.780 245.200,221.600 244.300,221.600 243.200 C 221.600 242.100,221.420 241.200,221.200 241.200 C 220.940 241.200,220.800 235.933,220.800 226.200 C 220.800 216.467,220.940 211.200,221.200 211.200 C 221.420 211.200,221.600 210.300,221.600 209.200 C 221.600 208.100,221.780 207.200,222.000 207.200 C 222.220 207.200,222.400 206.480,222.400 205.600 C 222.400 204.720,222.580 204.000,222.800 204.000 C 223.020 204.000,223.200 203.460,223.200 202.800 C 223.200 202.140,223.380 201.600,223.600 201.600 C 223.820 201.600,224.000 201.060,224.000 200.400 C 224.000 199.740,224.180 199.200,224.400 199.200 C 224.620 199.200,224.800 198.840,224.800 198.400 C 224.800 197.956,225.067 197.600,225.400 197.600 C 225.733 197.600,226.000 197.244,226.000 196.800 C 226.000 196.360,226.180 196.000,226.400 196.000 C 226.620 196.000,226.800 195.680,226.800 195.288 C 226.800 194.897,227.160 194.317,227.600 194.000 C 228.040 193.683,228.400 193.183,228.400 192.890 C 228.400 192.596,229.480 191.296,230.800 190.000 C 232.120 188.704,233.200 187.450,233.200 187.212 C 233.200 186.646,236.649 183.200,237.215 183.200 C 237.456 183.200,238.529 182.300,239.600 181.200 C 240.671 180.100,241.790 179.200,242.086 179.200 C 242.381 179.200,242.883 178.840,243.200 178.400 C 243.517 177.960,244.097 177.600,244.488 177.600 C 244.880 177.600,245.200 177.420,245.200 177.200 C 245.200 176.980,245.560 176.800,246.000 176.800 C 246.440 176.800,246.800 176.620,246.800 176.400 C 246.800 176.180,247.160 176.000,247.600 176.000 C 248.044 176.000,248.400 175.733,248.400 175.400 C 248.400 175.067,248.756 174.800,249.200 174.800 C 249.640 174.800,250.000 174.620,250.000 174.400 C 250.000 174.180,250.360 174.000,250.800 174.000 C 251.240 174.000,251.600 173.820,251.600 173.600 C 251.600 173.380,252.320 173.200,253.200 173.200 C 254.080 173.200,254.800 173.020,254.800 172.800 C 254.800 172.580,255.520 172.400,256.400 172.400 C 257.280 172.400,258.000 172.220,258.000 172.000 C 258.000 171.780,258.900 171.600,260.000 171.600 C 261.100 171.600,262.000 171.420,262.000 171.200 C 262.000 170.963,263.467 170.800,265.600 170.800 C 267.733 170.800,269.200 170.963,269.200 171.200 " stroke="none" fill="#fc8024" fill-rule="evenodd" /><path id="path1" d="M134.400 63.600 C 134.083 64.040,133.503 64.400,133.112 64.400 C 132.720 64.400,132.400 64.580,132.400 64.800 C 132.400 65.020,132.080 65.200,131.688 65.200 C 131.297 65.200,130.717 65.560,130.400 66.000 C 130.083 66.440,129.575 66.800,129.272 66.800 C 128.969 66.800,128.217 67.340,127.600 68.000 C 126.983 68.660,126.191 69.200,125.840 69.200 C 125.488 69.200,125.200 69.380,125.200 69.600 C 125.200 69.820,124.970 70.000,124.688 70.000 C 124.407 70.000,123.917 70.360,123.600 70.800 C 123.283 71.240,122.779 71.600,122.480 71.600 C 122.182 71.600,121.246 72.320,120.400 73.200 C 119.554 74.080,118.579 74.800,118.231 74.800 C 117.884 74.800,117.600 74.986,117.600 75.214 C 117.600 75.442,115.800 77.415,113.600 79.600 C 111.400 81.785,109.600 83.848,109.600 84.186 C 109.600 84.524,109.420 84.800,109.200 84.800 C 108.980 84.800,108.800 85.340,108.800 86.000 C 108.800 86.660,108.620 87.200,108.400 87.200 C 108.180 87.200,108.000 87.740,108.000 88.400 C 108.000 89.060,107.820 89.600,107.600 89.600 C 107.380 89.600,107.200 90.140,107.200 90.800 C 107.200 91.460,107.020 92.000,106.800 92.000 C 106.580 92.000,106.400 92.720,106.400 93.600 C 106.400 94.480,106.220 95.200,106.000 95.200 C 105.780 95.200,105.600 96.100,105.600 97.200 C 105.600 98.300,105.420 99.200,105.200 99.200 C 104.978 99.200,104.800 100.267,104.800 101.600 C 104.800 102.933,104.622 104.000,104.400 104.000 C 104.167 104.000,104.000 105.333,104.000 107.200 C 104.000 109.067,103.833 110.400,103.600 110.400 C 103.351 110.400,103.200 112.667,103.200 116.400 C 103.200 120.133,103.049 122.400,102.800 122.400 C 102.540 122.400,102.400 127.800,102.400 137.800 C 102.400 147.800,102.540 153.200,102.800 153.200 C 103.064 153.200,103.200 169.333,103.200 200.800 C 103.200 232.267,103.064 248.400,102.800 248.400 C 102.560 248.400,102.400 250.000,102.400 252.400 C 102.400 254.800,102.240 256.400,102.000 256.400 C 101.771 256.400,101.600 257.600,101.600 259.200 C 101.600 260.800,101.429 262.000,101.200 262.000 C 100.980 262.000,100.800 262.720,100.800 263.600 C 100.800 264.480,100.620 265.200,100.400 265.200 C 100.180 265.200,100.000 265.520,100.000 265.912 C 100.000 266.303,99.640 266.883,99.200 267.200 C 98.760 267.517,98.400 268.013,98.400 268.302 C 98.400 268.984,95.784 271.600,95.102 271.600 C 94.813 271.600,94.317 271.960,94.000 272.400 C 93.683 272.840,93.103 273.200,92.712 273.200 C 92.320 273.200,92.000 273.380,92.000 273.600 C 92.000 273.820,91.640 274.000,91.200 274.000 C 90.760 274.000,90.400 274.180,90.400 274.400 C 90.400 274.620,90.040 274.800,89.600 274.800 C 89.156 274.800,88.800 275.067,88.800 275.400 C 88.800 275.733,88.444 276.000,88.000 276.000 C 87.560 276.000,87.200 276.180,87.200 276.400 C 87.200 276.620,86.840 276.800,86.400 276.800 C 85.960 276.800,85.600 276.980,85.600 277.200 C 85.600 277.420,84.880 277.600,84.000 277.600 C 83.120 277.600,82.400 277.420,82.400 277.200 C 82.400 276.978,81.333 276.800,80.000 276.800 C 78.667 276.800,77.600 276.622,77.600 276.400 C 77.600 276.169,76.333 276.000,74.600 276.000 C 72.200 276.000,71.600 275.880,71.600 275.400 C 71.600 274.917,70.978 274.800,68.400 274.800 C 66.533 274.800,65.200 274.633,65.200 274.400 C 65.200 274.167,63.867 274.000,62.000 274.000 C 60.133 274.000,58.800 273.833,58.800 273.600 C 58.800 273.363,57.333 273.200,55.200 273.200 C 53.067 273.200,51.600 273.037,51.600 272.800 C 51.600 272.554,49.600 272.400,46.400 272.400 C 43.200 272.400,41.200 272.554,41.200 272.800 C 41.200 273.020,40.300 273.200,39.200 273.200 C 38.100 273.200,37.200 273.380,37.200 273.600 C 37.200 273.820,36.480 274.000,35.600 274.000 C 34.720 274.000,34.000 274.180,34.000 274.400 C 34.000 274.620,33.640 274.800,33.200 274.800 C 32.760 274.800,32.400 274.994,32.400 275.231 C 32.400 275.469,31.680 276.354,30.800 277.200 C 29.920 278.046,29.200 279.021,29.200 279.369 C 29.200 279.716,29.020 280.000,28.800 280.000 C 28.580 280.000,28.400 280.540,28.400 281.200 C 28.400 281.860,28.220 282.400,28.000 282.400 C 27.780 282.400,27.600 282.760,27.600 283.200 C 27.600 283.640,27.420 284.000,27.200 284.000 C 26.980 284.000,26.800 284.540,26.800 285.200 C 26.800 285.860,26.620 286.400,26.400 286.400 C 26.180 286.400,26.000 286.940,26.000 287.600 C 26.000 288.260,25.820 288.800,25.600 288.800 C 25.371 288.800,25.200 290.000,25.200 291.600 C 25.200 293.200,25.371 294.400,25.600 294.400 C 25.820 294.400,26.000 295.120,26.000 296.000 C 26.000 296.880,26.180 297.600,26.400 297.600 C 26.620 297.600,26.800 298.140,26.800 298.800 C 26.800 299.460,26.980 300.000,27.200 300.000 C 27.420 300.000,27.600 300.540,27.600 301.200 C 27.600 301.860,27.780 302.400,28.000 302.400 C 28.220 302.400,28.400 302.940,28.400 303.600 C 28.400 304.260,28.580 304.800,28.800 304.800 C 29.020 304.800,29.200 305.340,29.200 306.000 C 29.200 306.660,29.380 307.200,29.600 307.200 C 29.820 307.200,30.000 307.560,30.000 308.000 C 30.000 308.440,30.180 308.800,30.400 308.800 C 30.620 308.800,30.800 309.160,30.800 309.600 C 30.800 310.040,30.980 310.400,31.200 310.400 C 31.420 310.400,31.600 310.688,31.600 311.040 C 31.600 311.391,32.140 312.183,32.800 312.800 C 33.460 313.417,34.000 314.125,34.000 314.374 C 34.000 315.002,36.656 317.600,37.298 317.600 C 37.587 317.600,38.083 317.960,38.400 318.400 C 38.717 318.840,39.257 319.200,39.600 319.200 C 39.943 319.200,40.483 319.560,40.800 320.000 C 41.117 320.440,41.697 320.800,42.088 320.800 C 42.480 320.800,42.800 320.980,42.800 321.200 C 42.800 321.420,43.160 321.600,43.600 321.600 C 44.040 321.600,44.400 321.780,44.400 322.000 C 44.400 322.220,44.760 322.400,45.200 322.400 C 45.640 322.400,46.000 322.580,46.000 322.800 C 46.000 323.020,46.360 323.200,46.800 323.200 C 47.240 323.200,47.600 323.380,47.600 323.600 C 47.600 323.820,47.960 324.000,48.400 324.000 C 48.840 324.000,49.200 324.180,49.200 324.400 C 49.200 324.620,49.560 324.800,50.000 324.800 C 50.444 324.800,50.800 325.067,50.800 325.400 C 50.800 325.733,51.156 326.000,51.600 326.000 C 52.040 326.000,52.400 326.180,52.400 326.400 C 52.400 326.620,52.940 326.800,53.600 326.800 C 54.260 326.800,54.800 326.980,54.800 327.200 C 54.800 327.420,55.340 327.600,56.000 327.600 C 56.660 327.600,57.200 327.780,57.200 328.000 C 57.200 328.220,57.920 328.400,58.800 328.400 C 59.680 328.400,60.400 328.580,60.400 328.800 C 60.400 329.037,61.867 329.200,64.000 329.200 C 66.133 329.200,67.600 329.363,67.600 329.600 C 67.600 329.862,75.133 330.000,89.400 330.000 C 103.667 330.000,111.200 329.862,111.200 329.600 C 111.200 329.380,111.920 329.200,112.800 329.200 C 113.680 329.200,114.400 329.020,114.400 328.800 C 114.400 328.580,115.120 328.400,116.000 328.400 C 116.880 328.400,117.600 328.220,117.600 328.000 C 117.600 327.780,118.320 327.600,119.200 327.600 C 120.080 327.600,120.800 327.420,120.800 327.200 C 120.800 326.980,121.340 326.800,122.000 326.800 C 122.660 326.800,123.200 326.620,123.200 326.400 C 123.200 326.180,123.650 326.000,124.200 326.000 C 124.822 326.000,125.200 325.773,125.200 325.400 C 125.200 325.067,125.556 324.800,126.000 324.800 C 126.440 324.800,126.800 324.620,126.800 324.400 C 126.800 324.180,127.340 324.000,128.000 324.000 C 128.660 324.000,129.200 323.820,129.200 323.600 C 129.200 323.380,129.560 323.200,130.000 323.200 C 130.440 323.200,130.800 323.020,130.800 322.800 C 130.800 322.580,131.160 322.400,131.600 322.400 C 132.040 322.400,132.400 322.220,132.400 322.000 C 132.400 321.780,132.760 321.600,133.200 321.600 C 133.640 321.600,134.000 321.420,134.000 321.200 C 134.000 320.980,134.320 320.800,134.712 320.800 C 135.103 320.800,135.683 320.440,136.000 320.000 C 136.317 319.560,136.810 319.200,137.096 319.200 C 137.772 319.200,142.800 314.172,142.800 313.496 C 142.800 313.210,143.160 312.717,143.600 312.400 C 144.040 312.083,144.400 311.543,144.400 311.200 C 144.400 310.857,144.760 310.317,145.200 310.000 C 145.640 309.683,146.000 309.103,146.000 308.712 C 146.000 308.320,146.180 308.000,146.400 308.000 C 146.620 308.000,146.800 307.640,146.800 307.200 C 146.800 306.760,146.980 306.400,147.200 306.400 C 147.420 306.400,147.600 306.040,147.600 305.600 C 147.600 305.160,147.780 304.800,148.000 304.800 C 148.220 304.800,148.400 304.440,148.400 304.000 C 148.400 303.560,148.580 303.200,148.800 303.200 C 149.020 303.200,149.200 302.840,149.200 302.400 C 149.200 301.960,149.380 301.600,149.600 301.600 C 149.820 301.600,150.000 301.240,150.000 300.800 C 150.000 300.360,150.180 300.000,150.400 300.000 C 150.620 300.000,150.800 299.640,150.800 299.200 C 150.800 298.760,150.980 298.400,151.200 298.400 C 151.420 298.400,151.600 297.860,151.600 297.200 C 151.600 296.540,151.780 296.000,152.000 296.000 C 152.220 296.000,152.400 295.640,152.400 295.200 C 152.400 294.760,152.580 294.400,152.800 294.400 C 153.020 294.400,153.200 293.860,153.200 293.200 C 153.200 292.540,153.380 292.000,153.600 292.000 C 153.820 292.000,154.000 291.280,154.000 290.400 C 154.000 289.520,154.180 288.800,154.400 288.800 C 154.620 288.800,154.800 288.260,154.800 287.600 C 154.800 286.940,154.980 286.400,155.200 286.400 C 155.420 286.400,155.600 285.680,155.600 284.800 C 155.600 283.920,155.780 283.200,156.000 283.200 C 156.220 283.200,156.400 282.480,156.400 281.600 C 156.400 280.720,156.580 280.000,156.800 280.000 C 157.020 280.000,157.200 279.460,157.200 278.800 C 157.200 278.140,157.380 277.600,157.600 277.600 C 157.820 277.600,158.000 276.970,158.000 276.200 C 158.000 275.430,158.180 274.800,158.400 274.800 C 158.620 274.800,158.800 274.440,158.800 274.000 C 158.800 273.560,158.980 273.200,159.200 273.200 C 159.420 273.200,159.600 272.660,159.600 272.000 C 159.600 271.340,159.780 270.800,160.000 270.800 C 160.220 270.800,160.400 270.440,160.400 270.000 C 160.400 269.560,160.580 269.200,160.800 269.200 C 161.020 269.200,161.200 268.912,161.200 268.560 C 161.200 268.209,161.740 267.417,162.400 266.800 C 163.530 265.745,163.600 265.501,163.600 262.640 C 163.600 260.880,163.768 259.600,164.000 259.600 C 164.264 259.600,164.400 243.733,164.400 212.800 C 164.400 181.867,164.536 166.000,164.800 166.000 C 165.052 166.000,165.200 163.333,165.200 158.800 C 165.200 154.267,165.052 151.600,164.800 151.600 C 164.537 151.600,164.400 142.200,164.400 124.200 C 164.400 106.200,164.263 96.800,164.000 96.800 C 163.780 96.800,163.600 96.080,163.600 95.200 C 163.600 94.320,163.420 93.600,163.200 93.600 C 162.980 93.600,162.800 92.880,162.800 92.000 C 162.800 91.120,162.620 90.400,162.400 90.400 C 162.180 90.400,162.000 89.860,162.000 89.200 C 162.000 88.540,161.820 88.000,161.600 88.000 C 161.380 88.000,161.200 87.356,161.200 86.569 C 161.200 85.422,160.882 84.832,159.600 83.600 C 158.720 82.754,158.000 81.860,158.000 81.612 C 158.000 81.364,156.740 79.919,155.200 78.400 C 153.660 76.881,152.400 75.535,152.400 75.409 C 152.400 74.985,148.827 71.600,148.379 71.600 C 148.136 71.600,147.246 70.880,146.400 70.000 C 145.554 69.120,144.651 68.400,144.392 68.400 C 144.133 68.400,143.417 67.860,142.800 67.200 C 142.183 66.540,141.431 66.000,141.128 66.000 C 140.825 66.000,140.317 65.640,140.000 65.200 C 139.683 64.760,139.143 64.400,138.800 64.400 C 138.457 64.400,137.917 64.040,137.600 63.600 C 137.282 63.159,136.565 62.800,136.000 62.800 C 135.435 62.800,134.718 63.159,134.400 63.600 " stroke="none" fill="#2885c8" fill-rule="evenodd" /></g></svg>