<?xml version="1.0" encoding="utf-8"?><svg version="1.1" id="prefix__Layer_1" xmlns="http://www.w3.org/2000/svg" x="0" y="0" viewBox="0 0 48 48" xml:space="preserve"><style>.prefix__st0{fill:#1098db}</style><circle class="prefix__st0" cx="24" cy="24" r="24"/><circle cx="24" cy="24" r="19.8" fill="#fff"/><path class="prefix__st0" d="M24.1 45.9c-2.8 0-5.5-.7-8.1-1.7-2-.7-3.8-1.8-5.5-3.1-2.4-1.7-4.3-4-5.7-6.6-1.2-2.2-2.2-4.4-2.5-6.9-.2-1.7-.1-3.4-.2-5.1 0-.7 0-1.5.2-2.2.4-2.1 1-4.1 2-5.9.6-1.2 1.3-2.3 2-3.3 1.9-2.8 4.5-5 7.4-6.6 2.3-1.3 4.9-2 7.6-2.3 4.7-.6 9.1.3 13.2 2.5 2.3 1.3 4.2 3 6 5 1.1 1.3 2.1 2.7 2.9 4.2 1 1.8 1.8 3.6 2.1 5.6.3 1.7.4 3.4.4 5.1 0 3.9-1.2 7.6-3.2 10.9-2.2 3.6-5.2 6.3-8.9 8.1-3.1 1.6-6.3 2.4-9.7 2.3zm-9.6-5c3.3-.8 6.7-1.3 9.8-2.4 3.2-1 6.5-1.7 9.7-2.8V18.5h2.3c.5-1.3.3-2.5.1-3.8h.8c.6.1 1-.2 1-.8v-2.4c0-.5-.3-.7-.8-.6H10.5c-.4 0-.6.1-.6.5-.2.9-.1 1.7-.1 2.5.1.6.4.8 1 .7h1c-.2 1.3-.4 2.5.1 3.7h2.5l.1 22.6z"/><path class="prefix__st0" d="M21.3 19.9h1.9c0 .3.1.5.1.7v15.2c0 .9-.2 1.1-1 1.1s-1-.2-1-1V20.2c-.1 0-.1-.1 0-.3zM17.3 28.7v-8c0-.9.2-1 1-1s1 .2 1 .9v16.2c0 1-.6 1.4-1.6 1.1-.4-.2-.4-.5-.4-.9v-5.3-3zM25.2 27.7v-7c0-.3-.2-.8.3-.9.4-.1 1-.1 1.4.1.2 0 .2.5.2.8V34.8c0 .9-.3 1.2-1.1 1.1-.7-.1-.8-.2-.8-.9-.1-2.4 0-4.9 0-7.3zM31 27.3v6.6c0 .9-.8 1.4-1.6 1-.1-.1-.3-.3-.3-.4-.1-.2 0-.4 0-.7V20.9c0-1 .2-1.1 1.1-1.1.8 0 .9.1.9.9-.1 2.1-.1 4.4-.1 6.6z"/></svg>