<?xml version="1.0" encoding="utf-8"?><svg version="1.1" id="prefix__Layer_1" xmlns="http://www.w3.org/2000/svg" x="0" y="0" viewBox="0 0 48 48" xml:space="preserve"><style>.prefix__st0{fill-rule:evenodd;clip-rule:evenodd;fill:#35455b}.prefix__st1{fill:#f47821;stroke:#f47821;stroke-width:2;stroke-miterlimit:10}</style><path class="prefix__st0" d="M34.7 11.4L6.3 18.7.8 16.8c-.2-.1-.5 0-.6.3v.2L0 28.5c0 .2.1.3.2.4s.3.1.4.1l5.6-1.8 3.3.9v6.2c0 .2.2.4.4.5l9.5 2h.1c.3 0 .5-.2.5-.5V31l14.6 4h.1c.1 0 .2 0 .3-.1s.2-.2.2-.4l.2-22.6c0-.3-.2-.5-.5-.5h-.2M18.9 35.6l-8.5-1.8v-5.5l8.5 2.3v5z"/><path class="prefix__st1" d="M46.1 23.7h-5.7c-.3 0-.5-.2-.5-.5s.2-.5.5-.5h5.7c.3 0 .5.2.5.5s-.2.5-.5.5M46.5 12.3l-5.8 3.8c-.2.1-.5.1-.7-.1-.1-.2-.1-.5.1-.7l5.8-3.8c.2-.1.5-.1.7.1.2.2.1.5-.1.7M45.8 35L40 31.1c-.2-.2-.3-.5-.1-.7.2-.2.5-.3.7-.1l5.8 3.9c.2.2.3.5.1.7-.2.2-.5.2-.7.1"/><path class="prefix__st0" d="M9.9 27.5v6.8l9.3 1.9.6-7.2z"/></svg>