<?xml version="1.0" encoding="utf-8" standalone="no"?><svg width="21" height="21" xmlns="http://www.w3.org/2000/svg" preserveAspectRatio="xMidYMid meet" class="header"><metadata id="metadata8140"/><style type="text/css">.invert .text {fill: #FFF;} .Storefront_2017_B2P_variant_1.header .img {fill:#FFF} .b2p-yellow-header.header .img {fill:#FFF} .text{fill:	#00355F;} .img{fill:	#EEC218;} .invert .img {fill:none;}</style><g><title>background</title><rect fill="none" id="canvas_background" height="23" width="23" y="-1" x="-1"/></g><g><title>Layer 1</title><g id="logo" class="text"><g id="g8095"><g id="g8125"><path id="path8127" d="m12.17782,8.013l-0.367,-1.041l-3.119,-4.167l0.56,-0.14l5.377,4.648l3.164,-0.906c0.372,-0.095 0.793,-0.116 1.115,-0.114c-0.994,-2.145 -2.814,-3.905 -5.216,-4.761c-4.75,-1.693 -9.972,0.789 -11.662,5.54c-0.522,1.471 -0.646,2.987 -0.426,4.429l7.579,-2.632l2.995,-0.856z"/><path id="path8129" d="m19.24182,7.115c-0.278,0.18 -0.686,0.417 -1.091,0.547l-3.171,0.905l-2.116,6.792l-0.55,0.179l0.448,-5.187l-0.25,-1.078l-2.97,0.848l-7.854,1.849c0.623,3.021 2.762,5.654 5.881,6.766c4.75,1.693 9.97,-0.789 11.66,-5.538c0.728,-2.048 0.681,-4.181 0.013,-6.083z"/><path id="path8131" d="m12.51282,9.272l0.25,1.078l-0.448,5.187l0.55,-0.179l2.116,-6.792l3.171,-0.905c0.405,-0.129 0.813,-0.367 1.091,-0.547c-0.098,-0.279 -0.209,-0.553 -0.333,-0.821c-0.322,-0.002 -0.743,0.019 -1.115,0.114l-3.164,0.906l-5.379,-4.648l-0.56,0.14l3.119,4.167l0.367,1.041l-2.995,0.856l-7.579,2.632c0.024,0.157 0.051,0.314 0.083,0.469l7.855,-1.849l2.971,-0.849z" class="img"/></g></g></g></g></svg>