<?xml version="1.0" encoding="utf-8"?><svg xmlns="http://www.w3.org/2000/svg" viewBox="0 0 48 48"><path d="M24 0c13.2 0 23.8 10.7 23.8 24S37.2 48 24 48 .2 37.3.2 24 10.8 0 24 0zm-.2 8.8c-8.3 0-15 6.8-15 15.1S15.5 39 23.8 39s15-6.8 15-15.1-6.7-15.1-15-15.1zm3 4.9c2.5 0 5.8 1 5.8 4 0 5.4-8.4 7.2-12.5 8.3-.1.9-.3 1.8-.3 2.7 0 1.9 1 3.6 3 3.6 2.7 0 4.8-2.6 6.4-4.5l1.2.9c-2.2 3.3-5.2 6.2-9.3 6.2-4.3 0-6.8-2.7-6.8-7.1-.1-7.1 5.1-14.1 12.5-14.1zm-.5 1.4c-3.4 0-5.2 6.7-5.8 9.3 3.2-1 7.6-3.6 7.6-7.4-.1-1.1-.7-1.9-1.8-1.9z"/></svg>