<?xml version="1.0" encoding="UTF-8" standalone="no"?><svg xmlns="http://www.w3.org/2000/svg" version="1.1" viewBox="0 0 33.068863 29.999999"><path id="path24" d="m 8.2896396,29.929145 c 0.099482,-0.02592 0.237514,-0.02422 0.3067379,0.0038 0.069224,0.02801 -0.01217,0.04922 -0.1808764,0.04713 -0.1687058,-0.0021 -0.2253436,-0.025 -0.1258615,-0.05092 z M 3.2390376,27.77615 c -0.1271808,-0.162168 -0.1235643,-0.165784 0.038603,-0.0386 0.098412,0.07718 0.1789305,0.157699 0.1789305,0.178931 0,0.08415 -0.083963,0.02999 -0.217534,-0.140327 z M 2.114332,26.651445 c -0.1271808,-0.162169 -0.1235644,-0.165785 0.038603,-0.0386 0.098412,0.07718 0.1789305,0.157699 0.1789305,0.17893 0,0.08415 -0.083963,0.02999 -0.2175339,-0.140326 z m 3.8042148,-2.948092 c 0.00491,-0.119112 0.029134,-0.143339 0.061774,-0.06177 0.029536,0.07381 0.025903,0.161995 -0.00807,0.195972 -0.033976,0.03397 -0.058141,-0.02642 -0.053702,-0.134198 z m 0.102246,-0.613476 c 0.00491,-0.119111 0.029134,-0.143339 0.061774,-0.06177 0.029536,0.07381 0.025903,0.161995 -0.00807,0.195972 -0.033975,0.03397 -0.058141,-0.02641 -0.053702,-0.134198 z m 6.4414972,0 c 0.0049,-0.119111 0.02913,-0.143339 0.06177,-0.06177 0.02953,0.07381 0.0259,0.161995 -0.0081,0.195972 -0.03398,0.03397 -0.05814,-0.02641 -0.0537,-0.134198 z m -0.102246,-0.613476 c 0.0049,-0.119111 0.02913,-0.143338 0.06177,-0.06177 0.02953,0.07381 0.0259,0.161996 -0.0081,0.195972 -0.03398,0.03397 -0.05814,-0.02641 -0.0537,-0.134198 z m -0.102246,-0.613476 c 0.0049,-0.119111 0.02913,-0.143338 0.06177,-0.06177 0.02954,0.07381 0.0259,0.161996 -0.0081,0.195972 -0.03398,0.03397 -0.05814,-0.02641 -0.0537,-0.134198 z m 6.245075,-0.247094 c 0,-0.140588 0.02321,-0.198102 0.05157,-0.127808 0.02836,0.07029 0.02836,0.185321 0,0.255615 -0.02836,0.07029 -0.05157,0.01278 -0.05157,-0.127807 z M 1.4131082e-4,21.462462 C 0.00222509,21.293756 0.02514031,21.237119 0.0510641,21.336601 c 0.02592379,0.09948 0.02421891,0.237514 -0.0037886,0.306737 -0.02800753,0.06922 -0.04921791,-0.01217 -0.0471341692,-0.180876 z m 0,-1.533689 C 0.00222509,19.760067 0.02514031,19.703429 0.0510641,19.802911 c 0.02592379,0.09948 0.02421891,0.237514 -0.0037886,0.306738 -0.02800753,0.06922 -0.04921791,-0.01217 -0.0471341692,-0.180876 z M 18.502873,19.775404 c 0,-0.140589 0.02321,-0.198102 0.05157,-0.127808 0.02836,0.07029 0.02836,0.185321 0,0.255615 -0.02836,0.07029 -0.05157,0.01278 -0.05157,-0.127807 z m -4.105982,-0.153369 c 0.132076,-0.140589 0.263143,-0.255615 0.291261,-0.255615 0.02812,0 -0.05694,0.115026 -0.189015,0.255615 -0.132077,0.140588 -0.263144,0.255615 -0.291261,0.255615 -0.02812,0 0.05694,-0.115027 0.189015,-0.255615 z M 3.9547594,19.494227 c -0.1271808,-0.162168 -0.1235643,-0.165784 0.038604,-0.0386 0.170316,0.133571 0.2244789,0.217534 0.140327,0.217534 -0.021232,0 -0.1017507,-0.08052 -0.1789305,-0.178931 z m 0.7095927,-0.913375 c 0.073809,-0.02954 0.1619959,-0.0259 0.1959715,0.0081 0.033975,0.03397 -0.026414,0.05814 -0.1341979,0.0537 -0.1191107,-0.0049 -0.1433386,-0.02913 -0.061774,-0.06177 z m 9.0998919,0 c 0.07381,-0.02954 0.161995,-0.0259 0.195972,0.0081 0.03397,0.03397 -0.02642,0.05814 -0.134198,0.0537 -0.119112,-0.0049 -0.143339,-0.02913 -0.06177,-0.06177 z M 5.3800739,18.478606 c 0.073809,-0.02954 0.1619959,-0.0259 0.1959714,0.0081 0.033976,0.03398 -0.026414,0.05814 -0.1341978,0.0537 -0.1191107,-0.0049 -0.1433386,-0.02913 -0.061774,-0.06177 z m 7.6684481,0 c 0.07381,-0.02954 0.161995,-0.0259 0.195972,0.0081 0.03397,0.03398 -0.02641,0.05814 -0.134198,0.0537 -0.119111,-0.0049 -0.143339,-0.02913 -0.06177,-0.06177 z M 6.0957957,18.37636 c 0.073809,-0.02954 0.1619959,-0.0259 0.1959714,0.0081 0.033975,0.03398 -0.026414,0.05814 -0.1341978,0.0537 -0.1191107,-0.0049 -0.1433386,-0.02913 -0.061774,-0.06177 z m 6.2370043,0 c 0.07381,-0.02954 0.161996,-0.0259 0.195972,0.0081 0.03397,0.03398 -0.02641,0.05814 -0.134198,0.0537 -0.119111,-0.0049 -0.143338,-0.02913 -0.06177,-0.06177 z M 6.8115174,18.274114 c 0.073809,-0.02954 0.161996,-0.0259 0.1959715,0.0081 0.033975,0.03397 -0.026414,0.05814 -0.1341978,0.0537 -0.1191107,-0.0049 -0.1433386,-0.02913 -0.061774,-0.06177 z m 4.8055606,0 c 0.07381,-0.02954 0.161996,-0.0259 0.195972,0.0081 0.03398,0.03397 -0.02641,0.05814 -0.134198,0.0537 -0.119111,-0.0049 -0.143338,-0.02913 -0.06177,-0.06177 z m -9.59195,-3.44512 c 0,-0.02123 0.080519,-0.101751 0.1789304,-0.178931 0.1621679,-0.127181 0.1657843,-0.123564 0.038603,0.0386 -0.133571,0.170316 -0.2175339,0.224479 -0.2175339,0.140327 z m 1.1247056,-1.124706 c 0,-0.02123 0.080519,-0.101751 0.1789305,-0.178931 0.1621678,-0.12718 0.1657843,-0.123564 0.038604,0.0386 -0.133571,0.170316 -0.217534,0.224479 -0.2175345,0.140328 z m 5.242052,-2.281663 c 0.099482,-0.02592 0.237514,-0.02422 0.3067379,0.0038 0.069224,0.02801 -0.012171,0.04922 -0.1808764,0.04713 -0.1687059,-0.0021 -0.2253436,-0.025 -0.1258615,-0.05092 z m 1.5336897,0 c 0.099483,-0.02592 0.2375147,-0.02422 0.3067377,0.0038 0.06922,0.02801 -0.01217,0.04922 -0.180876,0.04713 -0.1687058,-0.0021 -0.225344,-0.025 -0.1258617,-0.05092 z" style="fill:#f39360;stroke-width:0.10224597" /><path id="path20" d="M 13.49484,29.887656 C 7.6306323,29.284581 2.5504087,25.19478 0.7729764,19.646 -2.1488285,10.524726 3.8972359,1.1496483 13.383606,0.09185526 19.778142,-0.62117774 25.900172,2.8680236 28.633157,8.7832111 30.708891,13.275867 30.255917,19.192968 27.53332,23.150129 l -0.532992,0.774677 3.034268,3.037597 L 33.068864,30 23.570969,29.97357 c -5.22384,-0.01455 -9.7581,-0.05321 -10.076129,-0.08589 z m -0.972207,-8.437268 2.459096,-1.280376 2.459097,1.280376 c 1.352503,0.704207 2.570082,1.280376 2.705733,1.280376 0.63765,0 0.658338,-0.383816 0.178693,-3.31501 l -0.464305,-2.83743 2.02106,-1.952017 c 2.046636,-1.976722 2.33949,-2.45214 1.716029,-2.785806 -0.167767,-0.08978 -1.494036,-0.32941 -2.947264,-0.532499 L 18.008538,10.938749 16.701646,8.3677503 c -1.752236,-3.4471077 -1.687597,-3.4471077 -3.439833,0 l -1.306892,2.5709987 -2.6422344,0.369253 c -1.4532287,0.203089 -2.7794973,0.442714 -2.9472631,0.532499 -0.6048543,0.323708 -0.3143572,0.791153 1.7322538,2.787405 l 2.0372827,1.987153 -0.4871518,2.811082 c -0.5048359,2.913125 -0.4848039,3.304623 0.1690909,3.304623 0.1356502,0 1.3532309,-0.576169 2.7057339,-1.280376 z" style="fill:#ef6921;stroke-width:0.16520989" /></svg>