<?xml version="1.0" encoding="utf-8" standalone="no"?><svg id="icon" height="30" viewBox="0 0 300 400" width="30" xmlns="http://www.w3.org/2000/svg"><path d="M243.4,312c-6.5-10.2-18.7-15.1-30.5-12.3c-14.6,3.6-29.6,5.8-44.6,6.7c-2.9,0.2-5.8,0.3-8.7,0.4h-2.5 l51.4,86.4c2.5,4.2,7.1,6.8,12,6.8H300L243.4,312z" fill="#eb145f"></path><path d="M283.8,141.6C285.1,63.6,222.4,0,144.8,0H7.6C3.4,0,0.1,3.3,0.1,7.5c0,0,0,0,0,0L0,392.5 c0,4.1,3.3,7.5,7.4,7.5c0,0,0,0,0,0h59.1c4.1,0,7.4-3.3,7.4-7.5V68.6h68.9c35.6,0,67,25.7,71.8,61c5.6,41.2-25.3,75.9-63,80 c-53.6,5.9-63.9,49.5-63.9,68.7l54.8,0.1C218.8,278.4,282.6,217.9,283.8,141.6z" fill="#eb145f"></path></svg>