<?xml version="1.0" encoding="utf-8"?><svg version="1.1" id="prefix__Layer_1" xmlns="http://www.w3.org/2000/svg" x="0" y="0" viewBox="0 0 48 48" xml:space="preserve"><style></style><g id="prefix__Layer_1_1_"><radialGradient id="prefix__SVGID_1_" cx="-496.912" cy="-1276.83" r="116.904" gradientTransform="matrix(-.2386 .3716 -.1158 -.4004 -254.381 -327.887)" gradientUnits="userSpaceOnUse"><stop offset=".309" stop-color="#dedede"/><stop offset=".392" stop-color="#9e9e9e"/><stop offset=".522" stop-color="#3f3f3f"/><stop offset=".581" stop-color="#1a1a1a"/><stop offset=".609" stop-color="#202020"/><stop offset=".834" stop-color="#4d4d4d"/></radialGradient><path d="M4.8 21.7c0-8.7 5-16.3 12.4-20.1C7.4 4.5.2 13.5.2 24 .2 36.9 10.8 47.3 24 47.3c5.9 0 11.3-2.1 15.4-5.5-3.3 1.7-7.1 2.7-11.2 2.7-12.9 0-23.4-10.2-23.4-22.8z" fill="url(#prefix__SVGID_1_)"/><radialGradient id="prefix__SVGID_00000183969602321570538880000017049856637111723653_" cx="139.923" cy="704.392" r="132.822" gradientTransform="matrix(.2874 0 0 .6667 -16.382 -507.357)" gradientUnits="userSpaceOnUse"><stop offset="0" stop-color="#dedede"/><stop offset=".609" stop-color="#dedede"/><stop offset=".659" stop-color="#bfbfbf"/><stop offset=".767" stop-color="#717171"/><stop offset=".896" stop-color="#0d0d0d"/><stop offset=".908" stop-color="#131313"/><stop offset=".925" stop-color="#262626"/><stop offset=".946" stop-color="#444"/><stop offset=".951" stop-color="#4d4d4d"/></radialGradient><path d="M47.8 24C47.8 11.1 37.1.7 24 .7c-2.4 0-4.7.3-6.8 1-7.4 3.8-12.4 11.4-12.4 20 0 12.6 10.5 22.8 23.5 22.8 4.1 0 7.8-1 11.2-2.7 5-4.3 8.3-10.7 8.3-17.8z" fill="url(#prefix__SVGID_00000183969602321570538880000017049856637111723653_)"/><ellipse cx="24" cy="24" rx="20" ry="19.7" fill="#490f71"/><radialGradient id="prefix__eyebrow_shadow_right_00000078763790534984043180000004130966815068861591_" cx="-1129.055" cy="364.919" r="21.3" fx="-1129.066" fy="364.919" gradientTransform="matrix(-.00486 -.6666 .4729 -.0186 -141.839 -729.696)" gradientUnits="userSpaceOnUse"><stop offset="0" stop-opacity=".3"/><stop offset="1" stop-opacity="0"/></radialGradient><ellipse id="prefix__eyebrow_shadow_right_2_" cx="24.1" cy="24.1" rx="19.5" ry="18.7" fill="url(#prefix__eyebrow_shadow_right_00000078763790534984043180000004130966815068861591_)"/><radialGradient id="prefix__lower_left_rim_shadow_00000104665405163525730650000010831070163429852605_" cx="889.399" cy="-862.427" r="38.009" fx="882.779" fy="-841.667" gradientTransform="matrix(.0009 .6667 .731 -.00527 659.17 -578.357)" gradientUnits="userSpaceOnUse"><stop offset=".957" stop-opacity="0"/><stop offset=".99" stop-opacity=".33"/></radialGradient><path id="prefix__lower_left_rim_shadow" d="M28.6 40.7c3.2 0 5.9-.9 8.3-2.5-3.4 2.9-7.9 4.6-12.8 4.6-10.8 0-19.5-8.4-19.5-18.7 0-1.3.1-2.5.4-3.7.1 14.2 13.1 20.3 23.6 20.3z" fill="url(#prefix__lower_left_rim_shadow_00000104665405163525730650000010831070163429852605_)"/><radialGradient id="prefix__bottom_right_glow_00000078041115880573470170000013699518421174332316_" cx="-1125.653" cy="350.464" r="36.893" gradientTransform="matrix(-.00028 -.6667 .5881 -.00133 -171.734 -704.465)" gradientUnits="userSpaceOnUse"><stop offset="0" stop-color="#fcf" stop-opacity=".2"/><stop offset="1" stop-color="#fcf" stop-opacity="0"/></radialGradient><ellipse id="prefix__bottom_right_glow_2_" cx="24.1" cy="24.1" rx="19.5" ry="18.7" fill="url(#prefix__bottom_right_glow_00000078041115880573470170000013699518421174332316_)"/><radialGradient id="prefix__lower_right_rim_light_00000010284321925907041190000009624651589904802750_" cx="349.618" cy="-1302.907" r="32.73" fx="343.918" fy="-1285.03" gradientTransform="matrix(-.0009 .6667 -.731 -.00527 -931.624 -217.433)" gradientUnits="userSpaceOnUse"><stop offset=".97" stop-color="#fff2ff" stop-opacity="0"/><stop offset=".99" stop-color="#fff2ff" stop-opacity=".5"/></radialGradient><path id="prefix__lower_right_rim_light" d="M19.6 40.7c-3.2 0-5.9-.9-8.3-2.5 3.4 2.9 7.9 4.6 12.8 4.6 10.8 0 19.5-8.4 19.5-18.7 0-1.3-.1-2.5-.4-3.7-.2 14.2-13.1 20.3-23.6 20.3z" fill="url(#prefix__lower_right_rim_light_00000010284321925907041190000009624651589904802750_)"/><radialGradient id="prefix__top_left_glow_circle_00000006703837785455769280000014587517408225689502_" cx="314.435" cy="-254.198" r="40.906" fx="311.413" fy="-254.644" gradientTransform="matrix(.00615 .6666 -.5475 .0272 -126.61 -191.987)" gradientUnits="userSpaceOnUse"><stop offset="0" stop-color="#9042c1"/><stop offset=".186" stop-color="#8a3dbd" stop-opacity=".861"/><stop offset=".43" stop-color="#7a2fb1" stop-opacity=".678"/><stop offset=".601" stop-color="#6a22a6" stop-opacity=".55"/><stop offset="1" stop-color="#6a22a6" stop-opacity="0"/></radialGradient><ellipse id="prefix__top_left_glow_circle_2_" cx="24.1" cy="24.1" rx="19.5" ry="18.7" fill="url(#prefix__top_left_glow_circle_00000006703837785455769280000014587517408225689502_)"/><radialGradient id="prefix__top_left_rim_eyebrow_00000011007704488448103490000016523475621234224815_" cx="-1151.608" cy="273.487" r="33.063" fx="-1161.966" fy="277.509" gradientTransform="matrix(.0009 -.6667 .7225 .0052 -169.978 -742.28)" gradientUnits="userSpaceOnUse"><stop offset=".885" stop-color="#fff" stop-opacity="0"/><stop offset="1" stop-color="#fff" stop-opacity=".7"/></radialGradient><path id="prefix__top_left_rim_eyebrow" d="M28.6 7.5c3.2 0 5.9.9 8.3 2.5-3.4-2.9-7.9-4.6-12.8-4.6-10.8 0-19.5 8.4-19.5 18.7 0 1.3.1 2.5.4 3.7.2-14.2 13.1-20.3 23.6-20.3z" fill="url(#prefix__top_left_rim_eyebrow_00000011007704488448103490000016523475621234224815_)"/><linearGradient id="prefix__SVGID_00000094578003848973108050000004627951060935600542_" gradientUnits="userSpaceOnUse" x1="35.853" y1="809.23" x2="17.686" y2="785.747" gradientTransform="translate(0 -769.89)"><stop offset="0" stop-color="#231f20" stop-opacity="0"/><stop offset="1" stop-color="#231f20" stop-opacity=".3"/></linearGradient><path d="M43.9 24c0 10.8-8.9 19.5-19.9 19.5S4 34.8 4 24 12.9 4.5 24 4.5c11 0 19.9 8.7 19.9 19.5zM24.1 5.4c-10.8 0-19.5 8.4-19.5 18.7 0 10.3 8.7 18.7 19.5 18.7s19.5-8.4 19.5-18.7S34.9 5.4 24.1 5.4z" fill="url(#prefix__SVGID_00000094578003848973108050000004627951060935600542_)"/><radialGradient id="prefix__inner_ring-gradient_00000004541353916671726030000007199183851475336845_" cx="140.058" cy="40.27" r="86.718" fx="140.984" fy="39.459" gradientTransform="matrix(.2874 0 0 .6667 -16.382 5.94)" gradientUnits="userSpaceOnUse"><stop offset=".302" stop-color="#666"/><stop offset=".476" stop-color="#626262"/><stop offset=".646" stop-color="#565656"/><stop offset=".74" stop-color="#4d4d4d"/><stop offset=".749" stop-color="#424242"/><stop offset=".781" stop-color="#252525"/><stop offset=".809" stop-color="#131313"/><stop offset=".829" stop-color="#0d0d0d"/><stop offset=".84" stop-color="#131313"/><stop offset=".856" stop-color="#252525"/><stop offset=".874" stop-color="#424242"/><stop offset=".893" stop-color="#6a6a6a"/><stop offset=".912" stop-color="#999"/><stop offset=".944" stop-color="#b8b8b8"/><stop offset="1" stop-color="#f7f7f7"/></radialGradient><path id="prefix__inner_ring-gradient" d="M24 45.3c12 0 21.7-9.6 21.7-21.4S36 2.5 24 2.5C12 2.6 2.2 12.1 2.2 24 2.2 35.8 12 45.3 24 45.3zM44.4 24c0 10.9-9.1 19.9-20.4 19.9S3.6 35 3.6 24 12.7 4.1 24 4.1C35.3 4.1 44.4 13 44.4 24z" fill="url(#prefix__inner_ring-gradient_00000004541353916671726030000007199183851475336845_)"/><radialGradient id="prefix__outer_ring-rim_shadow_00000065066121344532265810000009205107876229129654_" cx="141.856" cy="26.47" r="66.084" fx="138.779" fy="20.154" gradientTransform="matrix(.2874 0 0 .6667 -16.382 5.94)" gradientUnits="userSpaceOnUse"><stop offset=".898" stop-color="#4d4d4d" stop-opacity="0"/><stop offset="1" stop-color="#4d4d4d"/></radialGradient><path id="prefix__outer_ring-rim_shadow" d="M47.8 24c0 12.9-10.6 23.3-23.8 23.3S.2 36.9.2 24 10.9.7 24 .7 47.8 11.1 47.8 24zm-45.9-.1c0 12.1 9.9 22 22.2 22s22.2-9.9 22.2-22-9.9-22-22.2-22c-12.3 0-22.2 9.8-22.2 22z" fill="url(#prefix__outer_ring-rim_shadow_00000065066121344532265810000009205107876229129654_)"/><radialGradient id="prefix__outer_ring-rim_highlight_00000040541535976120639560000004852180246569962121_" cx="139.986" cy="26.448" r="61.147" fx="127.246" fy="6.898" gradientTransform="matrix(.2874 0 0 .6667 -16.382 5.94)" gradientUnits="userSpaceOnUse"><stop offset=".941" stop-color="#fff" stop-opacity=".8"/><stop offset="1" stop-color="#fff" stop-opacity="0"/></radialGradient><path id="prefix__outer_ring-rim_highlight" d="M47.8 24c0 12.9-10.6 23.3-23.8 23.3S.2 36.9.2 24 10.9.7 24 .7 47.8 11.1 47.8 24zm-45.9-.1c0 12.1 9.9 22 22.2 22s22.2-9.9 22.2-22-9.9-22-22.2-22c-12.3 0-22.2 9.8-22.2 22z" fill="url(#prefix__outer_ring-rim_highlight_00000040541535976120639560000004852180246569962121_)"/><path d="M44.4 24c0 11-9.2 20-20.5 20S3.5 35 3.5 24 12.7 4 24 4s20.4 8.9 20.4 20zM24 4.5C12.9 4.5 4 13.2 4 24s9 19.5 20 19.5S43.9 34.8 43.9 24 35 4.5 24 4.5z" fill="#ccc"/><path d="M24 1.9c12.2 0 22.2 9.9 22.2 22s-9.9 22-22.2 22S1.9 36 1.9 23.9s9.9-22 22.1-22zm0 43.3c12 0 21.7-9.5 21.7-21.3S35.9 2.7 24 2.7 2.3 12.2 2.3 24C2.3 35.7 12 45.2 24 45.2z" fill="#fff"/><path d="M26.7 14.6c2.7 0 5.2.8 7.7 2.3l-2.1 5.2c-1.7-1.3-3.2-1.9-4.8-1.9-3.6 0-6 2.5-6 5.2 0 2.9 1.9 4.7 4.5 4.7 1.8 0 3.4-.5 5.2-1.7l1 5.5c-2.6 1.2-4.8 1.9-7.1 1.9-6.1 0-10.1-4-10.1-9.6-.2-6.5 4.7-11.6 11.7-11.6z" opacity=".4"/><linearGradient id="prefix__SVGID_00000085970286468202257130000011146258584417637801_" gradientUnits="userSpaceOnUse" x1="23.245" y1="13.358" x2="23.245" y2="34.352"><stop offset=".611" stop-color="#fff"/><stop offset=".791" stop-color="#e0e0e0"/></linearGradient><path d="M25.3 13.2c2.7 0 5.2.8 7.7 2.3l-2.1 5.2c-1.7-1.3-3.2-1.9-4.8-1.9-3.6 0-6 2.5-6 5.2 0 2.9 1.9 4.7 4.5 4.7 1.8 0 3.4-.5 5.2-1.7l1 5.5c-2.6 1.2-4.8 1.9-7.1 1.9-6.1 0-10.1-4-10.1-9.6-.2-6.5 4.8-11.6 11.7-11.6z" fill="url(#prefix__SVGID_00000085970286468202257130000011146258584417637801_)"/></g></svg>