<?xml version="1.0" encoding="utf-8"?>
<!-- Generator: Adobe Illustrator 28.0.0, SVG Export Plug-In . SVG Version: 6.00 Build 0)  -->
<svg version="1.1" id="Réteg_1" xmlns="http://www.w3.org/2000/svg" xmlns:xlink="http://www.w3.org/1999/xlink" x="0px" y="0px"
	 viewBox="0 0 271.3 258" style="enable-background:new 0 0 271.3 258;" xml:space="preserve">
<style type="text/css">
	.st0{fill-rule:evenodd;clip-rule:evenodd;fill:#828282;}
	.st1{fill-rule:evenodd;clip-rule:evenodd;fill:#FFFFFF;}
</style>
<path class="st0" d="M242.3,258H29c-16,0-29-13-29-29V29C0,13,13,0,29,0h213.3c16,0,29,13,29,29v200C271.3,245,258.3,258,242.3,258z
	"/>
<path class="st1" d="M127.4,57.9c1.2-3.3,4.5-5.6,8.3-5.6c3.7,0,7.1,2.2,8.3,5.6l14.6,40.3c0.6,1.7,1.7,3.1,3.2,4.1s3.3,1.6,5.2,1.6
	l45.3,0.6c3.7,0.1,7,2.3,8.2,5.7c1.2,3.3-0.1,7-3.1,9.1L181,145c-1.5,1-2.6,2.5-3.2,4.2c-0.6,1.7-0.6,3.5,0,5.1l13.4,40.7
	c1.1,3.4-0.2,7-3.2,9.1s-7.1,2.1-10.2,0.1l-37-24.6c-1.5-1-3.3-1.5-5.2-1.5s-3.7,0.5-5.2,1.5l-37,24.6c-3.1,2-7.1,2-10.2-0.1
	c-3-2.1-4.3-5.7-3.2-9.1l13.4-40.7c0.5-1.7,0.5-3.5,0-5.1c-0.6-1.7-1.7-3.1-3.2-4.2L54,119.4c-3-2.1-4.2-5.8-3.1-9.1
	c1.2-3.3,4.4-5.6,8.2-5.7l45.3-0.6c1.9,0,3.7-0.6,5.2-1.6s2.6-2.5,3.2-4.1L127.4,57.9z"/>
</svg>
