<?xml version="1.0" encoding="UTF-8"?><svg xmlns="http://www.w3.org/2000/svg" version="1.1" viewBox="0 0 74.5 81.08" role="presentation"> <path d="M74.5 25.55l.1 30.35s-.54 5.96-4.46 8.4L45.4 78.86s-6.82 5-15.56 0L4.6 64.32S0 61.28 0 55.83v-30.3s-.35-5.38 4.85-8.4l25-14.8s7.4-5.27 15.55 0l23.97 14.8s5.13 2.8 5.13 8.4z" /> <path fill="#FFF" d="M29.78 5.82s4.17-3.03 7.84-2.93c0 0 3.57-.05 7.78 2.83l22.73 13.86S70.7 21.1 71 25.5l.03 30.38s-.6 8.06-7.78 8.16H11.23s-7.75-1.24-7.75-8.22V25.52s-.32-3.82 3.54-6.03L29.78 5.8z" /> <path fill="#F58229" d="M37.62 5.8c2.73 0 7.78 3.1 7.78 3.1l19.76 12.2s2.68 1.08 2.68 4.46v30.28s.45 5.03-4.97 5.03H11.74s-4.4-.44-4.4-5.1V25.55s-.27-3.2 2.23-4.46L29.84 9s5.05-3.2 7.78-3.2z" /> <path fill="#FFF" d="M13 24.28h9.46s2-.1 2 1.27l.06 11.97s.24 1.96-2.1 1.96H13s-2.25-.04-2.25-1.96l.05-11.97s-.2-1.32 2.2-1.27z" /></svg>