<?xml version="1.0" encoding="UTF-8" standalone="no"?><svg xmlns="http://www.w3.org/2000/svg" xmlns:xlink="http://www.w3.org/1999/xlink" width="30pt" height="30pt" viewBox="0 0 30 30" version="1.1"><g id="surface1"><path style=" stroke:none;fill-rule:nonzero;fill:rgb(0%,41.568627%,100%);fill-opacity:1;" d="M 20.285156 8.089844 C 20.433594 8.058594 20.503906 8.105469 20.59375 8.195312 C 21.113281 8.722656 22.773438 10.566406 23.222656 11.070312 C 23.308594 11.160156 23.25 11.261719 23.183594 11.3125 C 19.832031 13.691406 16.105469 17.0625 14.027344 19.472656 C 13.988281 19.527344 14.019531 19.527344 14.054688 19.515625 C 17.671875 18.097656 26.171875 15.835938 30 15.203125 L 30 10.789062 L 15.015625 0 L 0.0117188 10.78125 L 0.0117188 15.605469 C 4.65625 13.089844 15.410156 9.195312 20.285156 8.089844 Z M 20.285156 8.089844 "/><path style=" stroke:none;fill-rule:nonzero;fill:rgb(0%,41.568627%,100%);fill-opacity:1;" d="M 8.089844 26.632812 C 7.964844 26.691406 7.863281 26.675781 7.765625 26.585938 L 4.96875 23.550781 C 4.890625 23.464844 4.882812 23.421875 4.984375 23.292969 C 7.144531 20.410156 11.558594 15.917969 14.371094 14.019531 C 14.421875 13.992188 14.40625 13.953125 14.347656 13.976562 C 11.414062 14.84375 3.082031 18.109375 0 19.695312 L 0 30 L 29.992188 30 L 29.992188 20.074219 C 25.902344 20.707031 13.660156 24.023438 8.089844 26.632812 Z M 8.089844 26.632812 "/></g></svg>