<?xml version="1.0" encoding="UTF-8" standalone="no"?><svg viewBox="0 0 30 30" xmlns="http://www.w3.org/2000/svg"><defs><clipPath id="b"><path d="M0 0h30v30H0z"/></clipPath><filter id="a" filterUnits="objectBoundingBox"><feColorMatrix in="SourceGraphic" values="0 0 0 0 1 0 0 0 0 1 0 0 0 0 1 0 0 0 1 0"/></filter><mask id="c"><g filter="url(#a)"><path d="M0 0h30v30H0z" fill-opacity=".2"/></g></mask></defs><path d="m14.975 24.686-9.19 4.832 1.757-10.229-7.44-7.251 10.278-1.492 4.595-9.315 4.595 9.315 10.274 1.492-7.434 7.25 1.757 10.23zm0 0" fill="#f4db6b"/><path d="M18.835 17.88c0 2.973-3.218 4.831-5.792 3.344a3.859 3.859 0 0 1-1.93-3.344m1.624-3.249a1.143 1.143 0 1 1-2.287 0 1.143 1.143 0 0 1 2.287 0zm6.758 0a1.143 1.143 0 1 1-2.288-.002 1.144 1.144 0 0 1 2.288.002zm0 0" fill="#e98b3e"/><g clip-path="url(#b)" transform="translate(-2.348 -1.867) scale(1.2091)" mask="url(#c)"><path d="m14.328 2.563-3.8 7.703-8.5 1.234 9.816.262zM6.727 25.956l7.601-3.996 7.602 3.996-7.602-6.039zm0 0" fill="#f7941d"/></g></svg>