<?xml version="1.0" encoding="UTF-8" standalone="no"?><svg xmlns="http://www.w3.org/2000/svg" version="1.1" id="svg2" viewBox="0 0 30 30"><g id="g903" transform="matrix(1.9666667,0,0,1.9732438,-0.66666622,-0.89727166)"><path id="path86" d="M 0.33898282,1.336075 1.0169488,0.52251571 14.745763,0.45471911 15.59322,1.336075 l -0.0339,13.355932 -0.949152,0.898305 -13.1186442,0.0678 -1.05084798,-0.932203 z" style="fill:#57abea;fill-opacity:1;stroke:none;stroke-width:1px;stroke-linecap:butt;stroke-linejoin:miter;stroke-opacity:1" /><path id="path88" d="m 6.8217842,3.7656198 v 2.7457627 l -3.033898,0.016949 v 2.8474576 h 2.949152 v 2.9661019 h 2.728814 l 0.0339,-2.9322036 h 2.9661018 l 0.0339,-2.8305085 -2.9152538,0.033898 0.0339,-2.8644067 z" style="fill:#ffffff;fill-opacity:1;stroke:none;stroke-width:1px;stroke-linecap:butt;stroke-linejoin:miter;stroke-opacity:1" /><path id="path90" d="M 1.3319972,14.816237 0.96659085,14.495726 0.93630732,10.557167 C 0.91965139,8.3909594 0.89378421,5.4752518 0.87882472,4.077817 L 0.85162564,1.5370265 1.0539962,1.2916806 1.2563668,1.0463346 7.8948661,1.0105713 14.533365,0.97480798 14.78875,1.2559173 l 0.255385,0.2811092 0.0022,6.4491408 0.0022,6.4491407 -0.323592,0.317509 -0.323591,0.317508 -6.3519761,0.03321 -6.3519762,0.03321 -0.3654064,-0.320511 z m 8.6513373,-2.55276 c 0.017145,-0.336175 0.031261,-0.994144 0.031367,-1.462153 l 1.95e-4,-0.8509252 h 1.486123 1.486122 l 9.6e-5,-0.8988646 c 4.8e-5,-0.4943755 0.01429,-1.3680718 0.0316,-1.9415474 l 0.03149,-1.0426829 h -1.477464 -1.477464 l 0.03249,-1.4142136 0.03251,-1.4142135 H 8.2419803 6.3235598 V 4.5978657 5.9568548 L 5.8127382,5.9881094 C 5.5317861,6.0053 4.8414582,6.0193644 4.2786759,6.0193644 H 3.2554355 v 1.9415475 1.9415474 h 1.4861227 1.4861227 v 1.4861227 1.486123 h 1.8622403 1.8622402 z" style="opacity:0;fill:#4d99d1;fill-opacity:1;stroke:none;stroke-width:0.04793944" /></g><path style="opacity:0;fill:#57abea;fill-opacity:1;stroke:none;stroke-width:0.04793944" d="m -13.262633,24.857154 c -0.01193,-0.03383 -0.02771,-0.623407 -0.03506,-1.310179 -0.01465,-1.369238 -0.03004,-1.445696 -0.315489,-1.567146 -0.08028,-0.03416 -0.611096,-0.06516 -1.399721,-0.08175 l -1.270395,-0.02673 -0.01372,-0.496365 c -0.0092,-0.333091 0.0051,-0.519076 0.04358,-0.565406 0.04758,-0.05734 0.253086,-0.06666 1.212203,-0.05502 1.325808,0.0161 1.509296,-0.01325 1.645963,-0.263232 0.07235,-0.132342 0.08759,-0.333004 0.108184,-1.424437 l 0.02397,-1.270395 h 0.551303 0.551304 l 0.02534,1.270395 c 0.02621,1.314228 0.04704,1.451415 0.238608,1.571049 0.186745,0.116624 0.699276,0.154343 1.677757,0.123473 0.8535127,-0.02693 0.9910083,-0.02125 1.0444152,0.0431 0.04348,0.05239 0.057484,0.219571 0.047787,0.570473 l -0.013717,0.496365 -1.2703962,0.02746 c -0.774512,0.01674 -1.320876,0.04865 -1.399721,0.08175 -0.284688,0.119523 -0.299852,0.194594 -0.326099,1.61437 l -0.02397,1.296602 -0.540218,0.01356 c -0.406165,0.0102 -0.545601,-0.0017 -0.561913,-0.04794 z" id="path92"/></svg>