<?xml version="1.0" encoding="UTF-8" standalone="no"?><svg xmlns="http://www.w3.org/2000/svg" version="1.1" id="svg2" viewBox="0 0 16 16"><g id="g105" transform="matrix(0.9565323,0,0,1.0678704,23.49824,-1.3258518)"><path style="fill:#60f9dd" d="m -22.226651,15.099626 -0.925159,-1.12505 -0.70713,-4.7499997 -0.707131,-4.7500001 h 1.113544 1.113544 V 2.8580806 1.2415849 l 6.461616,0.4114446 6.461615,0.4114448 0.788385,0.8419558 0.788384,0.8419557 -1.256231,0.4485054 -1.25623,0.4485055 0.46275,0.7487462 0.462751,0.7487462 0.532231,3.0210363 0.532231,3.0210356 -1.738751,1.51768 -1.738751,1.51768 -4.731255,0.502178 -4.731254,0.502177 z" id="path94"/><path style="fill:#06fccf" d="m -22.370888,12.89066 -0.982403,-2.583916 0.566171,-0.9160838 0.566171,-0.9160839 h -0.965397 -0.965398 l 0.523012,-2.0000001 0.523012,-2 2.133368,-0.015313 2.133369,-0.015313 -1.47104,-0.9303142 -1.471039,-0.9303142 0.659681,-0.6596814 0.659681,-0.6596812 6.25637,0.7261285 6.256369,0.7261287 -1.556303,1.1379963 -1.556303,1.1379965 0.912854,2.4676777 0.912853,2.4676778 -0.537189,2.1403313 -0.537189,2.140331 -3.764372,0.622169 -3.764373,0.622169 -1.774751,0.01101 -1.774751,0.01101 z" id="path92"/><path style="fill:#000000" d="M -22.338983,10.662634 V 6.8506932 l 3,-2.2179959 3,-2.2179958 3,2.2179958 3,2.2179959 v 3.8119408 3.811942 h -2.09362 -2.093619 l -0.523012,-2 -0.523012,-2 h -0.766737 -0.766737 l -0.523012,2 -0.523012,2 h -2.093619 -2.09362 z m 4,0.811942 V 9.4745763 h 2 2 v 1.9999997 2 h 1.5 1.5 V 10.64889 7.8232043 l -2.337552,-2.196016 -2.337552,-2.1960158 -2.662448,2.094282 -2.662448,2.094282 v 2.9274195 2.92742 h 1.5 1.5 z" id="path86"/></g></svg>
