<?xml version="1.0" encoding="UTF-8" standalone="no"?><svg xmlns="http://www.w3.org/2000/svg" viewBox="0 0 200 200"><circle cx="100" cy="100" r="100" fill="#d8eb00"/><path d="M156.021 56.821h-7.2l-35-34.327a4.606 4.606 0 0 0-6.423 0L96.986 32.707 86.574 22.495a4.6 4.6 0 0 0-6.422 0l-35 34.327H34.924a4.5 4.5 0 0 0-4.541 4.454v89.079a4.5 4.5 0 0 0 4.541 4.454h121.1a13.51 13.51 0 0 0 13.623-13.363V70.183a13.509 13.509 0 0 0-13.626-13.362zM110.61 31.943l25.366 24.879h-14.4l-18.168-17.816zm-27.247 0 10.412 10.212 14.954 14.667H58zm59.034 109.5a4.5 4.5 0 0 1-4.541 4.455H39.465V65.729h98.391a4.5 4.5 0 0 1 4.541 4.454v13.362h-13.623a22.274 22.274 0 1 0 0 44.539H142.4v13.361zm18.165 0a4.5 4.5 0 0 1-4.541 4.455H150.7a13.074 13.074 0 0 0 .781-4.455v-13.359h9.082v13.361zm0-22.269h-31.788a13.364 13.364 0 1 1 0-26.723h31.788v26.723zm0-35.631h-9.082v-13.36a13.073 13.073 0 0 0-.781-4.454h5.322a4.5 4.5 0 0 1 4.541 4.454v13.362zm-32.921 17.616a4.767 4.767 0 1 1-4.859 4.766 4.813 4.813 0 0 1 4.859-4.764z" fill="#1a234a" fill-rule="evenodd"/></svg>