<?xml version="1.0" encoding="utf-8"?><svg version="1.1" id="Layer_1" xmlns="http://www.w3.org/2000/svg" xmlns:xlink="http://www.w3.org/1999/xlink" x="0px" y="0px" viewBox="0 0 48 48" style="enable-background:new 0 0 48 48;" xml:space="preserve"><style type="text/css"> .st0{fill:#1D8CB9;} .st1{fill:#FFFFFF;} </style><circle class="st0" cx="24" cy="24" r="24"/><g><path class="st1" d="M31.2,28.9c-1.3,0-2.5-0.4-3.6-1.2c-5.3-3.7-7.2-15.2-7.3-15.6l-0.2-1l3.9-1l0.5,2.1l-1.9,0.5 c0.6,2.8,2.5,10.6,6.2,13.3c1,0.7,2,0.9,3.1,0.7c1.1-0.2,1.9-0.8,2.5-1.7c2.4-3.8,1-11.8,0.4-14.7l-2.6,0.5l-0.4-2.1l4.6-0.9l0.2,1 c0.1,0.5,3,12-0.5,17.4c-1,1.5-2.3,2.4-4,2.7C32,28.9,31.6,28.9,31.2,28.9z"/><path class="st1" d="M12.5,37.4l-1.8-1.2c2.2-3.1,4.5-4.9,6.9-5.1c2.8-0.3,4.9,1.5,5.5,2.1c2.6,2.3,4.5,2.7,6.6,1.3 c2.8-1.8,1-8.1,1-8.1l2.1-0.6c0.1,0.3,2.4,7.9-1.9,10.6c-3.9,2.5-7.1,0.3-9.2-1.5c-0.9-0.8-2.2-1.7-3.8-1.5 C16.1,33.4,14.3,34.8,12.5,37.4z"/><path class="st1" d="M11,38.7l3.5,1c0,0,1.3-2.6-0.7-3.6c-2-1-5-1.4-5.7,1.8L11,38.7z"/><circle class="st1" cx="31.8" cy="9.8" r="1.5"/><circle class="st1" cx="25" cy="10.9" r="1.5"/></g></svg>