<?xml version="1.0" encoding="UTF-8" standalone="no"?><svg xmlns="http://www.w3.org/2000/svg" viewBox="0 0 30 30"><path fill="#1e91ff" d="M25.182 25.087c5.59-5.62 5.59-14.78.015-20.418C22.451 1.91 18.802.392 14.888.392 10.97.392 7.306 1.908 4.576 4.67.282 9.03-.823 15.646 1.814 21.154a1.873 1.873 0 0 0 3.016.508c.55-.57.71-1.422.363-2.118a10.779 10.779 0 0 1 2.18-12.362 10.698 10.698 0 0 1 7.514-3.062c2.7 0 5.274 1.011 7.262 2.824 2.18 2.008 3.41 4.722 3.472 7.676a10.702 10.702 0 0 1-3.109 7.816 10.654 10.654 0 0 1-7.625 3.172c-1.547 0-3.098-.348-4.5-.977a1.739 1.739 0 0 0-.758-.16c-.492 0-.98.207-1.343.555a1.786 1.786 0 0 0-.504 1.656 1.873 1.873 0 0 0 1.09 1.39 14.57 14.57 0 0 0 6.015 1.294 14.4 14.4 0 0 0 10.293-4.278h.002zm-14.528-12.68 4.218-3.347 4.215 3.348v6.964h-8.433v-6.964"/></svg>