<?xml version="1.0" encoding="UTF-8" standalone="no"?><svg xmlns="http://www.w3.org/2000/svg" viewBox="0 0 30 30"><defs><radialGradient id="prefix__b" gradientUnits="userSpaceOnUse" cx="0" cy="0" fx="0" fy="0" r="1" gradientTransform="matrix(10.7724 21.18635 -15.65495 7.43808 18.675 16.73)"><stop offset="0" stop-color="#395f5f"/><stop offset="1" stop-color="#278888" stop-opacity="0"/></radialGradient><linearGradient id="prefix__a" gradientUnits="userSpaceOnUse" x1=".5" y1="0" x2=".5" y2="1" gradientTransform="matrix(30 0 0 29 0 .078)"><stop offset="0" stop-color="#399"/><stop offset="1" stop-color="#2d8396"/></linearGradient></defs><path d="M30 .078H0v29h30zm0 0" fill="url(#prefix__a)"/><path d="M17.758 20.281V4.31h1.836l8.261 24.843H15.922l-6.426-5.324zm0 0" fill="url(#prefix__b)"/><path d="M23.84 8.468h8.03zm7.008-2.998v27.632" transform="scale(.57692 .5577)" fill="none" stroke-width="6" stroke="#fff"/><path d="M5.93 18.352h13.586c0 3.628-3.043 6.566-6.793 6.566S5.93 21.98 5.93 18.352zm3.398 0c0 1.812 1.52 3.285 3.395 3.285s3.394-1.473 3.394-3.285zm0 0" fill="#fff"/></svg>