<?xml version="1.0" encoding="utf-8"?><svg version="1.1" id="prefix__Layer_1" xmlns="http://www.w3.org/2000/svg" x="0" y="0" viewBox="0 0 48 48" xml:space="preserve"><style>.prefix__st2{fill:#2aa4a7}</style><circle cx="24.1" cy="23.9" r="21.2" fill="#fff"/><path d="M24 47.9C11 48 .1 37.2.1 24.2 0 11 10.7.2 23.6.1c12.9-.2 24.2 10.2 24.3 23.6C48 37.2 37.3 47.9 24 47.9zM4.1 28.3c.9 4.3 3 7.8 6.2 10.8 5.3 4.8 11.6 6.4 18.5 4.8 5.2-1.2 9.3-4.1 12.3-8.5 1.4-2.2 2.6-4.4 2.9-7.1.4-.7.4-1.4.4-2.2.4-1.7.2-3.5-.1-5.2-.8-5-3.1-9.2-7-12.5-3.4-3-7.4-4.5-11.9-4.9-4.3-.3-8.3.7-12 2.9C9.6 8.8 6.8 12 5 16.2c-1.4 3.2-1.5 6.5-1.4 9.9.1.8.1 1.6.5 2.2z" fill="#039ca0"/><path class="prefix__st2" d="M3.6 26.2c-.1-3.4.1-6.7 1.4-9.9 1.8-4.2 4.5-7.4 8.4-9.8 3.7-2.3 7.7-3.3 12-2.9 4.4.3 8.4 1.9 11.9 4.9 3.9 3.3 6.1 7.5 7 12.5.3 1.7.5 3.5.1 5.2h-4.9c-1.4 0-2-.5-2.4-1.9-1.3-5.3-2.6-10.5-3.9-15.8-.2-.9-.4-2-1.6-2-1.3 0-1.4 1.1-1.6 2.1-1.5 6.9-2.9 13.7-4.3 20.6-.7 3.1-1.3 6.2-2 9.4-.4-.1-.3-.3-.4-.5l-1.5-6c-1.1-4.5-2.2-9-3.4-13.5-.2-.8-.5-1.6-1.5-1.7-1.1 0-1.4.9-1.6 1.7-.3 1.1-.5 2.2-.8 3.3-.6 2.4-1.1 4.8-1.7 7.4-1.3-1.7-2.8-2.9-4.8-3-1.4-.2-2.9-.1-4.4-.1z"/><path class="prefix__st2" d="M43.9 28.3c-.3 2.6-1.5 4.9-2.9 7.1-3 4.5-7.1 7.4-12.3 8.5-6.9 1.5-13.2 0-18.5-4.8-3.2-2.9-5.3-6.5-6.1-10.8h3.6c1.2 0 2.2.5 3 1.4.3.3.6.7.9 1.1 1.3 1.2 2.8.9 3.4-.8.3-.8.4-1.6.6-2.5.5-1.9.9-3.9 1.4-5.8.3.3.4.6.5.9 1.4 5.9 2.9 11.7 4.3 17.6.2.9.4 1.7.7 2.5.2.6.7.9 1.3.9.6 0 1-.4 1.2-.9.1-.3.3-.7.3-1 1.9-8.9 3.7-17.8 5.6-26.7.2-1.2.4-2.4.9-3.7 1.1 4.6 2.2 9 3.3 13.5.6 2.3 2.1 3.5 4.5 3.6 1.4-.1 2.8-.1 4.3-.1z"/></svg>