<?xml version="1.0" encoding="utf-8"?><svg xmlns="http://www.w3.org/2000/svg" viewBox="0 0 48 48"><path d="M4.4 0H44v45.2H4.4V0z" fill="#fedb00"/><path d="M43.6 0H24.5c.9 2.5 2 5.3 3 7.5 2 4.3 11.1 23.1 12.9 27.1.1.2.1.3-.2.3-2.7.1-4.5-.9-6-3.2l-7.9-12.9c-1.2-2.1-2.1-3.7-3.2-4.8-.9-1.2-1.9-1.9-3.3-2-.9-.3-1.9 0-2.7.7C15.5 14 13.4 16 12 17c-3.6 2.8-6.9.4-6.1-.5 2.3-2.4 5.7-5.7 6.9-8.9.7-1.8.5-3.7.4-7.5H4.4C2 0 0 2 0 4.4v39.3C0 46 2 48 4.4 48h39.3c2.4 0 4.4-2 4.4-4.4V4.4C48 2 46 0 43.6 0zM9.7 30.1c1-1.6 7.2-11.1 9.4-14.5.3-.5.4-.6.8-.7h.1c.4 0 1.1.2 1.6.6.9.6 2.1 1.9 2.4 2.5.1.3.1.4-.1.7C22.2 21 13.2 33 11.6 35c-.3.3-.5.3-.8.3-1.2-.3-2-.9-2.3-1.9-.3-1.1 0-2.1.8-3.4l.4.1zm33.9 9.2c0 2.3-2 4.3-4.4 4.3H8.6c-2.3 0-4.3-2-4.3-4.3v-.1l39.3.1z" fill="#231f20"/></svg>