<?xml version="1.0" encoding="utf-8"?>
<!-- Generator: Adobe Illustrator 27.5.0, SVG Export Plug-In . SVG Version: 6.00 Build 0)  -->
<svg version="1.1" id="Layer_1" xmlns="http://www.w3.org/2000/svg" xmlns:xlink="http://www.w3.org/1999/xlink" x="0px" y="0px"
	 viewBox="0 0 48 48" style="enable-background:new 0 0 48 48;" xml:space="preserve">
<style type="text/css">
	.st0{fill-rule:evenodd;clip-rule:evenodd;fill:#1A976A;}
	.st1{fill-rule:evenodd;clip-rule:evenodd;fill:#FFFFFF;}
</style>
<g>
	<circle class="st0" cx="24" cy="24" r="24"/>
	<path class="st1" d="M23,23.3l9-9c0.7-0.7,1.8-0.7,2.4,0l2.4,2.4c0.7,0.7,0.7,1.8,0,2.4l-12,12c0,0-0.1,0.1-0.1,0.1l-2.4,2.4
		c-0.3,0.3-0.8,0.5-1.2,0.5c-0.4,0-0.9-0.2-1.2-0.5l-2.4-2.4c0,0-0.1-0.1-0.1-0.1l-6.3-6.3c-0.7-0.7-0.7-1.7,0-2.4l2.4-2.4
		c0.7-0.7,1.8-0.7,2.4,0l4.7,4.7l0.4,0.4L26,30L23,23.3L23,23.3z"/>
</g>
</svg>
