<?xml version="1.0" encoding="utf-8"?><svg xmlns="http://www.w3.org/2000/svg" viewBox="0 0 48 48"><path d="M25.5 32.5c-.5.1-1 .1-1.5.2-.5 0-1-.1-1.5-.2-3.7-.7-6.5-3.3-7.8-6.6 1.8 2 5.3 3.1 9.3 3.1 4 0 7.5-1.1 9.3-3.1-1.3 3.3-4.1 5.9-7.8 6.6zM11.6 15.1v2.4c0 .3.1.5.2.7-1.4.1-2.7.3-4 .6.7-1.7 2.1-4.5 3.8-6.2.3-.3 1.4-1.3 3.2-1.6.8-.1 3.9-.6 8.5-.6h1.3c4.7 0 7.7.4 8.5.6 1.7.3 2.9 1.3 3.2 1.6 1.7 1.7 3.1 4.5 3.8 6.2-2.7-.6-5.7-.8-8.9-.9H19.4c0-.1.1-.3.1-.4v-2.4c0-.8-.8-1.4-1.8-1.4h-4.3c-1 0-1.8.6-1.8 1.4zm26.7 15.2c-1.4-.1-2.5-1.3-2.6-2.6-.2-1.9 1.4-3.4 3.2-3.2 1.4.1 2.5 1.3 2.6 2.6.2 1.8-1.4 3.4-3.2 3.2zm-29.2 0c-1.4-.1-2.5-1.3-2.6-2.6-.2-1.9 1.4-3.4 3.2-3.2 1.4.1 2.5 1.3 2.6 2.6.2 1.8-1.3 3.4-3.2 3.2zm38.7-13.2c0-.7-.6-1.2-1.3-1.2l-2.8.1c-.6 0-1.1.5-1.2 1.1 0 .1 0 .3-.1.4l-.3-.6c-1.1-2.1-2.6-4.6-4.2-6.1 0 0-1.4-1.7-4-2.2-2.3-.6-6.1-.7-9.9-.7-3.8 0-7.6.1-9.9.6-2.7.5-4 2.2-4 2.2-1.5 1.6-3.1 4.1-4.2 6.1l-.3.7c0-.2-.1-.3-.1-.5-.1-.5-.6-1-1.2-1l-2.7-.1c-.7 0-1.3.5-1.3 1.2l-.1 1.3c0 .7.5 1.3 1.2 1.3l2.9.3s0 .1-.1.1c-1 1.1-1.5 2.4-1.7 3.4-.3 1.1-.5 2.5-.5 4.2 0 2.5.7 5.9.9 7.6v2.5c0 1.2 1 2.3 2.2 2.3h3c1.2 0 2.2-1 2.2-2.3V36c3.2-.3 8.4-.4 13.6-.4s10.4.1 13.6.4v1.9c0 1.2 1 2.3 2.2 2.3h3c1.2 0 2.2-1 2.2-2.3v-2.5c.2-1.7.9-5.1.9-7.6 0-3.9-1.4-6.7-2.2-7.6v-.1l2.9-.3c.7 0 1.2-.6 1.2-1.3l.1-1.4z" fill-rule="evenodd" clip-rule="evenodd" fill="#007ee5"/></svg>