<?xml version="1.0" encoding="UTF-8" standalone="no"?><svg xmlns="http://www.w3.org/2000/svg" xmlns:xlink="http://www.w3.org/1999/xlink" viewBox="0 0 56 56" crosspilot=""><defs><path id="a" d="M0 0h55.999v56H0z"/></defs><g fill="none" fill-rule="evenodd"><mask id="b" fill="#fff"><use xlink:href="#a"/></mask><path d="M43.163 0H12.837C5.747 0-.001 5.747-.001 12.836v30.328C-.001 50.254 5.748 56 12.837 56h30.326C50.253 56 56 50.253 56 43.164V12.836C55.999 5.746 50.252 0 43.163 0" fill="#F53" mask="url(#b)"/><path d="M28.039 8c-7.783 0-13.805 5.177-13.805 12.744h6.258C20.492 16.823 23.738 14 28 14c4.264 0 7.508 2.823 7.508 6.744h6.256C41.764 13.177 35.783 8 28.04 8zM17.364 29.451c1.876 0 3.362-1.451 3.362-3.373 0-1.922-1.486-3.373-3.362-3.373-1.878 0-3.364 1.451-3.364 3.373 0 1.922 1.486 3.373 3.364 3.373zm-3.13 1.96v3.843C14.234 42.587 19.67 48 26.358 48c4.183 0 7.86-2.118 10.012-5.334v4.745H42v-16H26.904v5.49h6.218C32.537 39.803 29.917 42 26.827 42c-3.481 0-6.335-2.707-6.335-6.746v-3.842h-6.258z" fill="#FFF"/></g></svg>