<?xml version="1.0" encoding="utf-8"?><svg xmlns="http://www.w3.org/2000/svg" viewBox="0 0 48 48"><path d="M17.3 27.9c.6.9.5 2-.1 2.5L7.1 37.5c-1.1.6-2.6-.1-3.5-1.7s-.8-3.3.3-3.9l11.3-5.2c.6-.3 1.6.2 2.1 1.2m13.4 0c.6-1 1.5-1.5 2.2-1.2l11.3 5.2c1.1.6 1.2 2.4.3 3.9-.9 1.6-2.5 2.3-3.5 1.7l-10.2-7.1c-.6-.5-.7-1.6-.1-2.5M24 31.7c1.1 0 2 .6 2.1 1.3l1.1 12.4c0 1.2-1.4 2.2-3.2 2.2s-3.2-1-3.2-2.2L21.9 33c.1-.7 1-1.3 2.1-1.3m6.7-11.6c.6 1 1.5 1.5 2.2 1.2l11.3-5.2c1.1-.6 1.2-2.3.3-3.9-.9-1.6-2.5-2.3-3.5-1.7l-10.2 7.1c-.6.5-.7 1.6-.1 2.5m-13.4 0c.6-1 .5-2-.1-2.5L7.1 10.5c-1.1-.6-2.7.1-3.6 1.7s-.8 3.3.3 3.9l11.3 5.2c.7.3 1.7-.2 2.2-1.2m6.7-3.8c1.1 0 2-.6 2.1-1.3l1.1-12.4c0-1.2-1.4-2.2-3.2-2.2s-3.2 1-3.2 2.2L21.9 15c.1.7 1 1.3 2.1 1.3" fill-rule="evenodd" clip-rule="evenodd" fill="#f3b53a"/></svg>