<?xml version="1.0" encoding="utf-8"?><svg version="1.1" id="prefix__Layer_1" xmlns="http://www.w3.org/2000/svg" x="0" y="0" viewBox="0 0 48 48" xml:space="preserve"><style>.prefix__st1{fill:#f97413}</style><path d="M24.3 46c-12.1 0-22-9.8-22-22 0-12.1 9.8-22 22-22 12.1 0 22 9.8 22 22 0 12.1-9.8 22-22 22zm0-36.6c-8 0-14.6 6.5-14.6 14.6s6.5 14.6 14.6 14.6S38.9 32.1 38.9 24 32.4 9.4 24.3 9.4z" fill="#cee4f1"/><path class="prefix__st1" d="M46.1 4.2c.2.1.4 0 .6 0 .3 0 .6.1.7.4 0 .4-.2.6-.4.8l-3.3 2.7c-2.7 2-5.2 4.3-7.5 6.7-.1.1-.1.1-.1.2-.9.8-1.6 1.7-2.4 2.6-.9 1-1.8 1.9-2.6 3-2 2.5-3.9 5.1-5.7 7.8-1.4 2.1-2.6 4.2-3.6 6.5-.3.6-.5 1.1-.8 1.6-.5.8-1.2 1.3-2.2 1.2-.6-.1-1.1-.4-1.5-.8-.5-.5-1-1.1-1.6-1.6-3.2-3-7-4.8-11.4-5.3-.9-.1-1.8-.2-2.7-.6-.2-.1-.3-.1-.5-.3-.8-.7-.7-1.5.3-2 .9-.4 1.9-.6 2.9-.6 3.8-.2 7.1 1 10.2 2.9 1 .6 2 1.3 2.9 2 .3.2.4.2.6-.1l3-4.5c2.4-3.5 4.9-7 7.8-10.2.3-.4.7-.7 1-1.1.9-.9 1.9-1.7 2.8-2.6.1-.1.2-.1.3-.2 2.4-2.1 5-4.1 7.7-5.8 1.4-1 2.8-1.9 4.3-2.5l1.2-.2z"/><path class="prefix__st1" d="M18.9 38.2h-.3c-.9-.1-1.5-.6-1.9-1l-.7-.7-.9-.9c-3.1-2.9-6.8-4.6-11-5.1-.9-.1-1.9-.2-2.8-.6-.2-.1-.5-.2-.7-.4-.5-.5-.8-1.1-.7-1.7.1-.6.5-1.1 1.2-1.4 1.1-.5 2.2-.6 3.1-.7 3.5-.2 7 .7 10.6 3 1 .6 1.9 1.2 2.8 1.9.5-.7 1-1.5 1.5-2.2.4-.7.9-1.4 1.4-2.1 2.3-3.4 4.9-7 7.8-10.3.2-.3.5-.5.7-.8l.3-.3 2.9-2.6s.1 0 .1-.1c.1 0 .1-.1.2-.1 2.2-1.9 4.8-4 7.8-5.8l.4-.2c1.2-.8 2.5-1.5 3.9-2.1h.1l.9-.2.1-.3.6.3h.4c.7.1 1.1.4 1.2.9.2.7-.3 1.2-.5 1.4-.9.8-1.9 1.6-2.9 2.3l-.5.3c-2.6 2-5.1 4.2-7.4 6.6v.1l-.1.1-.1.1c-.7.7-1.5 1.5-2.4 2.6-.8.8-1.7 1.8-2.6 2.9-1.9 2.5-3.9 5-5.7 7.7-1.4 2.2-2.6 4.3-3.6 6.4-.3.6-.5 1.2-.9 1.7-.4.8-1.2 1.3-2.3 1.3zM5.3 27h-.9c-.8.1-1.8.2-2.7.6-.2.1-.4.3-.4.4 0 .1.1.3.3.5.1.1.2.1.3.2.8.3 1.6.4 2.5.5 4.5.5 8.5 2.4 11.8 5.5l.9.9c.2.2.4.5.7.7.4.4.7.6 1.1.6.6.1 1.1-.2 1.6-.9.3-.5.5-1 .8-1.5 1-2.2 2.2-4.3 3.7-6.5 1.8-2.7 3.8-5.3 5.7-7.8.9-1.1 1.8-2.1 2.6-3 .9-1.1 1.7-1.9 2.4-2.7 0 0 .1-.1.1-.2 2.3-2.4 4.9-4.7 7.5-6.7l.5-.3c.9-.7 1.9-1.4 2.8-2.2h-.4l-1 .2c-1.3.5-2.4 1.2-3.7 2H41c-2.9 1.8-5.5 3.9-7.6 5.7-.1.1-.2.1-.2.2h-.1l-2.8 2.5-.3.3-.7.7c-2.9 3.2-5.4 6.8-7.7 10.2-.5.7-.9 1.4-1.4 2.1-.5.8-1.1 1.6-1.6 2.4-.1.1-.3.5-.8.5-.4 0-.7-.2-.8-.3-.9-.7-1.9-1.3-2.9-1.9-3-1.7-5.9-2.7-8.8-2.7zm12.2 3.8zM46.4 3.6z"/></svg>