<?xml version="1.0" encoding="utf-8" standalone="no"?><svg width="23.999999999999996" height="23.999999999999996" xmlns="http://www.w3.org/2000/svg"><g><title>background</title><rect fill="none" id="canvas_background" height="26" width="26" y="-1" x="-1"/></g><g><title>Layer 1</title><path id="svg_1" fill="#009fd9" d="m21.06227,3.115l-8.636,-3.069a0.987,0.987 0 0 0 -0.595,0l-8.638,3.069a0.863,0.863 0 0 0 -0.567,0.794l0,9.769c0,2.288 1.332,4.174 3.068,5.783c1.737,1.607 3.922,3.003 5.928,4.388a0.912,0.912 0 0 0 1.007,0c2.01,-1.385 4.194,-2.78 5.93,-4.388c1.737,-1.607 3.067,-3.495 3.067,-5.783l0,-9.769a0.854,0.854 0 0 0 -0.564,-0.794zm-7.786,11.462c0,0.846 -0.23,1.677 -0.665,2.41l-0.483,0.81l-0.482,-0.81a4.714,4.714 0 0 1 -0.665,-2.41l0,-3.868c0.569,-0.767 1.419,-1.04 2.295,-1.04l0,4.908zm3.568,-5.783l-9.434,0l0,-2.082l9.434,0l0,2.082z"/></g></svg>