<?xml version="1.0" encoding="utf-8"?>
<!-- Generator: Adobe Illustrator 26.3.1, SVG Export Plug-In . SVG Version: 6.00 Build 0)  -->
<svg version="1.1" id="Layer_1" xmlns="http://www.w3.org/2000/svg" xmlns:xlink="http://www.w3.org/1999/xlink" x="0px" y="0px"
	 viewBox="0 0 48 48" style="enable-background:new 0 0 48 48;" xml:space="preserve">
<style type="text/css">
	.st0{fill:#048BBA;}
	.st1{fill:#8AD223;}
</style>
<g>
	<path class="st0" d="M23.4,47.2c13.9-0.2,17.8-13.2,16.5-25c-0.3,0.3-2,1.7-2.7,2c4.2,24-27.9,28.1-27.6,3.9L7,27
		C5.7,37.3,12.7,47.3,23.4,47.2L23.4,47.2z M29.9,31.4c3.6-0.1,5.4-3.6,4.9-6.9h-9.9v1.3h-2.6v-1.2h-9.9v-0.1l-2.6-0.6v-4l-2.6,0.2
		v4.4l5.4,2.1V26c-0.4,6,8.6,7.3,9.7,1.3h3C25.6,29.6,27.6,31.3,29.9,31.4L29.9,31.4z M26.6,26.2h6.5C33.3,30.8,26.4,30.8,26.6,26.2
		z M14.1,26.1h6.5C20.9,30.7,13.9,30.7,14.1,26.1z M32.4,22.3c5.3,0,9.6-4.3,9.5-9.7c0.2-11.5-17.4-12.8-19-1.4L5.6,12.8v5.1
		l17.9-1.6C24.9,19.9,28.5,22.4,32.4,22.3L32.4,22.3z M25.4,12.8c-0.1-9.2,14.2-9.1,14,0C39.5,22,25.3,22,25.4,12.8L25.4,12.8z
		 M28.8,8.9c-2,1.6-1.6,5-1.6,5c1.1-1.9,2.7-4.1,5.2-4V7.5C31.1,7.5,29.8,8,28.8,8.9L28.8,8.9L28.8,8.9z"/>
	<path class="st1" d="M22.6,46.3c13.9-0.2,17.8-13.2,16.5-25c-0.3,0.3-2,1.7-2.7,2c4.2,24-27.9,28.1-27.6,3.9l-2.6-1.2
		C4.8,36.4,11.8,46.4,22.6,46.3z M29,30.5c3.6-0.1,5.4-3.6,4.9-6.9h-9.9v1.3h-2.6v-1.2h-9.9v-0.1l-2.6-0.6v-4l-2.6,0.2v4.4l5.4,2.1
		v-0.5c-0.4,6,8.6,7.3,9.7,1.3h3C24.7,28.7,26.7,30.4,29,30.5L29,30.5z M25.7,25.3h6.5C32.4,29.9,25.5,29.9,25.7,25.3z M13.2,25.2
		h6.5C20,29.8,13,29.8,13.2,25.2z M31.5,21.4c5.3,0,9.6-4.3,9.5-9.7c0.2-11.5-17.4-12.8-19-1.4L4.7,11.9V17l17.9-1.6
		C24,19,27.6,21.5,31.5,21.4L31.5,21.4z M24.5,11.9c-0.1-9.2,14.2-9.1,14,0C38.6,21.1,24.4,21.1,24.5,11.9
		C24.5,11.9,24.5,11.9,24.5,11.9z M27.9,8c-2,1.6-1.6,5-1.6,5c1.1-1.9,2.7-4.1,5.2-4V6.6C30.2,6.7,28.9,7.1,27.9,8L27.9,8L27.9,8z"
		/>
</g>
</svg>
