<?xml version="1.0" encoding="utf-8"?><svg version="1.1" id="prefix__Layer_1" xmlns="http://www.w3.org/2000/svg" x="0" y="0" viewBox="0 0 48 48" xml:space="preserve"><style>.prefix__st2{fill:#fff}</style><circle id="prefix__XMLID_1_" cx="24" cy="24" r="24" fill="#174a5b"/><path d="M25.8 29c0 .4-.1.6-.1.8v7.4c0 .5-.2.7-.7.7-1.4 0-1.4 0-1.4-1.4V16c0-.8 0-.8.8-.8 1.3 0 1.3 0 1.3 1.3v1c0 .2.1.3.1.5.1 0 .1.1.2.1.2-.3.4-.6.7-.8 1.2-1.3 2.6-2 4.4-2.4 3.9-.7 7 .6 9.3 3.7 1.3 1.7 1.6 3.6 1.4 5.7-.3 3-1.9 5.2-4.4 6.7-2 1.1-4.1 1.4-6.4 1-2-.4-3.5-1.4-4.9-2.7 0-.1-.1-.1-.3-.3zm6.8 1.3c1 .1 1.8-.2 2.7-.5 3.2-1.2 5.2-4.9 4.1-8.3-1-3-3.3-4.5-6-4.9-2.2-.3-4.2.4-5.8 1.9-2.3 2.1-2.8 5.5-1.3 8.2 1.4 2.5 3.6 3.5 6.3 3.6z" fill="#f05132"/><path class="prefix__st2" d="M16.9 24v-7.5c0-.5.2-.7.7-.7h3.1c.4 0 .6.2.6.6v15.2c0 .4-.1.6-.6.6h-3.2c-.5 0-.6-.2-.6-.6V24zM19.1 9.2c1.5-.2 2.7 1.4 2.7 2.6-.1 1.4-1.2 2.6-2.7 2.6-1.5 0-2.8-1.2-2.7-2.7 0-1.4 1.1-2.6 2.7-2.5z"/><path fill="#22c8f3" d="M6.7 26.9l7.7 4.9v-4.9z"/></svg>