<?xml version="1.0" encoding="utf-8"?><svg version="1.1" id="prefix__Layer_1" xmlns="http://www.w3.org/2000/svg" x="0" y="0" viewBox="0 0 48 48" xml:space="preserve"><style>.prefix__st1{fill-rule:evenodd;clip-rule:evenodd;fill:#fff}</style><path d="M.4 47.2h47V.4H.4" fill-rule="evenodd" clip-rule="evenodd" fill="#0a0a08"/><path class="prefix__st1" d="M.8 46.8H47V.8H.8v46zm-.8.9h47.8V0H0v47.7z"/><path d="M8.8 35.1h29.8V32H8.8" fill-rule="evenodd" clip-rule="evenodd" fill="#f9d021"/><path class="prefix__st1" d="M35.2 19.1c0-2-.9-4.2-3.5-4.2s-3.5 2.2-3.5 4.2 1 4.2 3.5 4.2c2.5.1 3.4-2.1 3.5-4.2zm-10.3-7h3.4v1.2h.1c1-.9 2.5-1.5 4.2-1.5 3.5 0 6.2 3.3 6.2 7.3 0 3.7-2.2 7.3-6.6 7.3-1.8 0-3.2-.6-3.8-1.4v5.5H25l-.1-18.4zm-6.3 15.3c-.9 2.6-2.1 3.4-4.5 3.4-.8 0-1.7-.2-2.4-.5v-3c.5.2 1.3.4 2.1.4 1.1 0 1.5-.5 1.5-1.2 0-.3-.1-.6-.3-1.1-.2-.6-5.2-13.2-5.2-13.2h3.7l3.6 10.6 3.2-10.6h3.5l-5.2 15.2z"/></svg>