<?xml version="1.0" encoding="utf-8"?><svg xmlns="http://www.w3.org/2000/svg" viewBox="0 0 48 48"><linearGradient id="prefix__a" gradientUnits="userSpaceOnUse" x1="24" y1="43.118" x2="24" y2="91.112" gradientTransform="translate(0 -43.118)"><stop offset="0" stop-color="#18bffb"/><stop offset="1" stop-color="#2072f3"/></linearGradient><path d="M38.3 0H9.7C4.3 0 0 4.3 0 9.7v28.6C0 43.7 4.3 48 9.7 48h28.6c5.4 0 9.7-4.3 9.7-9.7V9.7C48 4.3 43.7 0 38.3 0z" fill="url(#prefix__a)"/><path d="M23.8 11l1-1.7c.6-1 1.9-1.4 3-.8 1 .6 1.4 1.9.8 3l-9.4 16.2H26c2.2 0 3.4 2.6 2.5 4.4H8.6c-1.2 0-2.2-1-2.2-2.2 0-1.2 1-2.2 2.2-2.2h5.6l7.1-12.4-2.3-3.8c-.6-1-.2-2.4.8-3 1-.6 2.4-.2 3 .8l1 1.7zm-8.4 23.4L13.3 38c-.6 1-1.9 1.4-3 .8s-1.4-1.9-.8-3l1.6-2.7c1.7-.5 3.1-.1 4.3 1.3zm18.1-6.6h5.7c1.2 0 2.2 1 2.2 2.2 0 1.2-1 2.2-2.2 2.2H36l2.1 3.7c.6 1 .2 2.4-.8 3-1 .6-2.4.2-3-.8-3.6-6.2-6.3-10.9-8.1-14-1.8-3.2-.5-6.3.8-7.4 1.4 2.4 3.6 6.1 6.5 11.1z" fill="#fff"/></svg>