<?xml version="1.0" encoding="utf-8"?>
<!-- Generator: Adobe Illustrator 26.3.1, SVG Export Plug-In . SVG Version: 6.00 Build 0)  -->
<svg version="1.1" id="Layer_1" xmlns="http://www.w3.org/2000/svg" xmlns:xlink="http://www.w3.org/1999/xlink" x="0px" y="0px"
	 viewBox="0 0 48 48" style="enable-background:new 0 0 48 48;" xml:space="preserve">
<style type="text/css">
	.st0{fill:#FF6F26;}
	.st1{fill:#FFFFFF;}
</style>
<circle class="st0" cx="24" cy="24" r="24"/>
<g>
	<path class="st1" d="M36.3,12.7c0,0.3-0.1,0.6-0.3,0.9c-4.6,7.6-9.2,15.2-13.7,22.8c0,0.1-0.1,0.1-0.1,0.2c-0.4,0.7-1,0.9-1.7,0.7
		c-0.3-0.1-0.6-0.3-0.7-0.6c-0.5-1.2-1-2.3-1.5-3.5c-0.1-0.1-0.1-0.2,0-0.3c3.9-6.9,7.8-13.7,11.8-20.6c0.7-1.1,1.7-1.7,3-1.8
		c0.5,0,1,0,1.5,0.1C35.6,10.8,36.3,11.6,36.3,12.7z"/>
	<path class="st1" d="M17.5,31.7c-0.6-1.5-1.3-2.9-1.9-4.3c-1.2-2.7-2.4-5.4-3.6-8c-0.3-0.6-0.4-1.2-0.3-1.9
		c0.2-0.7,0.6-1.2,1.3-1.4c1-0.3,2.1-0.3,3.2-0.2c1,0.2,1.6,0.8,2,1.7c1,2.5,2,4.9,2.9,7.4c0.1,0.2,0.1,0.3,0,0.5
		c-1.2,2-2.3,4.1-3.5,6.1C17.6,31.6,17.6,31.7,17.5,31.7z"/>
</g>
</svg>
