<?xml version="1.0" encoding="utf-8"?><svg version="1.1" id="prefix__Layer_1" xmlns="http://www.w3.org/2000/svg" x="0" y="0" viewBox="0 0 48 48" xml:space="preserve"><style>.prefix__st1{fill:#fff}</style><path fill="#ec1c23" d="M0 0h48v48H0z"/><path class="prefix__st1" d="M29.2 14c5.4 0 9 2.4 10.1 6.8 1 4 .6 7.9-2.7 10.8-4.3 3.8-13.7 3.3-16.4-3.1-2.1-4.9-.9-12.9 7-14.3.8-.2 1.6-.2 2-.2zm-4.5 10.9c.1.6.1 1.2.2 1.7.5 2.2 2.2 3.6 4.4 3.7s4-1.2 4.7-3.4c.6-1.9.6-3.9 0-5.8-.6-2-2.2-3.2-4.2-3.2-2.5 0-4 .9-4.7 3-.2.6-.3 1.3-.4 2v2z"/><path class="prefix__st1" d="M8.2 14h4.1c.2 0 .5 0 .8.1v3.5l.2.2c2.3-4.1 5.9-4.1 10.1-3.6-2 1.1-3.4 2.5-4.2 4.4-.1.1-.3.3-.5.3-4.4 1-5.4 2.3-5.4 6.8v7c0 .3 0 .7-.1 1.1h-5V14z"/></svg>