<?xml version="1.0" encoding="utf-8"?><svg xmlns="http://www.w3.org/2000/svg" viewBox="0 0 48 48"><path d="M43.1 27.4c-2.6-2-7.5-1.9-7.5-1.9h-8.4c-1 0-1.3.1-1.3.5.1.2.3.3.5.3.6.1 1 .5 1.1 1.1 0 .7.1 2.9.1 3.7v13.2c0 .8.7 1.5 1.5 1.5h5c2.1 0 4.2-.4 6.2-1.2 3.8-1.6 6.2-5.3 6.2-9.4.2-3-1.1-5.9-3.4-7.8zM34.6 44h-.2c-1.2 0-2.4 0-3-.6-.3-.4-.5-.9-.5-1.5v-9.3-5c1.2-.2 2.3-.2 3.5-.2 2.2 0 4.5.3 6.5 2.4 1.3 1.6 2.1 3.6 2 5.7 0 5.2-3.3 8.5-8.3 8.5zm-8.7 1c-.6-.2-1-.7-1.1-1.3 0-.4-.4-16.6-.4-16.6 0-.8 0-1.5-.2-1.5-.6-.1-1.2-.1-1.7-.1-.5-.1-1 0-1.4.1-.3.5-.5 1-.7 1.5l-1.5 3.3-1.5 2.8-2.3 4.4c-.1.4-.5.6-.9.5-.3-.1-.5-.3-.5-.5l-2.3-4.3-1.4-2.7-1.6-3.5c-.2-.5-.4-1-.7-1.5-.5-.1-1-.2-1.6-.1h-2c-1 0-1.4 0-1.4.4.1.2.3.3.5.3.5.2.8.7.8 1.3 0 .4 0 15.2-.1 15.8 0 .1 0 .2-.1.3 0 .6-.5 1.2-1.1 1.3-.2 0-.4.1-.5.3-.1.4.4.4 1.4.4h3.2c1 0 1.4 0 1.4-.4 0 0-.2-.2-.4-.2-.6-.2-1-.7-1.1-1.3-.1-.4-.1-.7-.2-1.1v-3.4-3.1l.1-3.3c0-.8.4-.9.8-.2l2.2 4.1c.4.7 2.5 4.7 2.9 5.5.1.6.7 1 1.4.9 1.1 0 1.1-.3 1.6-1.3.3-.7 5-10 5-10 .4-.7.7-.7.7.2 0 0 .1 11.3 0 11.8v.2c-.1.5-.5.9-1 1-.2 0-.4.1-.5.3-.1.4.4.4 1.4.4h4.1c1 0 1.4 0 1.4-.4-.2-.1-.5-.3-.7-.3z" fill="#231f20"/><path d="M25.7 4.3c.2-.5.5-1 .9-1.3.3 0 .6-.2.7-.4.1-.3-.2-.4-1.3-.4h-3.2c-1 0-1.4 0-1.4.4.2.2.4.4.6.4.9.3 1.6.7 1.3 1.7s-4.4 12.9-4.4 12.9c-.2.4-.6.6-.7-.1l-2.1-10c-.2-.8-.4-1.9-.4-2.3-.1-.4-.5-.7-.9-.7s-.7.2-.9.5l-1.2 2.4-5.4 10.3c-.2.4-.5.3-.5-.2L6.1 7.1c0-.8-.1-2.4-.1-2.7 0-.7.5-1.2 1.1-1.4.2 0 .4-.2.6-.4.1-.4-.4-.4-1.4-.4h-4c-.6 0-1 .1-.9.4.1.2.3.4.5.4.4.1.8.4.9.8.1.1.1.3.2.4v.2c.2.9.3 1.9.4 2.8L4.3 20c0 .9.1 1.7.3 2.6.3.5 1.4.5 1.9-.2.1-.2 6.8-12.8 6.8-12.8.4-.7.8-.7 1 .1L16.4 20c.1.8.3 1.5.5 2.3.3.7 1.7.6 2.1-.1.4-.7.7-1.5 1-2.3 0 .1 5.5-15 5.7-15.6zm17.6 4.8c-2.6 0-5 2.4-6.6 4.2.1-.5.2-1 .4-1.5l2.4-8.1c.2-.6-.1-1.2-.6-1.4-.1-.1-.3-.1-.5-.1h-2.1c-1 0-1.4 0-1.4.4.3.2.5.4.7.4 1 .3 1.3 1.4 1 2.6 0-.1-2.4 9.6-2.4 9.6-.3 1-.8 1.8-1.5 2.6 0 0-2.9 3.6-5.9 3.6-1.2.1-2.2-.7-2.4-1.9v-.3c0-.7.1-1.5.2-2.2 3.1-.3 8.7-1.7 8.7-5.7 0-1.6-1.5-2.1-2.8-2.1-4.2 0-8.4 5.1-8.4 9.7 0 1.9.9 3.9 3.6 3.9 5 0 7.7-4.9 7.9-5.1-.1.6-.2 1.3-.2 2 0 2.1 1.5 3.1 3.5 3.1 1.5-.1 3-.5 4.2-1.3 1.1-.7 2.1-1.5 2.9-2.4 1.6-1.7 2.6-3.9 2.7-6.2 0-2.2-1-3.7-3.4-3.8zm-13.5 1c.6 0 1.2.4 1.2 1.1v.2c0 3.2-3.5 4.6-6.2 4.7.4-1.9 2.7-6 5-6zM43 17c-.6 1.3-1.4 2.5-2.4 3.5-.9.9-2 1.5-3.3 1.6-1.3 0-1.8-1.3-1.8-2.4 0-3.2 3.5-9.3 7.1-9.3 1.3 0 1.7.9 1.7 2-.1 1.6-.5 3.2-1.3 4.6z" fill="#0080c5"/></svg>