<?xml version="1.0" encoding="utf-8"?><svg version="1.1" id="prefix__Layer_1" xmlns="http://www.w3.org/2000/svg" x="0" y="0" viewBox="0 0 48 48" xml:space="preserve"><style>.prefix__st1{fill:#00234b}</style><path d="M19.1 0C2.7 0-.7 23.2 10.9 34.8 17.5 41.4 22.5 48 30.7 48c9.9 0 11.6-8.3 11.6-23.2C42.3 10 34 0 19.1 0z" fill="#fff04b"/><path class="prefix__st1" d="M31.6 26.5c1.4 0 2.5-1.1 2.5-2.5s-1.1-2.5-2.5-2.5c-1.3 0-2.4 1.1-2.4 2.5s1 2.5 2.4 2.5zm-19.9 0c1.4 0 2.5-1.1 2.5-2.5s-1.1-2.5-2.5-2.5-2.5 1.1-2.5 2.5 1.1 2.5 2.5 2.5z"/><path class="prefix__st1" d="M32.4 35.3c-3.3 1.8-7 2.8-10.8 2.8-2.4 0-4.7-.4-6.8-1.1 0 0 17.4-25.8 17.5-25.8.1-.1.1-.3.1-.4V8.3H10.9v3.3h17L11.1 36.5c-.1.1-.1.3-.1.4V39c3.4 1.6 7 2.4 10.8 2.4 4.3 0 8.6-1.1 12.4-3.2l-1.8-2.9z"/></svg>