<?xml version="1.0" encoding="UTF-8"?>
<svg id="Layer_2" data-name="Layer 2" xmlns="http://www.w3.org/2000/svg" viewBox="0 0 47.21 47.21">
  <defs>
    <style>
      .cls-1 {
        fill: none;
        stroke: #6ac2c2;
        stroke-miterlimit: 10;
        stroke-width: 2px;
      }

      .cls-2 {
        fill: #252956;
      }

      .cls-2, .cls-3 {
        stroke-width: 0px;
      }

      .cls-3 {
        fill: #fff;
      }
    </style>
  </defs>
  <g id="Layer_1-2" data-name="Layer 1">
    <rect class="cls-2" x="0" y="0" width="47.21" height="47.21" rx="23.61" ry="23.61"/>
    <circle class="cls-1" cx="23.61" cy="23.61" r="18.69"/>
    <g>
      <path class="cls-3" d="M19.11,14.72c-.53-.45-1.13-.38-1.36-.38h-2.94c-.53,0-.98.45-.98.98s.45.98.98.98h3.16v15.6c0,.53.45.98.98.98s.98-.45.98-.98v-15.52c-.15-.9-.53-1.36-.83-1.66Z"/>
      <path class="cls-3" d="M23.03,14.34h-1.73c-.45,0-.83.45-.83.98s.38.98.83.98h1.73c.45,0,.83-.45.83-.98s-.38-.98-.83-.98Z"/>
      <path class="cls-3" d="M32.4,30.84h-3.62c-.38,0-.53-.08-.53-.15v-15.37c0-.53-.45-.98-.98-.98s-.98.45-.98.98v15.07c-.08.45,0,1.05.45,1.51.3.38.9.83,2.03.83h3.62c.53,0,.98-.45.98-.98-.08-.53-.45-.9-.98-.9Z"/>
    </g>
  </g>
</svg>