<?xml version="1.0" encoding="utf-8"?><svg version="1.1" id="Layer_1" xmlns="http://www.w3.org/2000/svg" xmlns:xlink="http://www.w3.org/1999/xlink" x="0px" y="0px" viewBox="0 0 48 48" style="enable-background:new 0 0 48 48;" xml:space="preserve"><style type="text/css"> .st0{fill:#2881BE;} .st1{fill:#227D3E;} .st2{fill:#F5A61D;} .st3{fill:#231F20;} .st4{fill:#DB1F26;} .st5{fill:#444545;} </style><g><g><path class="st0" d="M5.3,10.6c-0.1,0.5,0.2,1,0.6,1.2l4,2c0.4,0.2,0.9,0.2,1.2-0.1l0.2-0.2l0,0c0-0.1,0.1-0.1,0.1-0.2 c2.2-3.6,5.9-6,10.1-6.5c0.6,0,1.2-0.5,1.2-1.2c0,0,0-0.1,0-0.1l-0.2-4.5c0-0.5-0.4-0.9-0.9-1.1C14.9,0.9,8.9,4.8,5.3,10.6z M10.5,10.8c-0.1,0.1-0.2,0.2-0.2,0.3c-0.1-0.1-0.2-0.2-0.3-0.2c0.1-0.1,0.2-0.2,0.2-0.3C10.4,10.6,10.5,10.7,10.5,10.8L10.5,10.8 z M10.1,12.8c0-0.1,0.2-0.2,0.2-0.3s0.2,0.2,0.3,0.2c0.1,0,0.2-0.3,0.2-0.3c0.1,0.1,0.2,0.1,0.2,0.2c-0.1,0.1-0.2,0.2-0.2,0.3 c0,0,0.2,0.2,0.3,0.2s-0.2,0.3-0.2,0.3s-0.2-0.2-0.3-0.2c-0.1-0.1-0.2-0.2-0.3-0.2C10.3,13,10.1,12.8,10.1,12.8L10.1,12.8z M8.8,9.6C8.8,9.5,9,9.4,9,9.3c0-0.1,0.2,0.2,0.3,0.2s0.2-0.3,0.2-0.3s0.2,0.2,0.3,0.2S9.9,9.3,10,9.3s0.3,0.2,0.3,0.2 c-0.1,0.1-0.2,0.2-0.2,0.3C10,9.8,9.9,9.9,9.8,10c-0.1,0-0.2-0.2-0.3-0.2S9.3,10.1,9.3,10C9.2,10,9.1,9.9,9,9.8 C9,9.8,8.8,9.6,8.8,9.6z M6.8,10.7C6.9,10.7,7,10.8,7,10.9C7,11,6.9,11.1,6.8,11.1c-0.1-0.1-0.2-0.2-0.3-0.2 C6.6,10.8,6.7,10.7,6.8,10.7L6.8,10.7z M7.2,8.6l0.3,0.2C7.6,8.9,7.7,9,7.8,9.1C7.8,9.2,8,9.3,8,9.3c0,0.1-0.2,0.2-0.2,0.3 C7.8,9.7,8,9.8,8,9.8l0.5,0.5l-0.5,0.5c-0.1,0-0.2-0.2-0.3-0.2c-0.1,0-0.2,0.3-0.2,0.3c-0.1-0.1-0.2-0.2-0.3-0.2 c0-0.1,0.2-0.2,0.2-0.3L7,9.9c0-0.1,0.2-0.2,0.2-0.3C7.3,9.5,7,9.4,7,9.4L6.7,9.1L7.2,8.6z M7.7,8.1C7.6,8.2,7.6,8.3,7.5,8.3 C7.4,8.3,7.3,8.2,7.2,8.1C7.3,8,7.4,7.9,7.5,7.8C7.5,7.9,7.6,8,7.7,8.1L7.7,8.1z"/><path class="st1" d="M1.4,23.1c0,3.3,0.7,6.7,2.2,9.7C4,33.2,4.5,33.2,5,33l3.9-2.2c0.6-0.3,0.8-1,0.5-1.6c0,0,0,0,0,0l0,0 c-0.8-1.9-1.2-3.9-1.2-6c-0.1-2.1,0.3-4.1,1.2-6c0.3-0.5,0.2-1.3-0.4-1.6c0,0,0,0,0,0l0,0l-3.9-2.2c-0.4-0.3-1-0.2-1.4,0.2 c-0.6,1.3-1.1,2.8-1.5,4.2l0.1,0.1L2.1,18C1.7,19.7,1.5,21.4,1.4,23.1z M6.4,25.2l-0.5-0.5c0.1,0,0.2-0.2,0.3-0.2 c0.1,0,0.2,0.2,0.2,0.3c0,0,0.3,0.2,0.2,0.3C6.6,24.9,6.4,25.1,6.4,25.2l0.2,0.2c-0.1,0-0.2,0.3-0.3,0.2c-0.1-0.1-0.2-0.2-0.2-0.3 C6.1,25.3,6.3,25.2,6.4,25.2L6.4,25.2z M3.1,22.3c0-0.1,0.3-0.2,0.3-0.3c0-0.1-0.3-0.2-0.2-0.3s0.3-0.2,0.3-0.2s-0.3-0.2-0.2-0.3 c0,0,0.2-0.2,0.3-0.2l0.3-0.2l0.5,0.5l-0.5,0.5l0.3,0.3l0.3-0.2l0.2,0.3c0,0,0.3,0.2,0.2,0.3c0,0-0.2,0.2-0.3,0.2l-0.5-0.5 l-0.3,0.2c0,0-0.2,0.3-0.3,0.2C3.4,22.6,3.2,22.3,3.1,22.3L3.1,22.3z"/><path class="st2" d="M5,36.6c4.2,5.4,10.5,8.6,17.3,8.8c0.5-0.2,0.8-0.6,0.8-1.2l-0.2-4.5c0-0.6-0.5-1.2-1.2-1.2h-0.1 c-4.2-0.2-8.1-2.2-10.7-5.5c-0.3-0.5-1-0.7-1.6-0.4c0,0,0,0,0,0l0,0l-3.8,2.4C5.1,35.5,4.8,36.1,5,36.6z M15,37.2 c0.1-0.1,0.2-0.2,0.2-0.3c0.1,0.1,0.2,0.2,0.3,0.2c-0.1,0.1-0.2,0.2-0.2,0.3C15.1,37.3,15.1,37.3,15,37.2z"/><path class="st0" d="M25.5,45.8c5-0.2,9.7-2,13.5-5.1l0,0l-0.3,0.2c0-0.1-0.2-0.2-0.2-0.3c0.1-0.1,0.2-0.2,0.3-0.2 c0.1,0,0.2,0.2,0.2,0.3l0.3-0.2c0,0,0,0,0,0.1c0.5-0.4,0.9-0.8,1.3-1.2l0,0c0,0,0.1-0.1,0.2-0.2l0,0l0,0l-0.2-0.3l-0.2-0.3 c0,0-0.2-0.2-0.2-0.3c0-0.1,0.2-0.2,0.3-0.2c0.1-0.1,0.2-0.1,0.3-0.2c-0.1-0.1-0.2-0.2-0.2-0.3c0.1-0.1,0.2-0.2,0.3-0.2 c0.1,0,0.2,0.2,0.2,0.3c0.1,0,0.3-0.2,0.3-0.2l0.2,0.3c0,0,0.2,0.2,0.2,0.3c0,0-0.3,0.2-0.3,0.2c0,0.1,0.1,0.1,0.2,0.2 c0.4-0.4,0.8-0.9,1.1-1.3c0.1-0.5-0.1-1-0.5-1.3l-3.8-2.4c-0.5-0.4-1.2-0.2-1.6,0.3l0,0c-2.6,3.3-6.5,5.2-10.6,5.4 c-0.6,0-1.2,0.4-1.2,1.1c0,0,0,0,0,0c0,0,0,0,0,0.1l-0.2,4.5C24.7,45.2,25,45.6,25.5,45.8z M40.4,35.1c0.1-0.1,0.2-0.2,0.3-0.2 c0.1,0.1,0.2,0.2,0.2,0.3c-0.1,0.1-0.2,0.2-0.3,0.2C40.5,35.3,40.4,35.2,40.4,35.1L40.4,35.1z M37.6,34.7 c-0.1,0.1-0.2,0.2-0.3,0.2c-0.1-0.1-0.2-0.2-0.2-0.3c0.1-0.1,0.2-0.2,0.3-0.2C37.5,34.5,37.5,34.6,37.6,34.7z M38.2,33.7 c-0.1,0.1-0.2,0.2-0.3,0.2c-0.1-0.1-0.2-0.2-0.2-0.3c0.1-0.1,0.2-0.2,0.3-0.2C38,33.5,38.1,33.6,38.2,33.7L38.2,33.7z M38.8,35 c-0.1,0-0.2-0.2-0.2-0.3L38.3,35l-0.2-0.3c0,0-0.2-0.2-0.2-0.3c0,0,0.2-0.2,0.3-0.2l0.5,0.5l0.3-0.2c0,0.1,0.2,0.2,0.2,0.3 L38.8,35z M37.1,38.5c0.1-0.1,0.2-0.2,0.3-0.2l0.2,0.3l0.2,0.3c-0.1,0-0.2,0.2-0.3,0.2c-0.1,0-0.2-0.2-0.2-0.3 C37.3,38.8,37.1,38.5,37.1,38.5L37.1,38.5z M36.7,37c0-0.1,0.2-0.2,0.3-0.2l-0.2-0.3l0.3-0.2c0.1-0.1,0.2-0.2,0.3-0.2 c0.1,0,0.2-0.2,0.3-0.2c0.1,0,0.2,0.3,0.2,0.3c0.1,0,0.2-0.2,0.3-0.2l0.2,0.3c0.1,0.1,0.2,0.2,0.2,0.3c0,0,0.2,0.2,0.2,0.3 c0,0.1-0.2,0.2-0.3,0.2l-0.2-0.3c-0.1,0-0.2,0.2-0.3,0.2c-0.1,0-0.2-0.3-0.2-0.3c-0.1,0-0.2,0.2-0.3,0.2c-0.1,0.1-0.2,0.1-0.3,0.2 l-0.3,0.2C36.9,37.2,36.7,37.1,36.7,37L36.7,37z M34.4,41.9l0.5-0.5l0.5,0.5l-0.5,0.5L34.4,41.9z M33.1,42.1 c0.1-0.1,0.2-0.2,0.3-0.2c0.1,0.1,0.2,0.2,0.2,0.3c-0.1,0.1-0.2,0.2-0.3,0.2C33.2,42.3,33.1,42.2,33.1,42.1L33.1,42.1z M30.5,38.6 c0.1-0.1,0.2-0.2,0.3-0.2c0.1,0.1,0.2,0.2,0.2,0.3c-0.1,0.1-0.2,0.2-0.3,0.2C30.7,38.8,30.6,38.7,30.5,38.6L30.5,38.6z M28.3,41.5 c0.1-0.1,0.2-0.2,0.3-0.2c0.1,0.1,0.2,0.2,0.2,0.3c-0.1,0.1-0.2,0.2-0.3,0.2C28.5,41.7,28.4,41.6,28.3,41.5L28.3,41.5z M27.7,39.7 c0.1-0.1,0.2-0.2,0.3-0.2c0.1,0.1,0.2,0.2,0.2,0.3c-0.1,0.1-0.2,0.2-0.3,0.2C27.8,39.9,27.7,39.8,27.7,39.7L27.7,39.7z"/><g><path class="st1" d="M39.2,31.1l0.2,0.1c0,0,0.1-0.1,0.1-0.1c0,0,0.2,0.3,0.3,0.3c0.1,0,0.2-0.2,0.3-0.2c0.1,0,0.2,0.2,0.2,0.3 L40,31.5l1.9,1.2l0,0c0,0,0.2-0.3,0.3-0.2c0,0,0.2,0.2,0.2,0.3l0.7,0.8l0,0l0.5-0.5l0.4,0.5c0.1-0.1,0.2-0.1,0.3-0.2 c0.3-0.6,0.5-1.2,0.7-1.8c0-0.1-0.1-0.2-0.2-0.2c0,0,0.3-0.2,0.3-0.2S45,30.8,45,30.8c0-0.1,0.2-0.2,0.3-0.2s0.1,0.1,0.2,0.2 c0.6-1.8,1-3.7,1.1-5.6l-0.4-0.4l0.4-0.4v-0.7c0-3.4-0.7-6.7-2.2-9.7c-0.4-0.4-1-0.4-1.4-0.2l-2.9,1.7c0,0.1,0.1,0.1,0.1,0.1 L39.7,16l-0.2-0.3l0,0L39.1,16c-0.4,0.2-0.6,0.7-0.6,1.2l0.2-0.2l0.2,0.3c0,0,0.3,0.2,0.2,0.3c0,0-0.2,0.2-0.3,0.2l-0.1,0.1 c0.5,1.1,0.8,2.4,0.9,3.6c0.1,0,0.2-0.1,0.2-0.2c0,0,0.2-0.2,0.3-0.2s0.2,0.2,0.2,0.3c0,0-0.3,0.2-0.3,0.3s0.2,0.2,0.2,0.3 l0.2,0.3c-0.1,0-0.2,0.3-0.3,0.2c-0.1,0-0.2-0.2-0.2-0.3c-0.1-0.1-0.2-0.2-0.2-0.3l-0.2-0.2c0,0.4,0,0.7,0,1.1l0.1,0.1h-0.1v0.7 c0.1,2.1-0.3,4.1-1.2,6c-0.3,0.6-0.1,1.3,0.5,1.6c0,0,0,0,0,0L39.2,31.1z M40,18.2l-0.3,0.2c0,0-0.2,0.2-0.3,0.2 c0,0-0.2-0.2-0.2-0.3s0.3-0.2,0.3-0.2s-0.2-0.2-0.2-0.3c0-0.1,0.2-0.2,0.3-0.2s0.2,0.2,0.2,0.3C39.8,17.9,40,18.1,40,18.2z M41,19.2c0.1,0.1,0.2,0.2,0.2,0.3L41,19.7c0,0-0.2,0.2-0.3,0.2c0,0-0.2-0.2-0.2-0.3l-0.2-0.3L40,19.2c0.1-0.1,0.2-0.2,0.3-0.2 l0.2,0.3c0.1,0.1,0.2,0.2,0.2,0.3C40.8,19.5,41,19.2,41,19.2L41,19.2z M42.5,20.3c-0.1,0.1-0.2,0.2-0.3,0.2L42,20.2L41.7,20 c0.1,0,0.2-0.2,0.3-0.2s0.2,0.2,0.2,0.3S42.5,20.2,42.5,20.3L42.5,20.3z M42.3,19c0.1,0,0.2-0.2,0.3-0.2s0.2,0.2,0.2,0.3 c0,0,0.2,0.2,0.2,0.3c-0.1,0.1-0.2,0.2-0.3,0.2l-0.2-0.3L42.3,19z M41.5,19.2c0-0.1-0.2-0.2-0.2-0.3c0-0.1,0.2-0.2,0.3-0.2 s0.2-0.2,0.3-0.2c0.1,0.1,0.2,0.2,0.2,0.3L41.8,19L41.5,19.2z M41.3,18.4c-0.1-0.1-0.2-0.2-0.2-0.3c0.1-0.1,0.2-0.2,0.3-0.2 c0.1,0.1,0.2,0.2,0.2,0.3C41.5,18.3,41.4,18.4,41.3,18.4L41.3,18.4z M41.5,20.8c-0.1,0.1-0.2,0.2-0.3,0.2 c-0.1-0.1-0.2-0.2-0.3-0.3c0.1-0.1,0.2-0.2,0.3-0.3C41.3,20.6,41.4,20.6,41.5,20.8L41.5,20.8z M42.7,16.7l0.2,0.3 c0,0,0.3,0.2,0.2,0.3c-0.1,0.1-0.2,0.2-0.3,0.2l-0.3,0.2l0.2,0.3c0,0,0.2,0.2,0.2,0.3c0,0-0.3,0.2-0.3,0.2 c-0.1-0.1-0.2-0.2-0.2-0.3l-0.5-0.5c-0.1-0.1-0.2-0.2-0.3-0.3c0-0.1,0.3-0.2,0.3-0.2S41.9,17,41.9,17c-0.1-0.1-0.2-0.2-0.2-0.3 l-0.2-0.3l-0.3-0.3c0,0-0.2-0.2-0.2-0.3c0,0,0.3-0.2,0.3-0.2c0,0,0.2,0.2,0.2,0.3c0,0.1,0.2-0.2,0.3-0.2c0.1,0,0.2,0.2,0.2,0.3 l0.2,0.3c0.1,0,0.2-0.2,0.3-0.2c0.1,0,0.2,0.2,0.2,0.3l0.2,0.3C42.8,16.5,42.6,16.6,42.7,16.7L42.7,16.7z M43.5,15 c0.1,0.1,0.2,0.2,0.2,0.3l-0.3,0.3c0,0-0.2,0.2-0.3,0.2c0,0-0.2-0.2-0.3-0.3l0.3-0.2C43.2,15.3,43.3,15,43.5,15L43.5,15z M45,15.6c-0.1,0-0.2,0.2-0.3,0.3s-0.2-0.2-0.2-0.3c-0.1-0.1-0.2-0.2-0.3-0.3c-0.1-0.1-0.2-0.2-0.2-0.3l-0.5-0.5 c0.1,0,0.2-0.2,0.3-0.2c0.1,0,0.2,0.2,0.2,0.3L45,15.6z M45,25.4c-0.1,0.1-0.2,0.2-0.3,0.2c-0.1-0.1-0.2-0.2-0.3-0.3 c0.1-0.1,0.2-0.2,0.3-0.2C44.8,25.2,44.9,25.3,45,25.4L45,25.4z M44.2,27.7c0-0.1,0.2-0.2,0.3-0.2c0-0.1-0.2-0.2-0.2-0.3 s0.2-0.2,0.3-0.2s-0.3-0.2-0.2-0.3c0-0.1,0.2-0.2,0.3-0.2c0-0.1,0.2-0.3,0.3-0.2c0.1,0.1,0.2,0.2,0.2,0.3l-0.3,0.1l0.2,0.3 c0,0,0.2,0.2,0.2,0.3s-0.2,0.2-0.3,0.2s-0.3,0.2-0.3,0.2s0.2,0.2,0.3,0.3s0.2,0.2,0.2,0.3s-0.2,0.2-0.3,0.2l-0.5-0.5 c0,0-0.2-0.2-0.2-0.2L44.2,27.7z M44.2,16.4c-0.1,0-0.2,0.2-0.3,0.2c-0.1,0-0.2,0.3-0.3,0.2s-0.2-0.2-0.2-0.3l0.3-0.2 c0.1-0.1,0.2-0.2,0.3-0.2c0,0,0.2-0.2,0.3-0.2c0.1,0,0.2,0.2,0.2,0.3c0,0,0.2,0.2,0.2,0.3c0,0-0.2,0.2-0.3,0.2 c0,0-0.3-0.4-0.3-0.4L44.2,16.4z M43.6,17.9l0.2,0.3c0,0,0.2,0.2,0.2,0.3c-0.1,0.1-0.2,0.2-0.3,0.2l-0.2-0.3l-0.2-0.3 C43.4,18,43.5,17.8,43.6,17.9L43.6,17.9z M40.3,29.9c0-0.1,0.2-0.2,0.3-0.2c0-0.1-0.2-0.2-0.2-0.3c0.1-0.1,0.2-0.2,0.3-0.2 l0.3,0.3l0.2,0.3c0-0.1,0.3-0.2,0.3-0.2c0-0.1-0.2-0.2-0.2-0.3c0,0-0.3-0.2-0.2-0.3c0,0,0.2-0.2,0.3-0.2l0.5,0.5 c0.1,0,0.2-0.2,0.3-0.2c0.1,0,0.2,0.2,0.2,0.3l0.2,0.3c0.1,0,0.2-0.2,0.3-0.2s0.2,0.3,0.2,0.3c0.1,0,0.2-0.3,0.3-0.2 c0.1,0.1,0.2,0.2,0.2,0.3l0.2,0.3l0.3-0.2c0,0.1,0.2,0.2,0.2,0.3c-0.1,0.1-0.2,0.2-0.3,0.2c-0.1,0-0.2-0.2-0.2-0.3 S43.4,30,43.3,30s-0.2-0.2-0.2-0.3L42.9,30c0,0-0.2,0.2-0.3,0.2c-0.1,0-0.2-0.3-0.2-0.3s-0.2,0.3-0.3,0.2c-0.1,0-0.2-0.3-0.2-0.3 s-0.2,0.3-0.3,0.2c-0.1,0-0.2-0.3-0.2-0.3c-0.1,0-0.2,0.2-0.3,0.2l0.5,0.5c0.1,0.1,0.2,0.2,0.2,0.3c0,0,0.3,0.2,0.3,0.3 s-0.2,0.2-0.3,0.3c0,0.1,0.3,0.2,0.3,0.3c-0.1,0.1-0.2,0.2-0.3,0.2c0,0-0.2-0.2-0.2-0.3l-0.3-0.3l-0.2-0.3c0-0.1-0.2-0.2-0.2-0.3 c0-0.1,0.3-0.2,0.3-0.2s-0.2-0.2-0.3-0.3c0-0.1-0.2-0.2-0.2-0.3C40.5,30.1,40.3,29.9,40.3,29.9L40.3,29.9z"/><path class="st3" d="M38.8,17.3L38.8,17.3l-0.1-0.2L38.8,17.3z"/></g><path class="st4" d="M26.1,7.4c2.4,0.1,4.7,0.8,6.7,2l0.1-0.2c0.1-0.1,0.2-0.2,0.3-0.3s0.2,0.3,0.3,0.3s0.2-0.2,0.2-0.3l0.8,0.8 l0.2-0.3c0,0,0.2-0.3,0.3-0.3c0,0,0.2,0.2,0.3,0.2l0.3,0.3l0.3,0.2l0.3,0.3l0.3,0.2c0,0.1-0.3,0.2-0.3,0.3c0,0.1,0.2,0.2,0.3,0.2 l0.3,0.3c0,0,0.2,0.3,0.3,0.3c0,0,0.2-0.3,0.3-0.3c0.1,0,0.2,0.2,0.3,0.3c0.1,0,0.2-0.3,0.3-0.3s0.2,0.2,0.3,0.3l-0.5,0.5 c-0.1,0-0.2-0.3-0.3-0.2c-0.1,0-0.2,0.3-0.3,0.3c-0.1,0-0.2-0.2-0.3-0.2c-0.1-0.1-0.2-0.2-0.3-0.3L36,11.4l-0.3-0.2l-0.3-0.2 l-0.3-0.3l-0.8-0.8c-0.1,0-0.2,0.2-0.3,0.3S34,9.9,33.9,9.9l-0.3-0.3c-0.1,0-0.2,0.3-0.3,0.3c-0.1,0-0.2-0.3-0.3-0.3 c-0.1,0-0.1,0-0.1,0.1c1.4,1,2.6,2.1,3.6,3.5c0.3,0.6,1,0.7,1.6,0.4c0,0,0,0,0,0h0.1l3.8-2.3c0.4-0.3,0.7-0.8,0.5-1.3 c-0.2-0.3-0.5-0.6-0.8-1l-0.1,0.1c-0.1-0.1-0.2-0.2-0.3-0.3l0.1-0.1c-3.3-4-8-6.7-13.1-7.7l0,0L28,0.9l0.4,0.4 c-0.1,0-0.2,0.3-0.3,0.3s-0.2-0.2-0.3-0.3c-0.1-0.1-0.2-0.2-0.3-0.3l-0.2-0.2c-0.6-0.1-1.2-0.1-1.8-0.2c-0.5,0.2-0.8,0.6-0.8,1.2 l0.1,4.5C24.9,6.9,25.4,7.5,26.1,7.4L26.1,7.4z M35.9,5.8C36,5.9,36.1,5.9,36.2,6C36.1,6.1,36,6.2,36,6.3 c-0.1-0.1-0.2-0.2-0.3-0.2C35.8,5.9,35.9,5.9,35.9,5.8z M37,5.3c-0.1,0.1-0.2,0.2-0.3,0.3c-0.1,0-0.2-0.2-0.3-0.3l-0.3,0.3 c0-0.1-0.3-0.2-0.3-0.3C36,5.2,36.1,5.1,36.2,5c0.1,0,0.2,0.2,0.3,0.2L36.7,5C36.7,5.1,37,5.2,37,5.3L37,5.3z M38.7,6 c-0.1,0.1-0.2,0.2-0.3,0.3L38.2,6L38,5.8c0.1,0,0.2-0.2,0.3-0.3c0.1,0,0.2,0.2,0.3,0.2C38.5,5.8,38.7,6,38.7,6L38.7,6z M40.3,8 c-0.1,0.1-0.2,0.2-0.3,0.3L39.8,8l-0.3-0.3c0.1,0,0.2-0.2,0.3-0.3c0.1,0,0.2,0.2,0.3,0.2S40.3,8,40.3,8z M39.5,10.8l0.5-0.5 l0.5,0.5L40,11.3L39.5,10.8z M39.3,9.5c0.1-0.1,0.2-0.2,0.3-0.3c0.1,0.1,0.2,0.2,0.3,0.3c-0.1,0.1-0.2,0.2-0.3,0.3 C39.4,9.7,39.3,9.6,39.3,9.5L39.3,9.5z M37.3,8.5c0-0.1,0.2-0.2,0.2-0.3c0-0.1-0.2-0.2-0.3-0.3c0-0.1,0.3-0.2,0.3-0.3 c0-0.1-0.3-0.2-0.3-0.3c0.1-0.1,0.2-0.2,0.2-0.3L37.7,7L38,6.8l0.5,0.5c0.1,0.1,0.2,0.2,0.3,0.2c0,0,0.3,0.2,0.3,0.3 c0,0.1-0.3,0.2-0.3,0.3c0,0.1,0.3,0.2,0.3,0.3c0,0.1-0.2,0.2-0.3,0.3S39,8.7,39,8.8C38.9,8.9,38.8,9,38.8,9l-0.3-0.3l-0.3-0.3 c0-0.1-0.2-0.2-0.3-0.3c0-0.1,0.3-0.2,0.3-0.3C38.2,8,38,7.9,38,7.8l-0.5,0.5l0.3,0.2c0,0,0.3,0.2,0.3,0.3c0,0-0.2,0.2-0.3,0.3 l0.5,0.5c-0.1,0-0.2,0.3-0.3,0.3s-0.2-0.2-0.3-0.2s-0.3-0.2-0.3-0.3c0,0,0.2-0.2,0.3-0.3l-0.3-0.3C37.5,8.8,37.2,8.6,37.3,8.5 L37.3,8.5z M37,6.8c-0.1,0-0.2-0.2-0.3-0.3L37,6.3c0,0,0.2-0.3,0.3-0.3c0.1,0.1,0.2,0.2,0.3,0.2l-0.2,0.3C37.2,6.5,37,6.8,37,6.8 L37,6.8z M36.8,10.6c0.1-0.1,0.2-0.2,0.2-0.3c0.1,0.1,0.2,0.2,0.3,0.2c-0.1,0.1-0.2,0.2-0.3,0.3C36.9,10.7,36.8,10.7,36.8,10.6 L36.8,10.6z M35.7,9.1c0.1,0,0.2-0.3,0.2-0.3s0.2,0.2,0.3,0.3c0.1,0.1,0.2,0.2,0.3,0.3l0.3,0.2c-0.1,0-0.2,0.3-0.3,0.3 c-0.1,0-0.2-0.2-0.3-0.3c-0.1-0.1-0.2-0.2-0.3-0.2L35.7,9.1z M34.2,8.6c0.1,0,0.2-0.2,0.2-0.3c0.1,0,0.2,0.2,0.3,0.2 c0,0,0.3,0.2,0.3,0.2c-0.1,0.1-0.2,0.2-0.3,0.3l-0.3-0.3L34.2,8.6z M32.4,8.8c0.1-0.1,0.2-0.2,0.2-0.3c0.1,0.1,0.2,0.2,0.3,0.3 c-0.1,0.1-0.2,0.2-0.3,0.3C32.6,9,32.5,8.9,32.4,8.8z M29.6,3.1c0.1-0.1,0.2-0.2,0.2-0.3C29.9,2.9,30,3,30.1,3.1 C30,3.2,30,3.2,29.9,3.3C29.8,3.2,29.7,3.2,29.6,3.1L29.6,3.1z M28.5,6.9c0-0.1,0.2-0.2,0.3-0.3l-0.3-0.3c0.1,0,0.2-0.3,0.2-0.3 c0.1,0.1,0.2,0.2,0.3,0.3c0,0.1-0.2,0.2-0.2,0.3l0.5,0.5c-0.1,0-0.2,0.3-0.3,0.3c-0.1,0-0.2-0.2-0.3-0.3 C28.6,7.1,28.4,6.9,28.5,6.9L28.5,6.9z M27.4,2.8l0.3-0.3c0,0,0.2-0.3,0.3-0.3c0.1,0.1,0.2,0.2,0.3,0.3c0,0.1-0.2,0.2-0.3,0.3l1,1 c0,0-0.2,0.3-0.3,0.3c-0.1-0.1-0.2-0.2-0.3-0.3L27.4,2.8z M26.1,4.1l0.5-0.5c0.1,0.1,0.2,0.2,0.3,0.2c0.1,0.1,0.3,0.2,0.3,0.3 c0,0-0.3,0.2-0.2,0.3c0,0,0.2,0.2,0.3,0.3c0.1,0.1,0.3,0.2,0.3,0.2S27.1,5,27.1,5.1c0,0.1-0.2,0.3-0.2,0.3c-0.1,0-0.2-0.2-0.3-0.2 c0,0,0.3-0.2,0.3-0.3c0,0-0.2-0.2-0.3-0.3c-0.1-0.1-0.2-0.2-0.3-0.2L26.1,4.1z"/><polygon class="st2" points="17.8,43.7 6.1,47.9 10.7,38.7 "/></g><g><g><path class="st5" d="M14.4,25.6c0.6,0.6,1.3,0.9,2.1,0.9c0.8,0,1.2-0.4,1.2-0.9c0-0.5-0.5-0.9-1.3-0.9h-0.6l-0.4-1.1l1-1.6 c0.2-0.3,0.4-0.6,0.7-0.9l0,0c-0.3,0-0.6,0.1-0.9,0.1h-0.2c-0.1,0-0.3,0.1-0.3,0.2c0,0,0,0,0,0v0.5h-2v-1.8 c0-0.6,0.2-0.9,0.8-0.9h5.2v1.4L18,22.9c1.2,0.3,2,1.4,2,2.6c0,1.7-1.4,3.1-3.2,3.1c-0.1,0-0.2,0-0.3,0c-1.2,0-2.4-0.4-3.2-1.3 L14.4,25.6z"/></g><g><path class="st5" d="M20.7,24.3c0-2.5,1.5-5.1,4.3-5.1c0.7,0,1.4,0.1,2,0.4l-0.6,1.9c-0.4-0.2-0.8-0.3-1.2-0.3 c-0.9,0-1.7,0.6-1.9,1.5l0,0c0.4-0.2,0.8-0.3,1.2-0.3c1.6,0,3,1.3,3,3c0,0,0,0.1,0,0.1c0,1.7-1.3,3-3,3.1c0,0-0.1,0-0.1,0 C22.5,28.6,20.7,27.2,20.7,24.3z M24.3,26.6c0.5,0,0.9-0.5,0.9-1c0,0,0,0,0,0c0-0.7-0.5-1.3-1.2-1.3c-0.1,0-0.1,0-0.2,0 c-0.5,0-0.9,0.1-0.9,0.5C22.9,25.7,23.5,26.5,24.3,26.6z"/></g><g><path class="st5" d="M29.3,25.6c0.6,0.5,1.3,0.8,2.1,0.9c0.6,0,1.1-0.4,1.2-1c0,0,0,0,0,0c0-0.8-0.8-1.2-1.7-1.2 c-0.6,0-1.1,0.1-1.7,0.3l-0.7-0.4l0.3-4c0-0.6,0.3-0.9,0.9-0.9h3.6c0.6,0,0.9,0.3,0.9,0.9V22h-2v-0.5c0-0.1-0.1-0.3-0.2-0.3 c0,0,0,0,0,0h-0.9c-0.2,0-0.3,0.1-0.3,0.3v0.6c0,0.2,0,0.4,0,0.4l0,0c0.2,0,0.4,0,0.6,0c2.3,0,3.5,1.3,3.5,3 c0,1.8-1.5,3.2-3.2,3.1c-0.1,0-0.2,0-0.2,0c-1.2,0-2.3-0.4-3.2-1.2L29.3,25.6z"/></g></g></g></svg> 