<?xml version="1.0" encoding="UTF-8" standalone="no"?><svg xmlns="http://www.w3.org/2000/svg" version="1.2" viewBox="0 0 37 37"><path fill="#241444" d="M5.309 27l-.4-.8q-.2-.3-.4-.7-.2-.4-.3-.8l-.4-.8c-1.3-3.5-1.2-7.4-1.2-11.1q.1-1.3.1-2.5V6.6 1.7s6-1.7 16.2-1.7c4.4 0 8 .3 10.7.7-2.5 4.7-11.8 20.7-24.3 26.3zm3.8-16.8l-.4-.2q-.1-.1-.3-.1-.2 0-.4.1l-.4.2q-.1.2-.2.3-.1.2-.1.4t.1.4q.1.2.2.3l3.1 3.1q.1.1.3.2.2.1.4.1t.4-.1q.2-.1.3-.2l7-7q.1-.2.2-.3.1-.2.1-.4t-.1-.4q-.1-.2-.2-.3-.1-.2-.3-.3h-.8q-.2.1-.3.3l-6.3 6.2-2.3-2.3z" class="prefix__s0" fill-rule="evenodd"/><path fill="#241444" d="M24.409 12.2c3.7-5 6-9.5 6.9-11.2 2.2.4 3.3.7 3.3.7v5.8c-1.8 3.7-9 16.6-23.6 25.5l-1.2-1q-.6-.5-1.2-1.1l-1-1.2q-.5-.6-1-1.3c6.1-2.8 12.1-8.3 17.8-16.2z" class="prefix__s0"/><path fill="#241444" d="M34.509 12c.1 4 .3 8.2-1.1 11.8-2.6 6.6-8.1 11.2-14.8 13.2q-.8-.2-1.6-.5-.7-.3-1.5-.6-.7-.4-1.5-.7-.7-.4-1.4-.9c11.8-7.3 18.7-16.8 21.9-22.3z" class="prefix__s0"/></svg>