<?xml version="1.0" encoding="utf-8"?><svg xmlns="http://www.w3.org/2000/svg" viewBox="0 0 48 48"><path d="M40.3 48H7.7C3.5 48 0 44.5 0 40.3V7.7C0 3.5 3.5 0 7.7 0h32.5C44.5 0 48 3.5 48 7.7v32.5c0 4.3-3.5 7.8-7.7 7.8z" fill="#ff5a00"/><path d="M30 32.2c-.5.2-.9.2-1.4.2-1.5 0-2.3-.8-3-2.1-.2-.4-.4-1.2-.4-1.2v-6.7H31l-.3-2.7c-.1-1.3-1.3-2.3-2.6-2.3h-2.8V9s-1.7.1-2.3.2c-2.9.2-4.9 2.2-4.9 4.5v3.9l-5.1.1v1.9c0 1.5 1.2 2.7 2.7 2.7h2.4v7.9c0 2.8 1.6 5.4 4 6.8 2.5 1.4 5.5 1.3 7.9-.2v-4.6z" fill="#fff"/></svg>