<?xml version="1.0" encoding="UTF-8" standalone="no"?><svg width="278" height="278" xmlns="http://www.w3.org/2000/svg"><g><title>background</title><rect fill="none" id="canvas_background" height="280" width="280" y="-1" x="-1"/></g><g><title>Layer 1</title><path id="svg_1" fill="#da3843" d="m177,38.5c-55.5,0 -100.5,45 -100.5,100.5s45,100.5 100.5,100.5s100.5,-45 100.5,-100.5s-45,-100.5 -100.5,-100.5zm0,125.6c-14,0 -25.1,-11.1 -25.1,-25.1s11.1,-25.1 25.1,-25.1s25.1,11.1 25.1,25.1s-11.7,25.1 -25.1,25.1zm-176.5,-25.1c0,-14 11.1,-25.1 25.1,-25.1s25.2,11.1 25.2,25.1s-11.1,25.1 -25.1,25.1s-25.2,-11.1 -25.2,-25.1"/></g></svg>