<?xml version="1.0" encoding="utf-8"?><svg version="1.1" id="Layer_1" xmlns="http://www.w3.org/2000/svg" xmlns:xlink="http://www.w3.org/1999/xlink" x="0px" y="0px" viewBox="0 0 48 48" style="enable-background:new 0 0 48 48;" xml:space="preserve"><style type="text/css"> .st0{fill:#583091;} .st1{fill-rule:evenodd;clip-rule:evenodd;fill:#583091;} </style><g><g id="Group-2"><g id="SVGID_1_-link"><path id="SVGID_1_" class="st0" d="M24,47.9L10.4,34.1V34c-0.3-0.3-0.7-0.7-1-1c-0.1-0.1-0.3-0.3-0.3-0.4 c-0.3-0.4-0.6-0.7-0.8-1.1C8.1,31.3,8,31.2,8,31c-0.3-0.4-0.6-0.8-0.7-1.1c-0.1-0.1-0.1-0.3-0.3-0.6c-0.1-0.4-0.4-0.8-0.6-1.3 c-0.1-0.1-0.1-0.3-0.3-0.6c-0.4-0.3-0.6-0.7-0.7-1.1c0-0.1-0.1-0.4-0.1-0.6C5.2,25.4,5,25,5,24.6c0-0.1-0.1-0.4-0.1-0.6 c-0.1-0.4-0.1-1-0.1-1.4c0-0.1,0-0.4-0.1-0.6c-0.3-0.8-0.3-1.4-0.3-2.1l0,0C4.3,13,7.8,7,13,3.5c3.1-2.1,6.9-3.4,11-3.4 s7.9,1.3,11,3.4c5.3,3.7,8.7,9.5,8.7,16.4l0,0c0,0.7,0,1.4-0.1,2.1c0,0.1,0,0.4-0.1,0.6c0,0.4-0.1,1-0.3,1.4 c0,0.1-0.1,0.4-0.1,0.6c-0.1,0.4-0.1,0.8-0.3,1.3c0,0.1-0.1,0.4-0.3,0.6c-0.1,0.4-0.3,0.8-0.4,1.3c-0.1,0.1-0.1,0.3-0.3,0.6 c-0.1,0.4-0.4,0.8-0.6,1.3C41,29.6,41,29.8,40.9,30c-0.3,0.4-0.4,0.8-0.7,1.1c-0.1,0.1-0.3,0.3-0.3,0.4c-0.3,0.4-0.6,0.7-0.8,1.1 c-0.1,0.1-0.3,0.3-0.3,0.4c-0.3,0.3-0.6,0.7-1,1L24,47.9 M10,20.1L10,20.1c0,0.6,0,1,0.1,1.4c0,0.1,0,0.3,0,0.4 c0,0.3,0.1,0.7,0.1,1c0,0.1,0.1,0.3,0.1,0.4c0.1,0.3,0.1,0.6,0.3,1c0,0.1,0.1,0.3,0.1,0.4c0.1,0.3,0.1,0.6,0.3,0.8 c0,0.1,0.1,0.3,0.1,0.4c0.1,0.3,0.3,0.6,0.4,0.8c0,0.1,0.1,0.3,0.1,0.3c0.1,0.3,0.3,0.6,0.6,0.8c0.1,0.1,0.1,0.1,0.3,0.3 c0.1,0.3,0.4,0.6,0.6,0.7c0.1,0.1,0.1,0.1,0.3,0.3c0.3,0.3,0.4,0.6,0.7,0.7l9.8,9.8l9.8-9.8c0.3-0.3,0.4-0.4,0.7-0.7 c0.1-0.1,0.1-0.1,0.3-0.3c0.3-0.3,0.4-0.6,0.6-0.7c0.1-0.1,0.1-0.1,0.3-0.3c0.1-0.3,0.4-0.6,0.6-0.8c0.1-0.1,0.1-0.1,0.1-0.3 c0.1-0.3,0.3-0.6,0.4-0.8c0-0.1,0.1-0.3,0.1-0.4c0.1-0.3,0.3-0.6,0.3-0.8c0-0.1,0.1-0.3,0.1-0.4c0.1-0.3,0.1-0.6,0.3-1 c0-0.1,0.1-0.3,0.1-0.4c0.1-0.3,0.1-0.7,0.1-1c0-0.1,0-0.3,0-0.4c0-0.4,0.1-1,0.1-1.4l0,0c0-4.8-2.5-9-6.2-11.5 C29.6,7,26.9,6.2,24,6.2S18.4,7,16.1,8.6C12.3,10.9,10,15.2,10,20.1L10,20.1"/></g></g><path id="Rectangle" class="st1" d="M20.5,14.9h7c1.2,0,2.1,0.9,2.1,2.1v7c0,1.2-0.9,2.1-2.1,2.1h-7c-1.2,0-2.1-0.9-2.1-2.1v-7 C18.4,15.8,19.3,14.9,20.5,14.9z"/></g></svg>