<?xml version="1.0" encoding="utf-8"?><svg xmlns="http://www.w3.org/2000/svg" viewBox="0 0 48 48"><path d="M24 1.1C11.3 1.1 1 11.3 1 24s10.3 22.9 23 22.9S47 36.7 47 24 36.7 1.1 24 1.1zm0 42.8C13.1 43.9 4.3 35 4.3 24S13.1 4.1 24 4.1s19.7 9 19.7 19.9S34.9 43.9 24 43.9z" fill="#298541" stroke="#298541"/><path d="M33.3 12.2c-1 0-1.4.4-1.4 1.5v16.9L16.1 12.9s-.5-.7-1.4-.7-1.4.5-1.4 1.7v20.5c0 .9.5 1.5 1.4 1.5.9 0 1.4-.5 1.4-1.5V17l15.6 17.9c.6.7 1 .9 1.7.9.8 0 1.2-.5 1.2-1.5V13.7c0-1-.4-1.5-1.3-1.5z" fill="#298541" stroke="#298541" stroke-width="2"/></svg>