<?xml version="1.0" encoding="utf-8"?><svg version="1.1" id="prefix__Layer_1" xmlns="http://www.w3.org/2000/svg" x="0" y="0" viewBox="0 0 48 48" xml:space="preserve"><style>.prefix__st0{fill:#fff}</style><path class="prefix__st0" d="M46.1-320.8c-16.8 0-23.3 4.5-23.3 9.7 0 3.9 2.3 6.4 2.9 7 2.2-1.4 8.5-5 18.5-5 12.7 0 17.2 6 17.2 12.5v1.9C32-291.6 17-286.1 17-268.5c0 12 9 21 21.6 21 12.7 0 19.9-6.6 23.1-9.5v8.1h12.8v-48.2c.1-15.6-11.2-23.7-28.4-23.7z"/><path class="prefix__st0" d="M61.4-268.3c-5.9 6.1-11.9 9.1-19.6 9.1-7.4 0-11.4-4.8-11.4-9.8 0-7.2 5.8-13.3 30.9-15.7v16.4h.1zM276.7-320.8c-16.8 0-23.3 4.5-23.3 9.7 0 3.9 2.3 6.4 2.9 7 2.2-1.4 8.5-5 18.5-5 12.7 0 17.2 6 17.2 12.5v1.9c-29.4 3.1-44.4 8.6-44.4 26.2 0 12 9 21 21.6 21 12.7 0 19.9-6.6 23.1-9.5v8.1h12.8v-48.2c0-15.6-11.3-23.7-28.4-23.7z"/><path class="prefix__st0" d="M292-268.3c-5.9 6.1-11.9 9.1-19.6 9.1-7.4 0-11.4-4.8-11.4-9.8 0-7.2 5.8-13.3 30.9-15.7l.1 16.4zM103.7-310.4c0-6.9-3.9-10.4-9.1-10.4-1.2 0-2.5.2-3.8.7v71.2h13.1v-41.6c3.7-8.8 12.6-17 24.2-17v-13.3c-12.5 0-19.6 6-24.4 15v-4.6zM149.6-310.1v-.3c0-6.9-3.7-10.4-8.9-10.4-1.2 0-2.5.2-3.8.7v71.2H150v-48.7c3.9-5.3 11.8-11.5 18.8-11.5 7.7 0 11.5 5 11.5 12.2v48h13.1v-48.7c4.5-6.1 11.8-11.5 18.8-11.5 7.7 0 11.5 5 11.5 12.2v48h13.1v-48.7c0-13.3-6-23.2-22.2-23.2-9.9 0-17.2 5.3-23.1 11.8-2-4.7-6.5-11.8-20.3-11.8-9.5 0-16.3 5-21.6 10.7zM295.9-334.2h6.5v1.3H300v7.4h-1.7v-7.4h-2.4v-1.3zm15.3 8.8c0-2.2-.2-4.9-.7-7.1-1.1 1.6-1.8 3.5-2.1 5.3h-1c-.3-1.8-1.1-3.7-2.1-5.3-.5 2.2-.7 4.9-.7 7.1h-1.7c0-2.8.3-6 1-8.7h1.5c.9 1.1 1.9 2.8 2.4 4.4.6-1.6 1.5-3.4 2.4-4.4h1.5c.7 2.7 1 6 1 8.7h-1.5z"/><path fill="#008600" d="M0 0h48v48H0z"/><path class="prefix__st0" d="M12 27.2c0-3.9 2-5.9 5.1-5.9 2.3 0 3.8.9 4.3 1.2.4-.4.7-1 .7-1.7 0-1.1-1.3-2.3-5.1-2.3-4.5 0-8.2 3-8.2 8.7 0 5.5 3.4 8.6 7.8 8.6 2.7 0 4.8-.8 5.4-1.2v-3.1c-.7.5-2.9 1.5-4.9 1.5-2.9.1-5.1-1.8-5.1-5.8zM34.2 27.1c2-2.3 3.8-5 5.1-8.3l-2.9-1.1c-1.8 4.8-4.6 8-7.9 10.7V12.1h-3.1v23.5h3.1v-3.5c1.2-.8 2.3-1.7 3.4-2.8l2.8 4.8c.7 1.2 1.7 1.8 3.1 1.8.8 0 1.3-.3 1.4-.4l-5-8.4z"/></svg>