<?xml version="1.0" encoding="UTF-8" standalone="no"?><svg xmlns="http://www.w3.org/2000/svg" version="1.0" width="32.000000pt" height="32.000000pt" viewBox="0 0 32.000000 32.000000" preserveAspectRatio="xMidYMid meet" id="svg289"><g transform="matrix(0.06690449,0,0,-0.0915052,5.800624,31.384168)" id="g287" style="fill:#000000;stroke:none"><path d="M 113,260 C 95,250 73,229 64,215 50,194 41,190 21,194 l -26,6 28,-23 c 15,-12 27,-29 27,-36 0,-23 32,-68 60,-85 41,-24 98,-20 154,12 27,15 52,33 54,41 3,10 -4,8 -24,-6 -72,-52 -163,-48 -183,8 -11,33 -11,33 51,44 37,6 78,43 78,71 0,23 -39,54 -67,54 -16,0 -42,-9 -60,-20 z m 107,-24 c 0,-20 -42,-53 -78,-61 l -34,-7 18,27 c 20,31 73,67 86,59 4,-3 8,-11 8,-18 z" id="path285"/></g></svg>