<?xml version="1.0" encoding="utf-8"?><svg version="1.1" id="prefix__Layer_1" xmlns="http://www.w3.org/2000/svg" x="0" y="0" viewBox="0 0 48 48" xml:space="preserve"><style>.prefix__st0{fill:#ef3742}.prefix__st1{fill:#00a0dd}</style><path class="prefix__st0" d="M20.1 28.6c-1.2 2.6-3.5 4.1-6.3 4.1-3.9 0-7.1-3.5-7.1-7.7s3.2-7.7 7.1-7.7c2.8 0 5.1 1.5 6.3 4.1v.1h3l-.1-.3c-1.3-4.1-4.8-6.7-9.2-6.7-5.5 0-9.9 4.7-9.9 10.4s4.5 10.5 9.9 10.5c4.3 0 7.8-2.6 9.2-6.7l.1-.3h-2.9l-.1.2z"/><path class="prefix__st0" d="M13.2 22.7H15v5.4h-1.8v-5.4z"/><circle class="prefix__st0" cx="17.6" cy="23.5" r="1.1"/><circle class="prefix__st0" cx="10.7" cy="23.5" r="1.1"/><g><path class="prefix__st1" d="M33.4 25.3v2.5h6.3l.1-.1c.2-.4.3-.8.4-1.2.1-.4.1-.8.1-1.2h-6.9z"/><path class="prefix__st1" d="M41.4 25.3c-.1 4.2-3.2 7.3-7 7.3-4 0-7.2-3.5-7.2-7.7s3.3-7.7 7.2-7.7c2.7 0 5 1.5 6.2 4.1v.1h3l-.1-.3c-1.4-4.1-5-6.8-9.2-6.8-5.6 0-10.1 4.7-10.1 10.5s4.5 10.5 10.1 10.5c2.5 0 5-1 6.8-2.8 1.9-2 3-4.6 2.9-7.3.1.1-2.6.1-2.6.1z"/><circle class="prefix__st1" cx="34.3" cy="22.4" r="1.1"/><circle class="prefix__st1" cx="38.6" cy="22.4" r="1.1"/></g></svg>