<?xml version="1.0" encoding="UTF-8" standalone="no"?><svg xmlns="http://www.w3.org/2000/svg" version="1.1" id="svg2" viewBox="0 0 30 30"><path style="fill:#000000;fill-opacity:1;stroke:none;stroke-width:1px;stroke-linecap:butt;stroke-linejoin:miter;stroke-opacity:1" d="M 0.08609094,0 V 30 H 30.086091 V 0 Z" id="path145"/><path style="fill:#ffffff;fill-opacity:1;stroke:none;stroke-width:1.22413146px;stroke-linecap:butt;stroke-linejoin:miter;stroke-opacity:1" d="M 0.08609095,-0.31595616 V 14.41754 H 16.106179 l 1.944898,-1.15244 h 2.216164 l -1.029562,1.056661 H 30.045737 V -0.63624956 H 13.401489 L 13.936925,-1.5880615 H 10.07264 v 1.37886988 z" id="path127"/><path style="fill:#030303;fill-opacity:1;stroke:none;stroke-width:1px;stroke-linecap:butt;stroke-linejoin:miter;stroke-opacity:1" d="M 7.8342753,12.265267 V 5.8945377 L 9.0637476,5.1847015 9.6896033,4.1006869 h 1.5022187 l 0.620776,-2.3167668 h 1.531497 l -0.643335,2.4009615 0.389226,0.6741608 1.908735,0.5114439 v 6.8086897 l -0.870358,0.870359 -1.343859,-1.343859 -0.450998,-0.781151 H 9.9004573 l -0.131492,0.490735 -0.8701682,1.507176 z" id="path129"/><path style="fill:#ffffff;fill-opacity:1;stroke:none;stroke-width:1px;stroke-linecap:butt;stroke-linejoin:miter;stroke-opacity:1" d="M 9.9004573,6.4971742 V 8.9938114 H 12.655368 V 6.4971742 Z" id="path131"/><path style="fill:#010101;fill-opacity:1;stroke:none;stroke-width:1px;stroke-linecap:butt;stroke-linejoin:miter;stroke-opacity:1" d="m 17.218187,4.3449008 v 7.9203662 l 1.033092,0.430455 0.947,-0.516546 V 9.1659933 h 0.774818 l 3.013183,3.7880017 1.549637,-0.774819 -1.463546,-1.721819 V 8.132902 L 24.622008,6.5832652 22.51278,4.4740372 Z" id="path133"/><path style="fill:#fbfbfb;fill-opacity:1;stroke:none;stroke-width:1px;stroke-linecap:butt;stroke-linejoin:miter;stroke-opacity:1" d="m 18.595642,5.8945377 v 1.6357278 h 3.529729 V 5.8084467 Z" id="path135"/><path style="fill:#f5c400;fill-opacity:1;stroke:none;stroke-width:1px;stroke-linecap:butt;stroke-linejoin:miter;stroke-opacity:1" d="M 11.364004,17.344632 H 7.3177297 l -1.5926824,1.592683 v 4.864138 l 1.3128868,1.312886 0.7704655,1.334486 h 2.7807854 l 0.818152,-1.417081 v -3.81302 L 10.43867,20.250057 9.1256393,21.563088 v 2.324456 l -1.1518248,0.30863 v -5.043632 h 3.1319165 z" id="path137"/><path style="fill:#ffcc00;fill-opacity:1;stroke:none;stroke-width:1px;stroke-linecap:butt;stroke-linejoin:miter;stroke-opacity:1" d="m 13.258004,17.861178 v 8.436912 h 5.50982 v -1.80791 h -3.271455 l -0.752882,-1.304029 1.105689,-0.63837 h 2.660375 V 20.78827 h -2.841 l -0.833206,-1.443155 1.051109,-0.606858 h 2.795279 v -1.393625 l -2.098825,-1.211757 1.631244,-0.941799 v -1.634445 l -3.022202,1.744869 0.294425,1.09881 z" id="path139"/><path style="fill:#ffcc00;fill-opacity:1;stroke:none;stroke-width:1px;stroke-linecap:butt;stroke-linejoin:miter;stroke-opacity:1" d="m 20.747916,17.258541 v 8.178639 l 1.119182,1.119183 1.119182,-1.119183 v -2.238364 l 1.721819,-1.721819 1.80791,-1.807909 -1.674138,-0.966564 -0.787842,-1.364583 z" id="path141"/><path style="fill:#1b1500;fill-opacity:1;stroke:none;stroke-width:1px;stroke-linecap:butt;stroke-linejoin:miter;stroke-opacity:1" d="m 22.297553,18.894269 0.297096,1.10878 0.480964,0.833054 1.257742,-0.726158 -1.152239,-1.152239 z" id="path143"/></svg>