<?xml version="1.0" encoding="utf-8"?><svg xmlns="http://www.w3.org/2000/svg" viewBox="0 0 48 48"><ellipse cx="25.3" cy="23.8" rx="18.6" ry="19.7" fill="#fff"/><path d="M23.9 48C10.6 48 0 37.2 0 23.8 0 10.6 10.8 0 24.2 0 37.4 0 48 10.9 48 24.2 48 37.4 37.2 48 23.9 48zM23 27.6c-.1 1.9 0 3.9-.5 5.8-.2.8-1.3 1.7-2.2 2-1.1.4-2.1-.4-2.5-1.6-.2-.6-.3-1.4-.4-2V15.4c0-.6.1-1.2.2-1.7.3-1.5 1.1-2.3 2.6-2.3 1.5.1 2.3 1 2.4 2.5.1 1.3.2 2.5.3 3.8.3.1.5.2.7.1 4.3-.1 4.2.8 3.8-3.9-.2-4-3.2-6.9-7.2-6.9-3.9 0-7.1 2.9-7.3 7-.2 5.8-.2 11.6-.2 17.4 0 1.6.4 3.4 1 4.9 1.7 4.2 7.2 5 10.1 1.6.2-.2.5-.4.8-.7.5 1.5.8 3.1 2.9 2.1V23.4h-7.3c-.7 3.4-.6 3.5 2.8 4.2zm6.8-20c.3 7.5.6 14.8.9 22.2h3c.3-7.5.6-14.8 1-22.2h-4.9zm.2 31.8h4.4v-4.7H30v4.7z" fill="#25aae0"/></svg>