<?xml version="1.0" encoding="utf-8"?><svg version="1.1" id="prefix__Layer_1" xmlns="http://www.w3.org/2000/svg" x="0" y="0" viewBox="0 0 48 48" xml:space="preserve"><style>.prefix__st0{fill:#183029}</style><path class="prefix__st0" d="M32.6 12.9l-9 5.1-10.3-2.1s1.4-1.2 4.3-2.9c3-1.7 4.9-2.1 4.9-2.1s2.1-.1 5.3.6c3.2.7 4.8 1.4 4.8 1.4zm2.7 7.1c.5 4 .5 6.4.5 6.4s-.7.8-3.9 3.2c-2.8 2.1-5.3 3.3-5.3 3.3l-2.1-13.7 9.3-5.2s.9 1.9 1.5 6zm-12.4-.5L25 33.2s-2.7-.5-5.7-1.7c-3.5-1.4-5.2-2.3-5.2-2.3s-.7-1.9-1.3-5.7c-.5-3.4-.3-6.2-.3-6.2l10.4 2.2z"/><path class="prefix__st0" d="M45.7 21.8c0 4.9-1.7 9.6-4.5 13.2l3.3 13.2-12.2-6.4c-2.5 1.1-5.4 1.7-8.4 1.7-12 0-21.7-9.8-21.7-21.7S12 .1 24 .1s21.7 9.7 21.7 21.7zM32.6 37.3l6 3.2-1.7-6.5.1-.1c2.9-3.1 4.7-7.4 4.7-12.1C41.8 12 33.8 4 24 4S6.2 12 6.2 21.8s8 17.7 17.8 17.7c3.1 0 6-.8 8.6-2.2z"/></svg>