<?xml version="1.0" encoding="UTF-8" standalone="no"?><svg xmlns="http://www.w3.org/2000/svg" viewBox="0 0 30 30" version="1.1" xml:space="preserve" style="clip-rule:evenodd;fill-rule:evenodd;stroke-linejoin:round;stroke-miterlimit:2"><g id="g45" transform="matrix(0.25379968,0,0,0.25321173,-0.10394564,-0.0851353)"><g id="g41"><path id="path23" style="fill:none" d="m 90.122,25.919 c 9.794,7.909 14.582,18.125 15.472,30.487 C 104.85,80.267 93.592,95.603 74.253,102.18 51.91,108.912 37.752,103.465 24.052,89.506 l -2.283,14.192 c 23.825,15.656 58.427,23.438 80.336,1.831 22.501,-22.19 22.786,-60.732 -4.008,-83.61 z" /><clipPath id="_clip1"><path id="path25" d="m 90.122,25.919 c 9.794,7.909 14.582,18.125 15.472,30.487 C 104.85,80.267 93.592,95.603 74.253,102.18 51.91,108.912 37.752,103.465 24.052,89.506 l -2.283,14.192 c 23.825,15.656 58.427,23.438 80.336,1.831 22.501,-22.19 22.786,-60.732 -4.008,-83.61 z" /></clipPath><g id="g30" clip-path="url(#_clip1)"><path id="path28" style="fill:#feef7c" d="M 86.62,14.515 C 67.245,-5.676 35.122,-6.339 14.931,13.037 -5.26,32.412 -5.922,64.535 13.453,84.726 l 15.306,15.95 c 19.375,20.191 51.498,20.854 71.689,1.479 20.191,-19.376 20.854,-51.498 1.478,-71.69 z" /></g><path id="path32" style="fill:none" d="m 17.672,94.293 6.127,-5.351 C 9.814,69.124 9.228,40.11 28.367,24.137 42.554,12.297 70.704,6.16 93.225,25.989 l 3.488,-6.132 C 78.299,-0.586 50.493,-3.161 32.665,3.852 -11.083,21.061 -4.342,78.688 17.672,94.293 Z" /><clipPath id="_clip2"><path id="path34" d="m 17.672,94.293 6.127,-5.351 C 9.814,69.124 9.228,40.11 28.367,24.137 42.554,12.297 70.704,6.16 93.225,25.989 l 3.488,-6.132 C 78.299,-0.586 50.493,-3.161 32.665,3.852 -11.083,21.061 -4.342,78.688 17.672,94.293 Z" /></clipPath><g id="g39" clip-path="url(#_clip2)"><path id="path37" style="fill:#5cd3cb" d="M 89.418,17.312 C 70.042,-2.879 37.92,-3.542 17.728,15.834 -2.463,35.209 -3.125,67.332 16.25,87.523 l 15.306,15.95 c 19.375,20.191 51.498,20.854 71.689,1.479 20.191,-19.375 20.854,-51.498 1.478,-71.689 z" /></g></g><path id="path43" style="fill-rule:nonzero" d="m 8.333,59.138 c 0,28.054 22.746,50.8 50.8,50.8 28.059,0 50.804,-22.746 50.804,-50.8 0,-28.059 -22.745,-50.805 -50.804,-50.805 -28.054,0 -50.8,22.746 -50.8,50.805 z m 35.359,9.188 c 0.534,-1.69 -0.06,-3.532 -1.48,-4.593 -3.76,-2.808 -11.173,-8.344 -16.154,-12.064 -0.719,-0.537 -1.013,-1.474 -0.73,-2.326 0.283,-0.852 1.079,-1.426 1.977,-1.426 h 19.306 c 1.797,0 3.391,-1.152 3.956,-2.857 1.522,-4.597 4.547,-13.733 6.553,-19.789 0.282,-0.851 1.077,-1.427 1.974,-1.428 0.897,-0.001 1.695,0.572 1.979,1.422 2.027,6.061 5.088,15.212 6.625,19.807 0.569,1.699 2.16,2.845 3.952,2.845 4.567,0 13.365,0 19.355,0 0.895,0 1.691,0.572 1.975,1.422 0.284,0.85 -0.006,1.786 -0.722,2.325 -4.966,3.741 -12.383,9.327 -16.135,12.153 -1.412,1.063 -1.999,2.902 -1.466,4.586 1.451,4.582 4.361,13.771 6.327,19.978 0.274,0.867 -0.046,1.813 -0.791,2.335 -0.745,0.522 -1.742,0.501 -2.464,-0.053 -4.989,-3.83 -12.278,-9.425 -16.095,-12.354 -1.501,-1.152 -3.589,-1.149 -5.086,0.009 -3.78,2.922 -10.97,8.482 -15.917,12.307 -0.72,0.557 -1.719,0.582 -2.466,0.06 -0.747,-0.521 -1.069,-1.467 -0.795,-2.335 1.966,-6.225 4.872,-15.43 6.322,-20.024 z" /></g></svg>