<?xml version="1.0" encoding="UTF-8" standalone="no"?><svg xmlns="http://www.w3.org/2000/svg" version="1.1" id="svg2" viewBox="0 0 30 30"><path style="fill:#14316e;stroke-width:1.02128744" d="M 6.9675434,23.354964 C 6.1131138,19.625704 4.864739,13.862303 4.1933772,10.547404 3.5220153,7.232505 2.3038572,3.5032444 1.4863594,2.2601569 L 0,0 h 7.1124864 7.1124856 l -0.392448,2.7624151 c -0.215847,1.5193275 0.248691,5.9804831 1.032306,9.9136759 1.360707,6.829772 1.319055,7.382966 -0.926461,12.305305 -3.256707,7.138944 -5.0588878,6.71846 -6.9708256,-1.626432 z M 22.549047,6.2807082 C 22.908963,4.3266826 22.630707,2.4133032 21.855159,1.5092644 20.735611,0.20423438 21.19909,0 25.2802,0 h 4.719799 L 27.224437,2.8013194 C 25.697875,4.3420463 23.886217,6.4891969 23.198525,7.572765 22.10552,9.2949694 22.02379,9.1323788 22.549047,6.2807082 Z" id="path825"/></svg>