<?xml version="1.0" encoding="utf-8"?>
<!-- Generator: Adobe Illustrator 27.2.0, SVG Export Plug-In . SVG Version: 6.00 Build 0)  -->
<svg version="1.1" id="Layer_1" xmlns="http://www.w3.org/2000/svg" xmlns:xlink="http://www.w3.org/1999/xlink" x="0px" y="0px"
	 viewBox="0 0 48 48" style="enable-background:new 0 0 48 48;" xml:space="preserve">
<style type="text/css">
	.st0{fill:#EA4335;}
	.st1{fill:#FBBC04;}
	.st2{fill:#4285F4;}
	.st3{fill:#34A853;}
</style>
<g>
	<path class="st0" d="M23,22.9L2.8,44c0.8,2.9,3.8,4.6,6.7,3.8c0.4-0.1,0.9-0.3,1.3-0.5l22.7-12.9L23,22.9z"/>
	<path class="st1" d="M43.3,19.3l-9.8-5.6l-11,9.7l11.1,10.9l9.7-5.6c2.6-1.4,3.6-4.6,2.2-7.2C45.1,20.6,44.3,19.8,43.3,19.3
		L43.3,19.3z"/>
	<path class="st2" d="M2.8,4C2.7,4.4,2.7,4.9,2.7,5.4v37.3c0,0.5,0.1,0.9,0.2,1.4l20.8-20.6L2.8,4z"/>
	<path class="st3" d="M23.1,24l10.4-10.3l-22.6-13C10.1,0.3,9.1,0,8.1,0C5.7,0,3.5,1.6,2.8,4L23.1,24z"/>
</g>
</svg>
