<?xml version="1.0" encoding="utf-8"?><svg xmlns="http://www.w3.org/2000/svg" viewBox="0 0 48 48"><linearGradient id="prefix__a" gradientUnits="userSpaceOnUse" x1="1.737" y1="46.263" x2="46.263" y2="1.737"><stop offset=".05" stop-color="#078181"/><stop offset=".213" stop-color="#07997d"/><stop offset=".41" stop-color="#08af7a"/><stop offset=".599" stop-color="#08bc78"/><stop offset=".77" stop-color="#08c177"/></linearGradient><path d="M42.3 47.9H5.7c-3.1 0-5.5-2.5-5.5-5.5V5.7C.2 2.6 2.7.2 5.7.2h36.7c3.1 0 5.5 2.5 5.5 5.5v36.7c0 3-2.5 5.5-5.6 5.5z" fill="url(#prefix__a)"/><path d="M36.2 11.5c-1.3.2-9.7 1.1-15.9 2.7-8.8 2.2-8.6 9.5-8.6 12.4v9.8c0 .1.1.2.2 0C18 28.3 24.3 23 24.3 23c-.6.1-3.7 1.2-7.6 3.3V25c0-5 2.9-6.4 6.4-7.4 2.9-.8 8.2-1.2 8.2-1.2s-.4 3.1-1 9.5c-.4 4.7-3.8 5.7-8.6 5.7H19c-2.1 3.1-2.4 4.9-2.4 4.9h5.3c10 0 12.2-4.4 12.7-10.9.6-8.3 1.5-13.1 1.7-14 0 0 0-.1-.1-.1z" fill="#fff"/></svg>