<?xml version="1.0" encoding="utf-8"?><svg version="1.1" id="prefix__Layer_1" xmlns="http://www.w3.org/2000/svg" x="0" y="0" viewBox="0 0 48 48" xml:space="preserve"><style>.prefix__st1{fill:none}.prefix__st2{fill:#fefefe}</style><g id="prefix__Layer_1-2"><circle cx="24" cy="24" r="23.8" fill="#ff492c"/><circle class="prefix__st1" cx="24" cy="24" r="23.8"/><path class="prefix__st2" d="M33.7 22.1H27l-3.4 5.8h6.7l3.4 5.8 3.4-5.8-3.4-5.8zm.6-3.7h-4.1c.1-.6.5-1 1.3-1.4l.7-.4c1.3-.7 2-1.5 2-2.7 0-.8-.3-1.4-.9-1.9-.6-.5-1.3-.7-2.2-.7-.7 0-1.3.2-1.8.5-.6.3-1 .8-1.2 1.3l1.2 1.2c.5-.9 1.1-1.4 2-1.4.7 0 1.2.4 1.2.9 0 .4-.2.8-1.1 1.2l-.5.2c-1 .5-1.8 1.1-2.2 1.8-.4.7-.6 1.5-.6 2.6v.3h6.1v-1.5h.1z"/><path class="prefix__st1" d="M33.7 22.1H27l-3.4 5.8h6.7l3.4 5.8 3.4-5.8-3.4-5.8zm.6-3.7h-4.1c.1-.6.5-1 1.3-1.4l.7-.4c1.3-.7 2-1.5 2-2.7 0-.8-.3-1.4-.9-1.9-.6-.5-1.3-.7-2.2-.7-.7 0-1.3.2-1.8.5-.6.3-1 .8-1.2 1.3l1.2 1.2c.5-.9 1.1-1.4 2-1.4.7 0 1.2.4 1.2.9 0 .4-.2.8-1.1 1.2l-.5.2c-1 .5-1.8 1.1-2.2 1.8-.4.7-.6 1.5-.6 2.6v.3h6.1v-1.5h.1z"/><path class="prefix__st2" d="M24.2 31.8c-4.3 0-7.8-3.5-7.8-7.8s3.5-7.8 7.8-7.8l2.7-5.6c-.9-.2-1.8-.3-2.7-.3-7.5 0-13.6 6.1-13.6 13.6s6.1 13.6 13.6 13.6c2.9 0 5.7-.9 8-2.6l-2.9-5.1c-1.4 1.3-3.2 2-5.1 2z"/><path class="prefix__st1" d="M24.2 31.8c-4.3 0-7.8-3.5-7.8-7.8s3.5-7.8 7.8-7.8l2.7-5.6c-.9-.2-1.8-.3-2.7-.3-7.5 0-13.6 6.1-13.6 13.6s6.1 13.6 13.6 13.6c2.9 0 5.7-.9 8-2.6l-2.9-5.1c-1.4 1.3-3.2 2-5.1 2z"/></g></svg>