<?xml version="1.0" encoding="utf-8"?><svg xmlns="http://www.w3.org/2000/svg" viewBox="0 0 48 48"><path d="M24 48C10.7 48 0 37.3 0 24S10.7 0 24 0s24 10.7 24 24-10.7 24-24 24z" fill="#fff"/><path d="M28.9 12.4h-3.4c-.6 0-1.2.4-1.3 1l-.5 2.5c-.1.4-.4.7-.9.7H19c-5.1.1-9.9 4-9.9 9.5 0 4.9 4.1 9.4 10 9.4H23c.6 0 1.2-.4 1.3-1l.5-2.5c.1-.4.4-.7.9-.7H29c5.7 0 10-4.4 10-9.4-.1-5.5-4.8-9.5-10.1-9.5zm-.1 15.3h-4c-.6 0-1.1.4-1.3 1l-.5 2.4c-.1.4-.4.7-.9.7h-3c-3.1 0-6.3-2.2-6.3-5.7 0-3.3 2.9-5.7 6.3-5.7h4.6c.6 0 1.1-.4 1.3-1l.5-2.4c.1-.4.4-.7.9-.7h2.4c3.2 0 6.3 2.2 6.3 5.7 0 3.1-2.8 5.7-6.3 5.7z" fill="#333"/></svg>