<?xml version="1.0" encoding="utf-8"?><svg version="1.1" id="prefix__Layer_1" xmlns="http://www.w3.org/2000/svg" x="0" y="0" viewBox="0 0 48 48" xml:space="preserve"><style></style><linearGradient id="prefix__SVGID_1_" gradientUnits="userSpaceOnUse" x1="244.791" y1="58.962" x2="245.159" y2="58.962" gradientTransform="matrix(0 -84 -16.28 0 977.452 20601.97)"><stop offset=".71" stop-color="#116bf2"/><stop offset="1" stop-color="#1e50e5"/></linearGradient><path d="M14.6 8.7c.1.1.2.1.3.2l5.2 5.2c.2.2.3.5.3.8v24.2c0 .2-.2.4-.4.4-.1 0-.2 0-.3-.1l-4.9-4.9c-.2-.2-.3-.5-.3-.8v-25z" fill="url(#prefix__SVGID_1_)"/><linearGradient id="prefix__SVGID_00000179627209663656887130000001215603510658709412_" gradientUnits="userSpaceOnUse" x1="244.791" y1="59.893" x2="245.16" y2="59.893" gradientTransform="matrix(0 -84 -16.28 0 1001.452 20601.99)"><stop offset=".71" stop-color="#116bf2"/><stop offset="1" stop-color="#1e50e5"/></linearGradient><path d="M29 8.9c.1-.1.2-.2.3-.2v25c0 .3-.1.6-.3.8l-4.9 4.9c-.1.1-.4.1-.5 0-.1-.1-.1-.2-.1-.3V14.9c0-.3.1-.6.3-.8L29 8.9z" fill="url(#prefix__SVGID_00000179627209663656887130000001215603510658709412_)"/><linearGradient id="prefix__SVGID_00000016054806892451823920000009444920499809080454_" gradientUnits="userSpaceOnUse" x1="240.904" y1="38.408" x2="241.272" y2="38.408" gradientTransform="rotate(45 3551.613 -17262.96) scale(55.1499 -66.43)"><stop offset=".41" stop-color="#116bf2"/><stop offset="1" stop-color="#185dec"/></linearGradient><path d="M38.6 28.1l-.4-.4v-5.2h-5c-.1 0-.2 0-.3.1l-3.6 3.6 11.5 11.5c.2.2.5.3.8.3h6c.2 0 .4-.2.4-.4 0-.1 0-.2-.1-.3 0 .1-9.3-9.2-9.3-9.2z" fill="url(#prefix__SVGID_00000016054806892451823920000009444920499809080454_)"/><linearGradient id="prefix__SVGID_00000110462472391653324100000010339853070800929968_" gradientUnits="userSpaceOnUse" x1="244.533" y1="47.416" x2="244.902" y2="47.416" gradientTransform="matrix(0 -53.28 -56.7 0 2722.3 13056.74)"><stop offset=".58" stop-color="#116bf2"/><stop offset="1" stop-color="#1e50e5"/></linearGradient><path d="M29.8 8.6c-.3 0-.6.1-.8.3l-5.3 5.2c-.1.1-.2.2-.2.3h14.6v13.3l.4.4 5.2-5.2c.2-.2.3-.5.3-.8v-7.2c0-.3-.1-.6-.3-.8l-5.2-5.2c-.2-.2-.5-.3-.8-.3h-7.9z" fill="url(#prefix__SVGID_00000110462472391653324100000010339853070800929968_)"/><linearGradient id="prefix__SVGID_00000106825459098381028000000017194168826599365762_" gradientUnits="userSpaceOnUse" x1="254.143" y1="34.281" x2="254.512" y2="34.281" gradientTransform="scale(-22.63 22.63) rotate(45 167.698 -290.188)"><stop offset=".03" stop-color="#59c5ff"/><stop offset=".99" stop-color="#21b1ff"/></linearGradient><path d="M14.9 8.9c-.2-.2-.5-.3-.8-.3H.4c-.2 0-.4.1-.4.3 0 .1 0 .2.1.3L5 14.1c.2.2.5.3.8.3h13.9c.4 0 .7.3.7.7v-.3c0-.3-.1-.6-.3-.8l-5.2-5.1z" fill="url(#prefix__SVGID_00000106825459098381028000000017194168826599365762_)"/><linearGradient id="prefix__SVGID_00000100376695782921039780000008112145226300708523_" gradientUnits="userSpaceOnUse" x1="236.489" y1="31.158" x2="236.858" y2="31.158" gradientTransform="scale(22.63 -22.63) rotate(-45 80.749 299.305)"><stop offset=".04" stop-color="#59c5ff"/><stop offset=".99" stop-color="#21b1ff"/></linearGradient><path d="M29 8.9c.2-.2.5-.3.8-.3h7.9c.3 0 .6.1.8.3l5.2 5.2c.2.2.3.5.3.8v.3c0-.4-.3-.7-.7-.7H24.2c-.4 0-.7.3-.7.7v-.3c0-.3.1-.6.3-.8L29 8.9z" fill="url(#prefix__SVGID_00000100376695782921039780000008112145226300708523_)"/><linearGradient id="prefix__SVGID_00000005259352532641536380000017998339188854931330_" gradientUnits="userSpaceOnUse" x1="257.446" y1="54.906" x2="257.815" y2="54.906" gradientTransform="scale(-16.97 16.97) rotate(-45 63.017 341.922)"><stop offset=".04" stop-color="#57c4ff"/><stop offset=".99" stop-color="#21b1ff"/></linearGradient><path d="M44.1 21.8c0 .4-.3.7-.7.7h-9.9c-.1 0-.2.1-.2.2s0 .1.1.1l5.2 5.2 5.2-5.2c.2-.2.3-.5.3-.8v-.2z" fill="url(#prefix__SVGID_00000005259352532641536380000017998339188854931330_)"/></svg>