<?xml version="1.0" encoding="utf-8"?><svg version="1.1" id="prefix__Layer_1" xmlns="http://www.w3.org/2000/svg" x="0" y="0" viewBox="0 0 48 48" xml:space="preserve"><style>.prefix__st0{fill-rule:evenodd;clip-rule:evenodd;fill:#194092}</style><path class="prefix__st0" d="M30 15.4c-.1 3.2-2.7 5.8-5.9 5.8s-5.8-2.6-5.9-5.8v-.2c0-3.2 2.7-5.9 5.9-5.9s5.9 2.7 5.9 6v.1z"/><path class="prefix__st0" d="M20.4 1.6c5-1.7 10.6-1.6 14.9 2 .8.7 1.7 1.6 2.1 2.7.4 1.4-1.5-.1-1.8-.3-1.4-.9-2.8-1.6-4.3-2.1C22.9 1.4 15 5.9 10 13c-2.1 3.1-3.4 6.4-4.5 10-.1.4-.2.9-.4 1.2-.2.3-.1-1.1-.1-1.2.2-1.5.5-2.9.9-4.4 2.2-7.6 7.3-14 14.5-17zM20.3 42.7V25.6c.5 0 1 .1 1.5.1 2.3 0 4.6-.6 6.5-1.7v18.8c0 1.6-.4 2.8-1.1 3.6s-1.7 1.2-2.9 1.2-2.1-.4-2.9-1.2-1.1-2.1-1.1-3.7z"/></svg>