<?xml version="1.0" encoding="utf-8"?>
<!-- Generator: Adobe Illustrator 26.3.1, SVG Export Plug-In . SVG Version: 6.00 Build 0)  -->
<svg version="1.1" id="prefix__Layer_1" xmlns="http://www.w3.org/2000/svg" xmlns:xlink="http://www.w3.org/1999/xlink" x="0px"
	 y="0px" viewBox="0 0 48 48" style="enable-background:new 0 0 48 48;" xml:space="preserve">
<style type="text/css">
	.st0{fill:#FF838A;}
	.st1{fill:#1F1A39;}
</style>
<path class="st0" d="M43.3,37.2c-2.4-0.1-4.3-2.1-4.3-4.5c0-0.1,0-0.1,0-0.2c0.1-2.5,2.2-4.4,4.7-4.3c2.5,0.1,4.4,2.2,4.3,4.7
	c-0.1,2.4-2.1,4.3-4.5,4.3C43.4,37.2,43.4,37.2,43.3,37.2z"/>
<path class="st1" d="M25.4,18.4c0-1.3,1.4-2.2,3.6-2.2c1.8,0.1,3.4,0.7,4.9,1.7l3.1-4.8c-2.5-1.6-5.5-2.5-8.5-2.5
	c-2.4,0-4.8,0.7-6.7,2.1c-1.9,1.3-3,3.5-3,5.8c0,4.8,4.4,6.3,7.9,7.5c2.4,0.8,4.5,1.6,4.5,3.2c0,1.3-1.4,2.3-3.4,2.3
	c-2.6,0-5-0.9-7-2.5l-3.2,4.7c3,2.1,6.5,3.3,10.1,3.3c2.5,0,5-0.7,7-2.2c1.9-1.3,3-3.4,3-5.7c0-5.4-4.6-7-8.3-8.2
	C27.1,20.3,25.4,19.7,25.4,18.4L25.4,18.4z M17.7,15.3c0-0.1,0-0.1,0-0.2c0-2.5-2-4.5-4.5-4.5c-2.4,0-4.4,1.9-4.5,4.3
	c-0.1,2.5,1.8,4.6,4.3,4.7c0.1,0,0.1,0,0.2,0C15.6,19.6,17.6,17.7,17.7,15.3z M0,36.7h6.6V11.3H0V36.7z"/>
</svg>
