<?xml version="1.0" encoding="utf-8"?><svg version="1.1" id="prefix__Layer_1" xmlns="http://www.w3.org/2000/svg" x="0" y="0" viewBox="0 0 48 48" xml:space="preserve"><style>.prefix__st0{fill:#070441}</style><path class="prefix__st0" d="M30.3 25.3L19.1 14.1c-.3-.4-.8-.6-1.3-.7-.3 0-.5 0-.8.1-.2.1-.5.2-.7.4l-9.1 9.2c-.3.4-.6.8-.8 1.3-.2.5-.2 1-.1 1.5v8c0 1.1.4 2.1 1.2 2.9.7.8 1.8 1.2 2.8 1.3h13c.4 0 .8.4 1.2.8l5.9 6.1c.2.2.5.4.8.4.3.1.6.1.9 0 .3-.1.6-.3.7-.6s.3-.6.2-.9v-5.7h4.7c.5 0 1.1-.1 1.6-.3.5-.2.9-.5 1.3-.9s.7-.9.8-1.4c.2-.5.3-1.1.2-1.6v-7.3h-8.3c-.6 0-1.2-.1-1.7-.3-.5-.3-.9-.6-1.3-1.1z"/><path class="prefix__st0" d="M47.1 20.8L34 7.5c-.9-.7-2.1-1-3.3-.9H17.4c-1.3 0-2.6.5-3.6 1.4L.9 20.8c-.2.2-.4.4-.5.6-.1.2-.2.5-.2.7 0 .4.2.9.5 1.2.3.3.7.5 1.2.5.6-.1 1.1-.3 1.5-.8l11-11c.4-.5 1-.8 1.6-1.1.6-.2 1.2-.4 1.9-.4.6 0 1.2.1 1.7.4.5.2 1 .6 1.4 1l11.3 11.3c.2.2.4.3.6.3.2.1.4.1.7.1h12.6c.3 0 .7-.1.9-.2.3-.2.5-.4.6-.7.1-.3.1-.7 0-1.1-.1-.3-.3-.6-.6-.8z"/></svg>