<?xml version="1.0" encoding="UTF-8" standalone="no"?><svg xmlns="http://www.w3.org/2000/svg" version="1.1" id="logo" viewBox="0 0 30 30" xml:space="preserve"><style type="text/css" id="style2">.st0{fill:#FF6600;}</style><g id="g854" transform="matrix(0.5,0,0,0.30849594,0.12711868,-14.70747)"><path style="stroke-width:0.33575341" id="path4741" d="m 6.5512623,119.62999 c -0.2397745,-0.047 -0.6234137,-0.47015 -0.8871657,-0.89329 -2.5655874,-4.93659 0.7193235,-10.62542 4.5557154,-13.91648 v -9.403033 c 0.887166,1.128363 1.390693,1.175379 1.41467,1.316424 l 2.925249,-5.688833 -0.983075,-4.889576 c 8.55995,-5.782864 11.988726,-7.992576 18.942187,-10.296319 l -1.246828,-2.303742 2.038084,-2.256728 c 4.675603,3.00897 9.087454,3.808228 8.320176,11.518713 0.191819,-5.218682 -3.117069,-7.193319 -8.152334,-9.967213 l -0.983076,1.175379 1.870242,3.00897 c -8.320176,2.820909 -13.451351,6.01794 -19.541624,10.155273 l 0.839211,4.231364 -3.069114,5.970924 c 0.503527,0.282091 5.850498,3.761217 11.38929,-3.808227 0,0 0.119887,-0.141046 0.119887,-0.235076 -0.167842,-0.517167 -0.551481,-1.128364 -1.007053,-1.927621 1.630467,0.235076 2.685475,3.00897 2.493655,5.923909 h -0.767278 c 0.04795,-0.940303 -0.04796,-1.974636 -0.215797,-2.632848 -4.291964,6.15898 -9.279274,7.05227 -13.523283,4.137333 v 7.287347 c -2.0620611,1.41046 -5.7306113,5.8769 -5.7066338,10.20229 0.1438647,2.02165 0.6713686,2.77389 1.1748951,3.29106" /><path id="path4745" class="st0" d="m 24.105754,117.22122 c -4.60367,4.56047 -9.015522,8.22765 -15.8011405,8.74482 C -0.54306628,125.58992 -1.909781,114.0712 2.2622956,102.03532 6.2185752,89.905415 12.500668,78.903869 22.475288,72.039657 c 2.901271,-2.021652 7.14528,-4.278379 11.245425,-4.419424 5.898453,-0.09403 11.629064,3.479121 11.245425,14.574697 -0.215797,8.509743 -6.473912,20.45159 -9.758823,29.05536 -1.41467,3.76122 -1.654445,6.206 0.767278,5.97093 8.75177,-1.12836 16.664329,-7.05227 24.025407,-13.21126 -4.98731,6.62914 -30.715116,31.59418 -30.811026,14.5747 0.02398,-2.1627 0.527504,-4.46644 1.366715,-6.91123 0.815233,-2.44479 1.942174,-4.98361 3.117069,-7.56944 1.750354,-3.90226 6.11425,-13.305287 7.576875,-18.947105 C 43.71931,74.62549 38.204496,74.108324 33.432983,70.817263 L 31.3949,73.07399 32.641727,75.377733 C 25.688266,77.63446 22.259491,79.891187 13.69954,85.674051 l 0.983076,4.889576 -2.901272,5.641819 c -0.07193,-0.141046 -0.503526,-0.188061 -1.41467,-1.316425 v 9.403029 c -3.8124145,3.29106 -7.1213029,8.9799 -4.5557155,13.91649 0.263752,0.42313 0.6473912,0.84627 0.8871657,0.89329 4.6995808,5.17166 17.4316078,-1.88061 17.4076298,-1.88061" style="fill:#ff6600;stroke-width:0.33575341" /></g></svg>