<?xml version="1.0" encoding="utf-8"?> <svg version="1.1" id="Réteg_1" xmlns="http://www.w3.org/2000/svg" xmlns:xlink="http://www.w3.org/1999/xlink" x="0px" y="0px" viewBox="0 0 128 128" style="enable-background:new 0 0 128 128;" xml:space="preserve"> <style type="text/css"> .st0{fill:#F78D1E;} .st1{fill:#348AB4;} .st2{fill:#FFFFFF;} </style> <g transform="translate(135.54735005 47.82631082)"> <path class="st0" d="M-71.2,79.7c-35,0-63.6-28.5-63.6-63.6c0-35,28.5-63.6,63.6-63.6c35.1,0,63.6,28.5,63.6,63.6 C-7.7,51.2-36.2,79.7-71.2,79.7z M-71.2-26.7c-23.7,0-42.9,19.2-42.9,42.9s19.2,42.9,42.9,42.9s42.9-19.2,42.9-42.9 S-47.6-26.7-71.2-26.7z"/> <g> <path class="st1" d="M-133.6,26.1c0,0-1.5-0.4,0-1.8c1.5-1.5,8.5-12.3,16-14.9s9.6,2.9,11.5,6.2c1.9,3.3,5.6,11.8,6.6,14.1 c1,2.3,2.1,0,3-1.3c1-1.3,20.8-32.9,76.8-62.8c0,0,0.5-0.1,0.7-0.2c1.7-0.5,5.8,0.6,1.2,4.3c-5.5,4.3-28.7,18.8-67.2,84.6 c0,0-1,1.7-2.6,3.5c-1.6,1.7-12.3,9.1-13.5,9.6c-1.2,0.6-1.2-1.8-3-6.1C-109.1,48.7-116.9,25.2-133.6,26.1L-133.6,26.1z"/> <path class="st2" d="M-101.2,68.5c-0.3,0-0.5-0.1-0.7-0.1c-0.9-0.4-1.3-1.4-1.8-3.1c-0.3-1-0.7-2.2-1.4-3.7 c-0.5-1.2-1-2.5-1.6-3.8c-5.1-12.4-12.7-31.3-26.9-30.4l-0.2,0l-0.2,0c-0.6-0.1-1.3-0.6-1.5-1.4c-0.2-0.8,0.1-1.6,0.9-2.5 c0.2-0.2,0.8-0.9,1.4-1.7c2.8-3.7,8.7-11.3,15.1-13.5c7.7-2.7,10.5,2.3,12.4,5.7c0.2,0.4,0.4,0.7,0.6,1.1 c2.1,3.5,5.9,12.5,6.6,14.1c0.2-0.2,0.4-0.5,0.5-0.7c0.2-0.2,0.3-0.5,0.5-0.7l0.2-0.3c5.4-8,27-36.2,77-62.9l0.3-0.1 c0,0,0.3-0.1,0.5-0.2l0.2-0.1c1.4-0.4,3.8-0.1,4.6,1.5c0.7,1.4,0,3.1-2.3,4.9c-0.4,0.3-0.8,0.6-1.4,1C-25.6-23.1-48-6.4-83.8,54.7 c0,0.1-1,1.8-2.7,3.7c-1.6,1.8-12.5,9.3-14,9.9C-100.7,68.5-101,68.5-101.2,68.5z M-101.4,66.1C-101.4,66.1-101.4,66.1-101.4,66.1 C-101.4,66.1-101.4,66.1-101.4,66.1z M-132.5,24.9c15.1,0.1,22.9,19.2,28.1,32c0.5,1.4,1.1,2.6,1.6,3.8c0.7,1.6,1.1,2.9,1.4,3.9 c0.1,0.4,0.3,0.9,0.4,1.3c2.4-1.4,11.3-7.6,12.6-9.1c1.4-1.7,2.4-3.3,2.4-3.3c36.1-61.6,58.8-78.4,66.2-84c0.5-0.4,1-0.7,1.3-1 c1.6-1.3,1.6-1.9,1.6-1.9c-0.1-0.2-1.1-0.4-1.7-0.3c-0.2,0.1-0.5,0.2-0.7,0.2c-49.5,26.4-70.7,54.2-76,62l-0.2,0.4 c-0.1,0.2-0.3,0.4-0.4,0.6c-0.7,1.1-1.5,2.3-2.8,2.2c-0.8-0.1-1.4-0.7-1.9-1.7c-1.6-3.8-4.8-11.1-6.5-13.9 c-0.2-0.3-0.4-0.7-0.6-1.1c-1.8-3.3-3.7-6.6-9.5-4.6c-5.7,2-11.3,9.3-14,12.7C-131.7,24-132.1,24.5-132.5,24.9z"/> </g> </g> </svg>