<?xml version="1.0" encoding="UTF-8"?><svg xmlns="http://www.w3.org/2000/svg" xmlns:xlink="http://www.w3.org/1999/xlink" viewBox="0 0 30 30" version="1.1"><g id="surface1"><path style="stroke:none;fill-rule:nonzero;fill:rgb(0%,58.823529%,100%);fill-opacity:1;" d="M 18.644531 10.152344 L 18.644531 21.554688 C 18.644531 23.722656 19.523438 24.644531 21.644531 24.644531 L 22.382812 24.644531 L 22.382812 27.875 L 21.644531 27.875 C 17.863281 27.875 15.785156 26.445312 15.230469 23.492188 C 13.890625 26.308594 11.308594 28.199219 8.167969 28.199219 C 3.414062 28.199219 0 24.230469 0 19.015625 C 0 13.800781 3.414062 9.832031 7.984375 9.832031 C 11.355469 9.832031 13.890625 12 15 15.277344 L 15 10.152344 Z M 9.183594 24.832031 C 12.554688 24.832031 15 22.339844 15 19.015625 C 15 15.644531 12.601562 13.152344 9.183594 13.152344 C 6.183594 13.152344 3.738281 15.644531 3.738281 19.015625 C 3.738281 22.339844 6.183594 24.832031 9.183594 24.832031 Z M 10.707031 2.308594 L 14.769531 2.308594 L 10.707031 7.847656 L 7.015625 7.847656 Z M 10.707031 2.308594"/><path style="stroke:none;fill-rule:nonzero;fill:rgb(100%,40%,3.921569%);fill-opacity:1;" d="M 25.339844 23.628906 C 26.585938 23.628906 27.601562 24.644531 27.601562 25.890625 C 27.601562 27.136719 26.585938 28.152344 25.339844 28.152344 C 24.09375 28.152344 23.078125 27.136719 23.078125 25.890625 C 23.03125 24.691406 24.09375 23.628906 25.339844 23.628906 Z M 23.492188 2.308594 L 27.140625 2.308594 L 27.140625 20.769531 L 23.492188 20.769531 Z M 23.492188 2.308594"/></g></svg>