<?xml version="1.0" encoding="utf-8"?>
<!-- Generator: Adobe Illustrator 27.2.0, SVG Export Plug-In . SVG Version: 6.00 Build 0)  -->
<svg version="1.1" id="Layer_1" xmlns="http://www.w3.org/2000/svg" xmlns:xlink="http://www.w3.org/1999/xlink" x="0px" y="0px"
	 viewBox="0 0 48 48" style="enable-background:new 0 0 48 48;" xml:space="preserve">
<style type="text/css">
	.st0{fill-rule:evenodd;clip-rule:evenodd;fill:#F6765E;}
</style>
<g id="Page-1">
	<g id="Desktop-Doctor-Profile-Copy-4" transform="translate(-114.000000, -9.000000)">
		<g id="Shape-_x2B_-Group" transform="translate(114.000000, 9.000000)">
			<g id="Shape" transform="translate(0.000000, 0.585366)">
				<path class="st0" d="M48,23.4C48,11.7,37.2,2.2,24,2.2s-24,9.5-24,21.2s10.8,21.2,24,21.2S48,35.1,48,23.4L48,23.4z M36.5,39.9
					c-1.1-0.6-2.8-0.6-3.7-0.7c-0.2,0-0.3,0-0.4,0c-1.6-0.1-3.4,0.3-4.7,0.6c-0.5,0.1-1,0.2-1.3,0.2c-0.8,0-1.7-0.2-1.8-0.2l-0.2,0
					l-0.2,0c-0.6,0.1-0.7,0.1-2.6-0.7L21.6,39c-2.7-1.1-6.6-2.8-7.2-3.1c-0.5-0.3-3.5-3.1-5-4.6c-0.8-0.9-2.3-2.3-2.3-2.3L7,28.9
					l-0.1,0c-0.3-0.2-0.6-0.4-0.8-0.5l0-0.3c0-0.1,0.1-0.2,0.2-0.3c0.3-0.2,0.9-0.2,1.2,0c0.5,0.4,1.2,0.9,1.8,1.3
					c0.6,0.5,1,0.8,1.2,0.9c0.3,0.2,1.8,0.9,2.7,1.4c-0.3,0.4-0.4,0.9-0.3,1.4c0.1,0.6,0.6,1.1,1.4,1.6c0.7,0.5,3,1.4,5.6,1.2
					l0.6,0.1c2,0.3,6.2,1.1,7.6,2c0.1,0.1,0.3,0.1,0.4,0.1c0.2,0,0.5-0.1,0.6-0.3c0.2-0.3,0.1-0.8-0.2-1c-1.7-1.1-5.9-1.9-8.2-2.2
					L20,34.2l-0.1,0c-1,0.1-1.9,0-2.7-0.2l0-0.2c0-0.7,0-1.8,0.1-2.6l0-0.1c1.1-0.1,2.6,0,4.4,0.4c3.6,0.8,5.8-0.2,6.6-0.6
					c0.1,0,0.2-0.1,0.2-0.1c0,0,5-1.6,8-1.1c2.6,0.5,5.3,2.3,7.2,3.5C41.9,35.9,39.4,38.2,36.5,39.9L36.5,39.9z M15.5,31.4
					c0.3,0,0.6,0,0.8,0.1c0,0.6-0.1,1.3,0,1.8c-0.4,0-0.8-0.1-1.2-0.2c-0.6-0.4-0.7-0.6-0.7-0.7c0-0.2,0.2-0.5,0.5-0.8
					c0.1-0.1,0.3-0.2,0.4-0.2C15.3,31.4,15.4,31.4,15.5,31.4L15.5,31.4z M36.7,28.2c-3.3-0.6-8.6,1.1-8.7,1.1
					c-0.1,0-0.2,0.1-0.4,0.2c-0.8,0.4-2.5,1.2-5.6,0.5c-3.8-0.9-6.4-0.5-7.7,0.2c-1-0.5-2.8-1.5-3-1.6c-0.1-0.1-0.6-0.5-1.1-0.8
					c-0.6-0.5-1.3-1-1.8-1.4C7.6,26,6.4,26,5.6,26.5c-0.5,0.3-0.8,0.7-0.9,1.1c-0.2,0.2-0.2,0.4-0.2,0.4c0,0.2-0.2,0.9,1.7,2
					c0.3,0.3,1.5,1.5,2.2,2.3c0,0,4.4,4.3,5.3,4.8c0.7,0.4,5.3,2.3,7.4,3.2l0.2,0.1c1.9,0.8,2.4,1,3.3,0.8c0.3,0.1,1,0.2,1.7,0.2
					c0.1,0,0.2,0,0.3,0c0.4,0,0.8-0.1,1.5-0.3c1.2-0.3,2.9-0.6,4.3-0.5c0.1,0,0.2,0,0.4,0c0.5,0,1.3,0.1,2,0.2
					c-3.2,1.5-6.8,2.4-10.7,2.4c-12.4,0-22.5-8.9-22.5-19.8S11.6,3.6,24,3.6s22.5,8.9,22.5,19.8c0,3.1-0.8,5.9-2.2,8.5
					C42.4,30.6,39.5,28.7,36.7,28.2L36.7,28.2z"/>
				<ellipse id="Oval" class="st0" cx="23.4" cy="13.2" rx="1.3" ry="1.3"/>
			</g>
		</g>
	</g>
</g>
</svg>
