<?xml version="1.0" encoding="utf-8"?><svg version="1.1" id="prefix__Layer_1" xmlns="http://www.w3.org/2000/svg" x="0" y="0" viewBox="0 0 48 48" xml:space="preserve"><style>.prefix__st0{fill:#0202ea}</style><path class="prefix__st0" d="M35.1 19.3c.5.5 1.1.7 1.7.7.6 0 1.2-.2 1.7-.7l8.6-8.6c.9-.9.9-2.5 0-3.4-.9-.9-2.5-.9-3.4 0l-8.6 8.6c-1 .9-1 2.4 0 3.4z"/><path class="prefix__st0" d="M42.8 23.4c-.9-.9-2.4-.9-3.3-.1L27.2 35.6c-.7.7-1.8.7-2.5 0s-.7-1.8 0-2.5l4.4-4.4 4.6-4.6c.9-.9.9-2.5 0-3.4s-2.5-.9-3.4 0l-2.7 2.7-.4.4c-.7.7-1.8.7-2.5 0s-.7-1.8 0-2.5l1.9-1.9 8.8-8.8c.9-.9.9-2.5 0-3.4s-2.5-.9-3.4 0l-5.2 5.2c-.5.4-1.1.7-1.7.7s-1.2-.2-1.6-.6l-4.9-4.9c-4.2-4.2-11.1-4.2-15.3 0-2.1 2-3.2 4.7-3.2 7.6s1.2 5.6 3.2 7.6l20 20 .1.1c.5.5 1.1.7 1.7.7.6 0 1.2-.2 1.7-.7l16.1-16.1c.8-1 .8-2.5-.1-3.4z"/><circle class="prefix__st0" cx="45.6" cy="20" r="2.4"/></svg>