<?xml version="1.0" encoding="utf-8"?><svg version="1.1" id="prefix__Layer_1" xmlns="http://www.w3.org/2000/svg" x="0" y="0" viewBox="0 0 48 48" xml:space="preserve"><style>.prefix__st2{fill:#fbd205}</style><circle cx="24" cy="24.1" r="20.2" fill="#fff"/><path d="M47.8 24.1c0 12.9-10.6 23.7-23.3 23.7C10.9 47.8.2 37.4.2 24.1.1 11.1 10.8.3 24 .2c13 0 23.8 10.7 23.8 23.9zm-9.3 1.2c-10.9 2.3-21.6 2.2-32.3-1.7 0 4.6 1.4 8.7 4.7 12.2-.9-2.8-2.8-5.4-2.3-8.7.5.8.9 1.6 1.3 2.5 3.4 7.4 7.6 11.9 17.3 11.1 3.5-.3 6.5-1.4 8.7-4.3.6-.4 1.5-.7 1.8-1.2 1.2-2.4 2.4-4.9 3.3-7.4.4-1.1.4-2.3.6-3.7-1.4.4-2.2.8-3.1 1.2zM8.4 22.6c.7.3 1.4.6 2.2.8 5.9 1.5 11.8 2.1 17.8 1.6 3.7-.3 7.4-1.3 11.1-2 .5-.5 1-1 1.6-1.4-.7-.6-1.3-1.2-2-1.7-.2-.6-.5-1.1-.7-1.7C34.4 6.9 20 4 12.5 13.1c-1.6 1.9-2.5 4.4-3.8 6.7-.7.5-1.3 1-2 1.5.6.4 1.1.9 1.7 1.3z" fill="#514032"/><path class="prefix__st2" d="M35.8 36.4c-2.2 2.8-5.3 4-8.7 4.3-9.7.8-13.9-3.7-17.3-11.1-.4-.8-.8-1.7-1.3-2.5-.4 3.2 1.4 5.8 2.3 8.7-3.2-3.5-4.7-7.5-4.7-12.2 10.7 3.8 21.4 3.9 32.3 1.7 0 .8.1 1.6.1 2.5.1 3.1-1 5.9-2.7 8.6zM39.4 23c-.1-1.1-.3-2.1-.4-3.2.7.6 1.3 1.2 2 1.7-.5.5-1 1-1.6 1.5zM8.8 19.7c-.1 1-.3 1.9-.4 2.9-.5-.5-1.1-.9-1.6-1.4.6-.5 1.3-1 2-1.5z"/></svg>