<?xml version="1.0" encoding="UTF-8"?>
<svg id="Layer_2" data-name="Layer 2" xmlns="http://www.w3.org/2000/svg" viewBox="0 0 16 16">
	<defs>
	<style>
	.cls-1 {
		fill: #4285f4;
	}

	.cls-1, .cls-2 {
		fill-rule: evenodd;
		stroke-width: 0px;
	}

	.cls-2 {
		fill: #fff;
	}
	</style>
	</defs>
	<g id="Layer_1-2" data-name="Layer 1">
		<g>
			<path class="cls-1" d="M7.29.34c.17-.22.43-.34.71-.34s.54.13.71.34l.78,1.01c.06.08.15.14.25.16.1.03.2.02.3-.02l1.18-.48c.26-.1.54-.08.78.05.24.14.4.38.44.65l.18,1.26c.01.1.06.19.13.26.07.07.16.12.26.13l1.26.18c.27.04.51.2.65.44.14.24.16.53.05.78l-.48,1.18c-.04.09-.04.2-.02.3.03.1.08.18.16.25l1.01.79c.22.17.34.43.34.71s-.13.54-.34.71l-1.01.78c-.08.06-.14.15-.16.25-.03.1-.02.2.02.3l.48,1.18c.1.26.08.54-.05.78-.14.24-.38.4-.65.44l-1.26.18c-.1.01-.19.06-.26.13s-.12.16-.13.26l-.18,1.27c-.04.27-.2.51-.44.65-.24.14-.53.16-.78.05l-1.18-.48c-.09-.04-.2-.04-.3-.02-.1.03-.18.08-.25.16l-.78,1.01c-.17.22-.43.34-.71.34s-.54-.13-.71-.34l-.78-1.01c-.06-.08-.15-.14-.25-.16-.1-.03-.2-.02-.3.02l-1.18.48c-.26.1-.54.08-.78-.05-.24-.14-.4-.38-.44-.65l-.18-1.27c-.01-.1-.06-.19-.13-.26-.07-.07-.16-.12-.26-.13l-1.26-.18c-.27-.04-.51-.2-.65-.44-.14-.24-.16-.53-.05-.78l.48-1.18c.04-.09.04-.2.02-.3-.03-.1-.08-.18-.16-.25l-1.01-.78c-.22-.17-.34-.43-.34-.71s.13-.54.34-.71l1.01-.79c.08-.06.14-.15.16-.25.03-.1.02-.2-.02-.3l-.48-1.18c-.1-.26-.08-.54.05-.78.14-.24.38-.4.65-.44l1.26-.18c.1-.01.19-.06.26-.13.07-.07.12-.16.13-.26l.18-1.26c.04-.27.2-.51.44-.65.24-.14.53-.16.78-.05l1.18.48c.09.04.2.04.3.02.1-.03.18-.08.25-.16l.78-1.01Z"/>
			<path class="cls-2" d="M7.74,8.05l2.49-2.5c.19-.19.49-.19.67,0l.67.67c.19.19.19.49,0,.67l-3.32,3.33s-.02.03-.03.04l-.67.67c-.09.09-.22.14-.34.14s-.24-.05-.34-.14l-.67-.67s-.02-.02-.03-.04l-1.74-1.74c-.19-.19-.19-.48,0-.67l.67-.67c.19-.19.49-.19.67,0l1.32,1.32h0s.12.12.12.12h0s1.35,1.33,1.35,1.33l-.82-1.86Z"/>
		</g>
	</g>
</svg>